<?xml version="1.0" encoding="utf-8"?>
<svg version="1.1" xmlns="http://www.w3.org/2000/svg" xmlns:xlink="http://www.w3.org/1999/xlink" x="0px" y="0px"
	 viewBox="0 0 338.8 393" style="enable-background:new 0 0 338.8 393;" xml:space="preserve">
<style type="text/css">
	.st0{fill:none;stroke:#000000;stroke-width:1.2;stroke-linecap:round;stroke-linejoin:round;}
	.st1{fill:none;stroke:#000000;stroke-width:1.2;stroke-linecap:round;stroke-linejoin:round;stroke-dasharray:28,28;}
</style>
<g id="Desktop">
	<g id="Desktop---Inicio" transform="translate(-970.000000, -3803.000000)">
		<g id="nosotros" transform="translate(0.000000, 3803.000000)">
			<g id="bg">
				<g id="icon-triangulo" transform="translate(971.000000, -35.000000)">
					<polygon id="Abstract-11" class="st0" points="223.2,192.3 168.2,288.1 113.1,192.3 					"/>
					<polygon id="Abstract-11_1_" class="st0" points="337.1,133.7 168.4,427.4 -0.4,133.7 					"/>
					<polygon id="Abstract-11_2_" class="st0" points="-0.3,329.3 168.5,35.6 337.2,329.3 					"/>
					<path id="Path" class="st1" d="M91.1,227.4c0-42.8,34.5-77.5,77.1-77.5c42.6,0,77.1,34.7,77.1,77.5s-34.5,77.5-77.1,77.5
						C125.6,304.9,91.1,270.2,91.1,227.4z"/>
					<path id="Path_1_" class="st0" d="M70.8,231.5c0-54,43.6-97.7,97.4-97.7c53.8,0,97.4,43.8,97.4,97.7s-43.6,97.7-97.4,97.7
						C114.4,329.2,70.8,285.5,70.8,231.5z"/>
					<path id="Line" class="st0" d="M168.2,288.1v-95.8"/>
					<path id="Line-2" class="st0" d="M168.2,214.6h41.9"/>
					<path id="Line-3" class="st0" d="M168.2,235.3h30.3"/>
					<path id="Line-4" class="st0" d="M168.8,256h17.3"/>
					<path id="Line-6" class="st0" d="M-0.3,133.7l84.1,48.7"/>
					<path id="Line-7" class="st0" d="M337.1,329.2l-85-48.7"/>
					<path id="Line-6_1_" class="st0" d="M336.9,133.7l-84.1,48.7"/>
					<path id="Line-7_1_" class="st0" d="M-0.4,329.2l85-48.7"/>
					<path id="Line-5" class="st0" d="M168.2,35.6v97.9"/>
					<path id="Line-8" class="st0" d="M168.8,427.4v-98.2"/>
				</g>
			</g>
		</g>
	</g>
</g>
</svg>
