<svg xmlns="http://www.w3.org/2000/svg" width="16.029" height="13.023" viewBox="0 0 16.029 13.023">
  <path id="Fill_1" data-name="Fill 1" d="M15.572.289a5.346,5.346,0,0,1-2.062.732h0A3.306,3.306,0,0,0,7.9,4.044h0A9.158,9.158,0,0,1,1.08.613a3.308,3.308,0,0,0,1,4.369A2.126,2.126,0,0,1,.638,4.608,3.187,3.187,0,0,0,3.189,7.84a2.618,2.618,0,0,1-1.377.1,3.126,3.126,0,0,0,2.956,2.244A5.881,5.881,0,0,1,0,11.561a9.936,9.936,0,0,0,5.173,1.462,9.187,9.187,0,0,0,9.255-9.657c0-.006,0-.012,0-.018s0-.027,0-.042,0-.032,0-.048a5.7,5.7,0,0,0,1.6-1.693,5.8,5.8,0,0,1-1.834.52,3.513,3.513,0,0,0,1.377-1.8" transform="translate(0 0)" fill="#302a23"/>
</svg>
