<svg xmlns="http://www.w3.org/2000/svg" width="16.5" height="16.517" viewBox="0 0 16.5 16.517">
  <g id="Group_6" data-name="Group 6" transform="translate(0 0)">
    <path id="Fill_33" data-name="Fill 33" d="M13.406,16.517H3.093A3.1,3.1,0,0,1,0,13.42V3.1A3.1,3.1,0,0,1,1.031.793V13.42a2.066,2.066,0,0,0,2.062,2.065H13.406a2.066,2.066,0,0,0,2.062-2.065V5.162H11.1a4.188,4.188,0,0,0-5.692,0H4.125V0h9.282A3.1,3.1,0,0,1,16.5,3.1V13.42A3.1,3.1,0,0,1,13.406,16.517ZM12.891,1.549A1.033,1.033,0,0,0,11.859,2.58V3.1a1.033,1.033,0,0,0,1.031,1.032h1.031A1.033,1.033,0,0,0,14.953,3.1V2.58a1.032,1.032,0,0,0-1.031-1.031Z" fill="#302a23"/>
    <path id="Fill_35" data-name="Fill 35" d="M1.031,5.162V0A3.083,3.083,0,0,0,0,.18V5.162Z" transform="translate(1.886)" fill="#302a23"/>
    <path id="Fill_37" data-name="Fill 37" d="M3.14,6.287A3.144,3.144,0,1,1,6.281,3.144,3.145,3.145,0,0,1,3.14,6.287Zm0-5.24a2.1,2.1,0,1,0,2.1,2.1A2.1,2.1,0,0,0,3.14,1.048Z" transform="translate(5.186 5.657)" fill="#302a23"/>
  </g>
</svg>
