<svg xmlns="http://www.w3.org/2000/svg" width="16.694" height="15.83" viewBox="0 0 16.694 15.83">
  <g id="Group_2" data-name="Group 2" transform="translate(-8.014 -8.486)">
    <path id="Fill_182" data-name="Fill 182" d="M2.058,3.756A1.973,1.973,0,0,0,4.115,1.879,1.974,1.974,0,0,0,2.058,0,1.974,1.974,0,0,0,0,1.879,1.973,1.973,0,0,0,2.058,3.756" transform="translate(8.014 8.486)" fill="#302a23"/>
    <path id="Fill_183" data-name="Fill 183" d="M0,10.644H3.691V0H0Z" transform="translate(8.486 13.671)" fill="#302a23"/>
    <path id="Fill_184" data-name="Fill 184" d="M3.684,5.2c0-1.221.578-2.414,1.958-2.414s1.72,1.194,1.72,2.385v5.813h3.674V4.929C11.037.725,8.552,0,7.024,0A3.736,3.736,0,0,0,3.684,1.768V.335H0V10.979H3.684Z" transform="translate(13.671 13.2)" fill="#302a23"/>
  </g>
</svg>
