<svg id="icon_castle" data-name="icon / castle" xmlns="http://www.w3.org/2000/svg" xmlns:xlink="http://www.w3.org/1999/xlink" width="144" height="150" viewBox="0 0 144 150">
  <defs>
    <clipPath id="clip-path">
      <path id="Clip_7" data-name="Clip 7" d="M0,0H144V150H0Z" fill="none"/>
    </clipPath>
  </defs>
  <path id="Clip_7-2" data-name="Clip 7" d="M0,0H144V150H0Z" fill="none"/>
  <g id="icon_castle-2" data-name="icon / castle" clip-path="url(#clip-path)">
    <path id="Fill_6" data-name="Fill 6" d="M1.5,7A1.657,1.657,0,0,0,3,5.223V1.777A1.656,1.656,0,0,0,1.5,0,1.656,1.656,0,0,0,0,1.777V5.223A1.657,1.657,0,0,0,1.5,7Z" transform="translate(83 61)" fill="#dead5d" opacity=".5"/>
    <path id="Fill_8" data-name="Fill 8" d="M78.087,150c-.049,0-.1,0-.147-.005A1.837,1.837,0,0,1,76.3,148.1c.088-6.94,7.559-12.768,12.005-15.624-4.191-1.016-8.434-1.923-12.612-2.695-2.56.379-25.369,4.056-37.682,16.309a1.791,1.791,0,0,1-2.473.047A1.7,1.7,0,0,1,35,144.9a1.93,1.93,0,0,1,.573-1.4,52.525,52.525,0,0,1,15.1-10.022,90.049,90.049,0,0,1,15.221-5.308,255.144,255.144,0,0,0-29.484-2.532v5.583A1.781,1.781,0,0,1,34.622,133c-.058,0-.116,0-.175-.008a1.833,1.833,0,0,1-1.608-1.843v-5.577c-.72-.016-1.911-.024-3.541-.024A258.528,258.528,0,0,0,1.974,127c-.072.007-.134.01-.19.01A1.789,1.789,0,0,1,0,125.259a1.834,1.834,0,0,1,1.669-1.791A258.484,258.484,0,0,1,29.293,122c1.314,0,2.507.008,3.546.024v-3.347a12.151,12.151,0,0,1-6.656-1.976c-2.453-1.748-3.7-4.652-3.7-8.63a43.528,43.528,0,0,1,3.461-15.3A59.152,59.152,0,0,1,12.58,88.209a8.281,8.281,0,0,0-3.756-.91,8.463,8.463,0,0,0-2.383.338c-1.315.38-2.364.689-3.206.944a1.983,1.983,0,0,1-.517.077A1.79,1.79,0,0,1,.969,87.229a1.822,1.822,0,0,1,1.3-2.065c.9-.274,1.916-.571,3.182-.938a12.052,12.052,0,0,1,3.368-.477,11.67,11.67,0,0,1,4.66.96l11.5-1.981a3.332,3.332,0,0,1,2.8-3.763c1.626-.3,3.522-.633,5.634-.978V75.426c-2.508-.447-3.78-2.033-3.78-4.713s1.661-9.743,5.4-9.743,5.4,7.06,5.4,9.743-1.272,4.266-3.782,4.713v2.056c2.733-.411,5.566-.78,8.419-1.1V47.628a1.771,1.771,0,0,1-1.6-1.766v-5.2a1.78,1.78,0,0,1,1.782-1.774h1.157l2.745-9.369a1.792,1.792,0,0,1,1.713-1.278,2.146,2.146,0,0,1,.4.045A1.811,1.811,0,0,1,52.6,29.569l2.731,9.32h1.161a1.78,1.78,0,0,1,1.782,1.774v5.2a1.771,1.771,0,0,1-1.606,1.766V53.87h4.944V27.353a1.988,1.988,0,0,1,.1-.571L67.544,9.563V1.774A1.781,1.781,0,0,1,69.328,0c.058,0,.116,0,.175.008a1.833,1.833,0,0,1,1.608,1.843V9.563l4.646,13.7a1.784,1.784,0,0,1,2.741.863L83.23,38.076a1.945,1.945,0,0,1,.1.578V53.87h4.944V47.626a1.768,1.768,0,0,1-1.606-1.765v-5.2a1.781,1.781,0,0,1,1.783-1.775h1.16l2.743-9.37a1.79,1.79,0,0,1,1.711-1.276,2.152,2.152,0,0,1,.4.045,1.81,1.81,0,0,1,1.323,1.281l2.731,9.32H99.68a1.781,1.781,0,0,1,1.784,1.775v5.2a1.767,1.767,0,0,1-1.6,1.765V76.382c2.8.315,5.63.685,8.418,1.1V75.424c-2.508-.446-3.78-2.032-3.78-4.712s1.661-9.744,5.4-9.744,5.4,7.061,5.4,9.744-1.272,4.266-3.782,4.714v2.56c2.2.359,4.044.68,5.642.981a3.347,3.347,0,0,1,2.773,3.882l11.387,1.928a12,12,0,0,1,4.841-1.017,12.261,12.261,0,0,1,3.317.467c1.083.311,2.156.627,3.187.938a1.822,1.822,0,0,1,1.3,2.066,1.79,1.79,0,0,1-1.749,1.427,2,2,0,0,1-.518-.077c-.9-.27-1.946-.579-3.207-.944a8.673,8.673,0,0,0-2.332-.329,8.455,8.455,0,0,0-3.9.951c-4.577,2.358-11.572,4.415-20.227,5.95a218.662,218.662,0,0,1-29.752,2.921l.441,4.657a1.42,1.42,0,0,1,.008.2,1.873,1.873,0,0,0,.818,1.642c1.8,1.152,6.155,2.8,16.646,4.131,17.12,2.169,32.736,4.846,35.741,13.656,1.807,5.3-1.214,11.947-9.235,20.326l.557.248.039.017.023.01.091.04c.271.12.525.233.887.4a1.824,1.824,0,0,1,1.012,2.222,1.787,1.787,0,0,1-1.687,1.2,1.718,1.718,0,0,1-.744-.162,209.685,209.685,0,0,0-33.643-11.977c-.087.038-.16.069-.224.1-3.655,1.885-13.139,8.146-13.139,14.392A1.78,1.78,0,0,1,78.087,150ZM64.713,103.727c-.5.528-2.078,2.368-1.591,3.884.358,1.116,2.456,3.836,14.164,4.978a199.482,199.482,0,0,1,25.027,3.668c8.96,2.1,13.426,4.732,14.056,8.275a5.821,5.821,0,0,1-1.6,4.871,24.024,24.024,0,0,1-6.7,5.068c5.157,1.735,10.253,3.669,15.146,5.746,7.582-7.671,10.725-13.614,9.343-17.665-2.343-6.867-17.5-9.336-32.814-11.275-12.436-1.575-19.149-3.947-20.523-7.252a.626.626,0,0,1-.053-.3Zm-20.25-7.9a42.843,42.843,0,0,1,2.3,12.239c0,3.979-1.244,6.882-3.7,8.63a12.271,12.271,0,0,1-6.656,1.976v3.417a259.774,259.774,0,0,1,31.82,2.832,240.412,240.412,0,0,1,35.114,8.01c9.309-4.568,9.639-7.112,9.518-7.783s-1.293-3.077-11.365-5.441a195.985,195.985,0,0,0-24.554-3.591c-10.317-1.007-15.95-3.443-17.222-7.447-1.062-3.347,1.436-6.388,2.559-7.54l.381-4.008c-6.332-.222-12.454-.657-18.194-1.294ZM33.9,87.727a6.728,6.728,0,0,0-2.763,2.755A28.206,28.206,0,0,0,28.611,95.7a38.236,38.236,0,0,0-2.558,12.373c0,5.235,2.243,7.091,8.57,7.091s8.569-1.856,8.569-7.091a37.284,37.284,0,0,0-2.185-11.342c-1.4-4.033-3.123-7.1-4.728-8.427-.869-.2-1.647-.384-2.378-.575Zm33.382-1.6-1.335,14.05H78.988L77.653,86.13Zm49.381-.232h0c-6.973,2.891-19.7,4.89-34.931,5.483l.212,2.21c17.448-.6,33.19-2.871,43.187-6.233L116.664,85.9ZM41.555,89.32A27.529,27.529,0,0,1,43,92.087c6.289.755,13.017,1.26,20,1.5l.21-2.207a176.935,176.935,0,0,1-21.648-2.059ZM28.042,85.8l-8.5,1.465A80.967,80.967,0,0,0,27.581,89.5a17.02,17.02,0,0,1,2.212-3.023c-.672-.239-1.245-.461-1.751-.678Zm53.194.329.163,1.712a177.71,177.71,0,0,0,20.63-1.9,58.666,58.666,0,0,0,13.9-3.594c-5.3-.972-10.7-1.779-16.071-2.4v4.4a1.781,1.781,0,0,1-1.785,1.774Zm-46.613-2.1a5.628,5.628,0,0,1,3.028.934,158.068,158.068,0,0,0,25.886,2.875L63.7,86.13H46.861a1.78,1.78,0,0,1-1.783-1.774v-4.4c-5.355.615-10.763,1.421-16.073,2.4a34.425,34.425,0,0,0,4.975,1.728A4.913,4.913,0,0,1,34.623,84.033Zm57.214-36.4V82.58h4.456V47.636ZM72.467,63.872a8.58,8.58,0,0,1,8.592,8.549V82.58h7.213V57.419H56.664V82.58h7.213V72.421A8.58,8.58,0,0,1,72.467,63.872Zm0,3.55a5.017,5.017,0,0,0-5.024,5V82.58h10.05V72.421A5.019,5.019,0,0,0,72.467,67.422ZM48.643,47.636V82.58H53.1V47.636ZM109.9,64.247c-.813.62-2.161,3.981-2.161,6.465,0,1.2.177,1.625,2.161,1.625s2.16-.421,2.16-1.625C112.058,68.228,110.711,64.867,109.9,64.247Zm-74.86,0c-.812.62-2.159,3.982-2.159,6.465,0,1.2.177,1.625,2.159,1.625s2.161-.421,2.161-1.625C37.2,68.229,35.851,64.868,35.038,64.247ZM73.857,40.43V53.87h5.907V40.43Zm-8.682-11.3V53.87h5.116V38.656a1.659,1.659,0,0,1,.095-.567l3.038-8.962ZM90.233,42.436v1.652H97.9V42.436Zm-43.194,0v1.652H54.7V42.436Zm47.026-6.08-.742,2.533h1.483Zm-43.195,0-.742,2.532h1.483ZM76.81,30.242l-2.253,6.639h4.5ZM69.326,15.4,65.875,25.578h6.9Z" fill="#dead5d" opacity=".5"/>
  </g>
</svg>
