<?xml version="1.0" encoding="UTF-8"?>
<svg width="30px" height="24px" viewBox="0 0 30 24" version="1.1" xmlns="http://www.w3.org/2000/svg" xmlns:xlink="http://www.w3.org/1999/xlink">
    <g id="Desktop" stroke="none" stroke-width="1" fill="none" fill-rule="evenodd" stroke-linecap="round" stroke-linejoin="round">
        <g id="Desktop---Proyecto" transform="translate(-767.000000, -2619.000000)" stroke="#000000" stroke-width="2">
            <g id="texto-/-2" transform="translate(-10.000000, 1717.000000)">
                <g id="valor-01" transform="translate(778.000000, 903.000000)">
                    <g id="icon-objetivo">
                        <path d="M28,10.9375 C28,10.9375 21.7319375,21.875 14,21.875 C6.267625,21.875 0,10.9375 0,10.9375 C0,10.9375 6.267625,0 14,0 C21.7319375,0 28,10.9375 28,10.9375 Z" id="Stroke-1360"></path>
                        <path d="M17.5,10.9375 C17.5,12.870375 15.932875,14.4375 14,14.4375 C12.0666875,14.4375 10.5,12.870375 10.5,10.9375 C10.5,9.0041875 12.0666875,7.4375 14,7.4375 C15.932875,7.4375 17.5,9.0041875 17.5,10.9375 Z" id="Stroke-1361"></path>
                    </g>
                </g>
            </g>
        </g>
    </g>
</svg>