<svg xmlns="http://www.w3.org/2000/svg" xmlns:xlink="http://www.w3.org/1999/xlink" width="49.269" height="56.573" viewBox="0 0 49.269 56.573">
  <defs>
    <clipPath id="clip-path">
      <path id="Clip_3" data-name="Clip 3" d="M0,0H49.269V56.573H0Z" transform="translate(0.039 0.537)" fill="none"/>
    </clipPath>
  </defs>
  <g id="icono" transform="translate(-0.039 -0.537)">
    <path id="Clip_3-2" data-name="Clip 3" d="M0,0H49.269V56.573H0Z" transform="translate(0.039 0.537)" fill="none"/>
    <g id="icono-2" data-name="icono" clip-path="url(#clip-path)">
      <path id="Fill_1" data-name="Fill 1" d="M3.357,4.857A2.022,2.022,0,0,0,5.34,2.852,1.593,1.593,0,0,0,4.554,1.7C5.723.549,6.3,0,6.3,0H2.515A2.52,2.52,0,0,0,0,2.529V6.234Q.926,5.3,1.715,4.516A2.514,2.514,0,0,0,3.357,4.857Z" transform="translate(27.664 22.118)" fill="#dead5d"/>
      <path id="Fill_2" data-name="Fill 2" d="M.957,2.852A2.023,2.023,0,0,0,2.939,4.857a2.517,2.517,0,0,0,1.643-.341c.525.523,1.095,1.095,1.715,1.718V2.529A2.521,2.521,0,0,0,3.781,0H0S.574.549,1.743,1.7A1.6,1.6,0,0,0,.957,2.852Z" transform="translate(15.347 22.118)" fill="#dead5d"/>
      <path id="Fill_4" data-name="Fill 4" d="M24.653,56.573h0l-.469-.179a27.371,27.371,0,0,1-10.326-7.763A38.3,38.3,0,0,1,11.363,45.4l-.723,1.392-1.255-1.1a19.074,19.074,0,0,1-4.648-6.241A25.616,25.616,0,0,1,2.72,32.974,31.07,31.07,0,0,1,2.251,27.6l-2.115.51-.087-1.58A25.123,25.123,0,0,1,1.924,14.891a18.706,18.706,0,0,1,5.21-6.885,19.9,19.9,0,0,1,4.58-2.839L7.988,3.511l2.1-1.319A15.785,15.785,0,0,1,18.6,0a24.753,24.753,0,0,1,6.06.772A24.67,24.67,0,0,1,30.713,0a15.789,15.789,0,0,1,8.511,2.192l2.1,1.319L37.595,5.167a19.829,19.829,0,0,1,4.579,2.839,18.716,18.716,0,0,1,5.21,6.882A25.127,25.127,0,0,1,49.26,26.528l-.086,1.58-2.115-.51a31.109,31.109,0,0,1-.47,5.378,25.473,25.473,0,0,1-2.019,6.472,19.024,19.024,0,0,1-4.646,6.241l-1.256,1.1L37.947,45.4a38.182,38.182,0,0,1-2.5,3.236,27.374,27.374,0,0,1-10.324,7.763l-.472.179ZM11.2,40v0l1.187,2.121a33.442,33.442,0,0,0,3.5,4.831,25.22,25.22,0,0,0,8.772,6.788,25.254,25.254,0,0,0,8.77-6.788,33.476,33.476,0,0,0,3.5-4.831L38.112,40l1.3,2.51a16.979,16.979,0,0,0,2.771-4.162,21.37,21.37,0,0,0,1.26-3.377,7.452,7.452,0,0,0-3.963-4.45,6.045,6.045,0,0,0-1.893-.451l-2.307,2.546a9.252,9.252,0,0,1,.625,3.693,7.923,7.923,0,0,1-3.131,5.826l-.58.48-.681-.254a3.285,3.285,0,0,1-1.247,2.828,2.946,2.946,0,0,1-1.709.513,7.125,7.125,0,0,1-1.948-.364,7.2,7.2,0,0,0-1.957-.37,7.068,7.068,0,0,0-1.953.369,7.221,7.221,0,0,1-1.953.365,2.943,2.943,0,0,1-1.707-.513,3.284,3.284,0,0,1-1.25-2.828l-.679.254-.581-.48A7.926,7.926,0,0,1,13.4,36.313a9.319,9.319,0,0,1,.625-3.693l-2.309-2.551c-1.208.077-4.2.71-5.851,4.906a21.375,21.375,0,0,0,1.258,3.377A17.036,17.036,0,0,0,9.9,42.513L11.2,40Zm13.456,2.339a9.539,9.539,0,0,1,2.659.464l.013,0,.012,0,.007,0a5.421,5.421,0,0,0,1.214.259.345.345,0,0,0,.209-.041,3.235,3.235,0,0,0,.049-1.661l-4.162-1.541-4.164,1.541a3.3,3.3,0,0,0,.049,1.661.373.373,0,0,0,.21.041,5.344,5.344,0,0,0,1.207-.257l.009,0,.016,0A9.358,9.358,0,0,1,24.656,42.337ZM26,32.869h0c.875.058,1.357.224,1.433.493.115.408-.68.968-1.318,1.419l-.115.08a3.616,3.616,0,0,0-.9,2.316l5.94,2.2.625.23a5.032,5.032,0,0,0,1.63-3.425,8.517,8.517,0,0,0-1.475-4.667,13.848,13.848,0,0,0-1.642-2.149l1.859-1.858.007.005a16.2,16.2,0,0,1,1.986,2.578l4.49-4.956a18.152,18.152,0,0,0-.833-4.256,10.887,10.887,0,0,0-3.3-5.16,9.389,9.389,0,0,0-6.118-1.974,17.2,17.2,0,0,0-3.345.355l-.256.051L24.4,14.1a17.209,17.209,0,0,0-3.346-.355,9.392,9.392,0,0,0-6.118,1.974c-.866.709-3.725,3.483-4.135,9.416l4.488,4.956a15.746,15.746,0,0,1,1.993-2.584l1.858,1.857-.93-.929.931.928-.007.007c-.336.355-3.278,3.561-3.111,6.819a5.039,5.039,0,0,0,1.631,3.418l.625-.23,5.94-2.2a3.619,3.619,0,0,0-.9-2.316l-.109-.076,0,0c-.639-.45-1.435-1.01-1.32-1.419.076-.27.558-.436,1.434-.493a3.192,3.192,0,0,0,1.339.355A3.173,3.173,0,0,0,26,32.869ZM45.864,19.43a5.441,5.441,0,0,0-5.116,2.753,18.35,18.35,0,0,1,.413,3.429l0,.516-1.508,1.664a8.588,8.588,0,0,1,.834.3,9.111,9.111,0,0,1,3.736,2.931,25.569,25.569,0,0,0,.15-4.984L44.2,24.2l2.486.6a24.4,24.4,0,0,0-.556-5.362C46.028,19.432,45.948,19.43,45.864,19.43ZM5.112,24.194h0l-.181,1.847a26.568,26.568,0,0,0,.15,4.982,9.108,9.108,0,0,1,3.735-2.931,8.584,8.584,0,0,1,.837-.3L8.148,26.128l0-.516a18.4,18.4,0,0,1,.41-3.426A5,5,0,0,0,7.2,20.594,5.944,5.944,0,0,0,3.47,19.427c-.084,0-.168,0-.286,0a24.156,24.156,0,0,0-.558,5.362l2.486-.6ZM39.9,9.563a5.822,5.822,0,0,0-4.026,3.99l.037.029c.044.033.09.068.131.1a13.08,13.08,0,0,1,3.788,5.408c.179-.173.362-.334.542-.479A8.411,8.411,0,0,1,45.336,16.8c-.117-.3-.229-.574-.345-.838a16.11,16.11,0,0,0-4.486-5.924C40.314,9.883,40.116,9.726,39.9,9.563Zm-30.493,0c-.218.165-.452.351-.694.552a16.153,16.153,0,0,0-4.427,5.92c-.1.233-.207.492-.314.769a8.419,8.419,0,0,1,4.963,1.811c.187.151.364.308.541.479a13.085,13.085,0,0,1,3.786-5.408l.073-.057.09-.071a5.051,5.051,0,0,0-.52-1.282,6.159,6.159,0,0,0-3.5-2.714Zm18.867,1.544a12.93,12.93,0,0,1,5.3,1.05,7.909,7.909,0,0,1,.466-1.036A8.247,8.247,0,0,1,37.219,7.9a15.121,15.121,0,0,0-3.475-1.277l-4.162-.781,5.752-2.557a15.355,15.355,0,0,0-4.621-.649,21.933,21.933,0,0,0-5.677.761l-.38.116L24.273,3.4A21.926,21.926,0,0,0,18.6,2.639a15.362,15.362,0,0,0-4.621.649l5.748,2.557-4.159.781A15.151,15.151,0,0,0,12.1,7.906a8.272,8.272,0,0,1,3.176,3.216,7.924,7.924,0,0,1,.467,1.036,12.9,12.9,0,0,1,5.293-1.05,19.727,19.727,0,0,1,3.622.358A19.728,19.728,0,0,1,28.274,11.107Z" transform="translate(0 0.537)" fill="#dead5d"/>
    </g>
  </g>
</svg>
