<svg xmlns="http://www.w3.org/2000/svg" xmlns:xlink="http://www.w3.org/1999/xlink" width="337.59" height="391.79" viewBox="0 0 337.59 391.79">
  <defs>
    <clipPath id="clip-Artboard_1">
      <rect width="337.59" height="391.79"/>
    </clipPath>
  </defs>
  <g id="Artboard_1" data-name="Artboard – 1" clip-path="url(#clip-Artboard_1)">
    <g id="triángulo" transform="translate(-0.5 0.5)" opacity="0.2">
      <g id="Group_3" data-name="Group 3">
        <path id="Abstract_11" data-name="Abstract 11" d="M110.08,0,55.041,95.84,0,0Z" transform="translate(113.784 156.664)" fill="none" stroke="#dead5d" stroke-linecap="round" stroke-linejoin="round" stroke-miterlimit="10" stroke-width="1.2"/>
        <path id="Abstract_11-2" data-name="Abstract 11" d="M337.442,0,168.724,293.7,0,0Z" transform="translate(0.303 98.093)" fill="none" stroke="#dead5d" stroke-linecap="round" stroke-linejoin="round" stroke-miterlimit="10" stroke-width="1.2"/>
        <path id="Abstract_11-3" data-name="Abstract 11" d="M337.442,0,168.724,293.7,0,0Z" transform="translate(337.841 293.698) rotate(180)" fill="none" stroke="#dead5d" stroke-linecap="round" stroke-linejoin="round" stroke-miterlimit="10" stroke-width="1.2"/>
        <path id="Path" d="M0,77.468C0,34.684,34.5,0,77.058,0s77.058,34.684,77.058,77.468-34.5,77.468-77.058,77.468S0,120.252,0,77.468Z" transform="translate(91.766 114.336)" fill="none" stroke="#dead5d" stroke-linecap="round" stroke-linejoin="round" stroke-miterlimit="10" stroke-width="1.2" stroke-dasharray="28 28"/>
        <path id="Path-2" data-name="Path" d="M0,97.747C0,43.763,43.592,0,97.364,0s97.364,43.763,97.364,97.747-43.589,97.747-97.364,97.747S0,151.73,0,97.747Z" transform="translate(71.475 98.121)" fill="none" stroke="#dead5d" stroke-linecap="round" stroke-linejoin="round" stroke-miterlimit="10" stroke-width="1.2"/>
        <path id="Line" d="M.223,95.864V.024" transform="translate(168.6 156.64)" fill="none" stroke="#dead5d" stroke-linecap="round" stroke-linejoin="round" stroke-miterlimit="10" stroke-width="1.2"/>
        <path id="Line_2" data-name="Line 2" d="M.223.4H42.15" transform="translate(168.6 178.618)" fill="none" stroke="#dead5d" stroke-linecap="round" stroke-linejoin="round" stroke-miterlimit="10" stroke-width="1.2"/>
        <path id="Line_3" data-name="Line 3" d="M.223.264H30.564" transform="translate(168.6 199.397)" fill="none" stroke="#dead5d" stroke-linecap="round" stroke-linejoin="round" stroke-miterlimit="10" stroke-width="1.2"/>
        <path id="Line_4" data-name="Line 4" d="M.041.2H17.379" transform="translate(169.4 220.175)" fill="none" stroke="#dead5d" stroke-linecap="round" stroke-linejoin="round" stroke-miterlimit="10" stroke-width="1.2"/>
        <path id="Line_6" data-name="Line 6" d="M.4.22,84.5,48.949" transform="translate(0 97.9)" fill="none" stroke="#dead5d" stroke-linecap="round" stroke-linejoin="round" stroke-miterlimit="10" stroke-width="1.2"/>
        <path id="Line_7" data-name="Line 7" d="M85.243,49.063.2.392" transform="translate(252.501 244.55)" fill="none" stroke="#dead5d" stroke-linecap="round" stroke-linejoin="round" stroke-miterlimit="10" stroke-width="1.2"/>
        <path id="Line_6-2" data-name="Line 6" d="M-.4.22-84.5,48.949" transform="translate(338 97.9)" fill="none" stroke="#dead5d" stroke-linecap="round" stroke-linejoin="round" stroke-miterlimit="10" stroke-width="1.2"/>
        <path id="Line_7-2" data-name="Line 7" d="M-85.243,49.063-.2.392" transform="translate(85.499 244.55)" fill="none" stroke="#dead5d" stroke-linecap="round" stroke-linejoin="round" stroke-miterlimit="10" stroke-width="1.2"/>
        <path id="Line_5" data-name="Line 5" d="M.223,0V97.9" transform="translate(168.6)" fill="none" stroke="#dead5d" stroke-linecap="round" stroke-linejoin="round" stroke-miterlimit="10" stroke-width="1.2"/>
        <path id="Line_8" data-name="Line 8" d="M.441,98.491V.313" transform="translate(169 293.301)" fill="none" stroke="#dead5d" stroke-linecap="round" stroke-linejoin="round" stroke-miterlimit="10" stroke-width="1.2"/>
      </g>
    </g>
  </g>
</svg>
