<svg xmlns="http://www.w3.org/2000/svg" width="48.756" height="48.364" viewBox="0 0 48.756 48.364">
  <g id="icono" transform="translate(1.285 1.5)">
    <path id="Stroke_418" data-name="Stroke 418" d="M0,30.73C20.088,10.244,20.224,14.5,34.437,0" transform="translate(0.215 14.634)" fill="none" stroke="#dead5d" stroke-linecap="round" stroke-linejoin="round" stroke-miterlimit="10" stroke-width="3"/>
    <path id="Stroke_420" data-name="Stroke 420" d="M38.057,0c-6.967,6.862-12.5,9.3-18.119,11.75l-1.812,4.519A19.613,19.613,0,0,0,17,12.959a30.6,30.6,0,0,0-8.814,5.472,7.1,7.1,0,0,0,.872,3.261,4.239,4.239,0,0,1-3.07-.855C.328,28.069,0,37.476,0,37.476s8.245,4.006,23.506-11.023S38.057,0,38.057,0Z" transform="translate(7.898)" fill="none" stroke="#dead5d" stroke-linecap="round" stroke-linejoin="round" stroke-miterlimit="10" stroke-width="3"/>
  </g>
</svg>
