<svg xmlns="http://www.w3.org/2000/svg" width="313.425" height="663.606" viewBox="0 0 313.425 663.606">
  <g id="identidad_logo_blanco_Largo" data-name="identidad / logo / blanco / Largo" transform="translate(-0.001)">
    <g id="logo_new" data-name="logo new">
      <g id="imagotipo">
        <path id="Fill_47" data-name="Fill 47" d="M7.881,15.762a7.881,7.881,0,1,1,7.881-7.881A7.881,7.881,0,0,1,7.881,15.762Z" transform="translate(82.45 139.438)" fill="#fff"/>
        <path id="Fill_48" data-name="Fill 48" d="M96.954,183.088a57.456,57.456,0,0,1-7.111-.458c-1.385-.19-2.5-.372-3.521-.572-1.092-.214-2.229-.476-3.476-.8H82.8c-1.146-.321-2.253-.658-3.384-1.03-.046,0-.068,0-.091-.023-1.157-.4-2.128-.752-3.11-1.145-1.275-.5-2.515-1.083-3.453-1.534-.205-.1-.419-.207-.626-.308-.256-.125-.517-.252-.768-.379-.706-.375-1.424-.779-2.118-1.169l-.077-.043c-1.021-.584-2.084-1.25-3.247-2.037-.5-.325-1.019-.687-1.554-1.076a54.691,54.691,0,0,1-12.461-12.472c-.394-.543-.755-1.067-1.075-1.556a40.13,40.13,0,0,1-2.264-3.662L7.463,83.557A55.464,55.464,0,0,1,.139,51.836,55.88,55.88,0,0,1,11.263,22.112,55.323,55.323,0,0,1,27.835,7.484,55.976,55.976,0,0,1,41.456,1.845,55.1,55.1,0,0,1,55.592,0,55.877,55.877,0,0,1,88.815,10.962a.132.132,0,0,1,.018.025c.008.012.013.021.028.021l.023.023c1.708,1.277,1.893,3.967.411,6a.6.6,0,0,0-.057.069.6.6,0,0,1-.057.069,4.834,4.834,0,0,1-3.687,1.906,3.446,3.446,0,0,1-2.075-.67,47.1,47.1,0,0,0-13.081-6.828A46.524,46.524,0,0,0,15.374,78.979L41.44,124.156a55.415,55.415,0,0,1,2.181-12.533A56.082,56.082,0,0,1,48.8,99.553L90.164,27.875c.4-.674.787-1.321,1.165-1.922.929-1.467,1.819-2.753,2.722-3.934.865-1.143,1.857-2.353,2.949-3.6A55.747,55.747,0,0,1,138.407,0a55.1,55.1,0,0,1,14.128,1.845,55.973,55.973,0,0,1,13.63,5.639,55.427,55.427,0,0,1,22.193,23.805A55.892,55.892,0,0,1,193.579,62.6a55.367,55.367,0,0,1-7.041,20.961L145.4,154.823l-.229.412c-.574,1.007-1.24,2.07-2.035,3.25-.328.5-.689,1.026-1.075,1.556-.316.457-.68.937-1.143,1.51-.3.387-.605.775-.905,1.15l-.215.269a55.583,55.583,0,0,1-5.808,6.018c-.459.413-.936.823-1.417,1.216-.938.8-1.938,1.579-2.973,2.308-.535.39-1.058.752-1.554,1.076-.448.32-.935.634-1.487.961a53.718,53.718,0,0,1-8.894,4.554c-.983.389-2,.758-3.019,1.1s-2.14.679-3.5,1.052c-1.119.292-2.188.539-3.178.733-.093.021-.182.037-.267.052-.106.019-.2.037-.3.062-1.224.233-2.263.4-3.27.526A57.984,57.984,0,0,1,96.954,183.088ZM86.963,177.5h0a46.744,46.744,0,0,0,4.751.731C90.112,178.052,88.514,177.8,86.963,177.5Zm36.872-6.674a51.289,51.289,0,0,1-16.258,6.562,50.788,50.788,0,0,0,14.94-5.724c.344-.2.678-.415.987-.62l.18-.117.018-.012.022-.014.029-.019c.027-.017.054-.036.081-.055ZM138.407,9.155A46.484,46.484,0,0,0,102.67,25.93,40.86,40.86,0,0,0,99.7,29.867c-.465.689-1.07,1.6-1.624,2.586L97,34.329l-40.264,69.8a46.2,46.2,0,0,0-6.223,23.431,47.062,47.062,0,0,0,6.039,22.776c.019.031.037.063.057.1l.023.041,0,.005c.044.08.09.162.146.245.493.876.915,1.566,1.327,2.174l.1.144c.094.145.187.287.293.428.5.765,1.047,1.521,1.669,2.311a45.389,45.389,0,0,0,13.582,11.923,43.9,43.9,0,0,0,4.047,2.06l.023.023A40.532,40.532,0,0,0,82,171.441a.076.076,0,0,0,.046.021A46.07,46.07,0,0,0,92.4,173.7c1.025.117,2.05.162,3.041.206.5.023,1.015.023,1.509.023.528,0,1.075,0,1.6-.023.991-.044,2.015-.09,3.041-.206a37.759,37.759,0,0,0,4.527-.687c.426-.078.827-.169,1.252-.266l.235-.054c1.461-.343,2.914-.758,4.321-1.236l.015-.007a.323.323,0,0,1,.145-.039,43.484,43.484,0,0,0,4.07-1.625c.022-.022.023-.022.046-.022,1.009-.455,1.884-.89,2.675-1.328l.023-.022a14.725,14.725,0,0,0,1.322-.708,48.228,48.228,0,0,0,5.034-3.366c.795-.613,1.58-1.26,2.333-1.922.685-.578,1.366-1.207,2.081-1.922.849-.85,1.6-1.651,2.286-2.449.483-.535.876-1,1.235-1.464a4.553,4.553,0,0,0,.3-.389,7.733,7.733,0,0,0,.641-.824c.316-.407.616-.822.891-1.236a13.182,13.182,0,0,0,.846-1.236,3,3,0,0,0,.214-.306l.032-.049,0-.007.047-.071c.132-.222.283-.472.475-.786l.006-.011.061-.1.007-.011c.1-.165.2-.329.3-.491.047-.071.088-.141.121-.2l.01-.017c.037-.064.076-.13.119-.194l.183-.344,10.335-17.9,4.757-8.239,26.065-45.2a46.545,46.545,0,0,0-40.2-69.825Zm-76.252,155.6h0a49.541,49.541,0,0,0,9.305,6.911c.32.184.653.353.975.517l.007,0,.025.013.006,0,.079.04.119.061.2.1A51.5,51.5,0,0,1,62.156,164.756Zm73.139-3.568c-.481.545-.985,1.091-1.5,1.623C134.3,162.3,134.788,161.767,135.3,161.189Z" fill="#fff"/>
      </g>
      <path id="unex_pen_dables" data-name="unex pen dables" d="M280.293,212.185a28.814,28.814,0,0,1-8.2-1.073,17.144,17.144,0,0,1-6.152-3.218,15.2,15.2,0,0,1-3.972-5.062,17.969,17.969,0,0,1-1.664-6.6h9.417a8,8,0,0,0,3.2,5.81c1.8,1.285,4.376,1.937,7.653,1.937,3.2,0,5.722-.663,7.492-1.971a6.291,6.291,0,0,0,2.668-5.311,5.22,5.22,0,0,0-1.6-3.966,9.858,9.858,0,0,0-4.175-2.227,53.478,53.478,0,0,0-5.683-1.229,62.522,62.522,0,0,1-6.192-1.346,26.4,26.4,0,0,1-5.659-2.227,10.622,10.622,0,0,1-4.175-4.2,13.876,13.876,0,0,1-1.6-6.935,12.9,12.9,0,0,1,1.3-5.793,13.834,13.834,0,0,1,3.9-4.668,17.989,17.989,0,0,1,6.008-3.079,26.554,26.554,0,0,1,7.63-1.026,23.649,23.649,0,0,1,7.028,1,18.249,18.249,0,0,1,5.775,2.992,14.389,14.389,0,0,1,4,4.732,16.157,16.157,0,0,1,1.7,6.216H289.85a7.255,7.255,0,0,0-2.922-5.1,11.366,11.366,0,0,0-6.866-1.855,11.132,11.132,0,0,0-6.61,1.786,5.479,5.479,0,0,0-2.482,4.615,4.467,4.467,0,0,0,1.276,3.247,7.221,7.221,0,0,0,3.34,1.856c1.373.37,2.957.737,4.708,1.09s3.569.673,5.4.951a25.749,25.749,0,0,1,5.4,1.437,21.651,21.651,0,0,1,4.709,2.482,10.346,10.346,0,0,1,3.34,4.244,15.657,15.657,0,0,1,1.275,6.54,15.02,15.02,0,0,1-1.363,6.46,14.541,14.541,0,0,1-4.088,5.091,18.6,18.6,0,0,1-6.4,3.3A28.938,28.938,0,0,1,280.293,212.185Zm-52.3,0a26.707,26.707,0,0,1-10.054-1.826,22.834,22.834,0,0,1-7.99-5.48,24.356,24.356,0,0,1-5.219-8.309,29.386,29.386,0,0,1-1.74-10.315A28.6,28.6,0,0,1,206.24,172.5a23.19,23.19,0,0,1,8.883-9.254A25.058,25.058,0,0,1,227.81,160a25.947,25.947,0,0,1,10.3,1.994,21.144,21.144,0,0,1,7.677,5.474,24.927,24.927,0,0,1,4.684,8.117,29.754,29.754,0,0,1,1.647,9.974v3.711h-39.15a17.117,17.117,0,0,0,1.241,5.9,13.823,13.823,0,0,0,3.165,4.627,13.535,13.535,0,0,0,4.789,2.992,17.781,17.781,0,0,0,6.112,1,16.833,16.833,0,0,0,8.465-2.134,11.694,11.694,0,0,0,5.219-5.752h9.695a20.751,20.751,0,0,1-3.044,6.616,21.51,21.51,0,0,1-5.236,5.189,23.506,23.506,0,0,1-7.011,3.358A29.962,29.962,0,0,1,228,212.185Zm-.185-43.835a14.506,14.506,0,0,0-9.927,3.711,14.112,14.112,0,0,0-4.731,9.509h29.084a15.778,15.778,0,0,0-1.357-5.479,12.662,12.662,0,0,0-3.143-4.192A14.56,14.56,0,0,0,227.81,168.349Zm-81.244,43.835a19.351,19.351,0,0,1-9.023-2.075,19.735,19.735,0,0,1-6.934-6.228h-.65v7.052h-9.695v-71.25h9.974v28.806h.556a14.219,14.219,0,0,1,1.972-2.459,27.347,27.347,0,0,1,3.2-2.713,16.608,16.608,0,0,1,4.917-2.389,20.89,20.89,0,0,1,6.286-.928,23.482,23.482,0,0,1,9.4,1.838,21.7,21.7,0,0,1,7.526,5.514,24.71,24.71,0,0,1,4.941,8.4,31.893,31.893,0,0,1,1.646,10.5,31.139,31.139,0,0,1-1.669,10.46,23.878,23.878,0,0,1-5.01,8.28,21.815,21.815,0,0,1-7.7,5.393A25.453,25.453,0,0,1,146.566,212.185Zm-1.206-43.047a15.956,15.956,0,0,0-6.129,1.143,14.338,14.338,0,0,0-4.935,3.426,14.9,14.9,0,0,0-3.253,5.387,21.266,21.266,0,0,0-1.085,7.022,20.753,20.753,0,0,0,1.032,6.68,16.761,16.761,0,0,0,3.1,5.474,13.365,13.365,0,0,0,4.836,3.653,15.439,15.439,0,0,0,6.251,1.218,16.258,16.258,0,0,0,6.268-1.159,13.608,13.608,0,0,0,4.888-3.479,15.343,15.343,0,0,0,3.149-5.416,21.71,21.71,0,0,0,1.049-6.97,21,21,0,0,0-1.049-6.818,15.883,15.883,0,0,0-3.149-5.428,13.752,13.752,0,0,0-4.841-3.549A15.4,15.4,0,0,0,145.36,169.138ZM83.49,212.185a25.4,25.4,0,0,1-9.718-1.8,22.049,22.049,0,0,1-7.723-5.393,23.861,23.861,0,0,1-5.009-8.28,31.072,31.072,0,0,1-1.67-10.46,31.685,31.685,0,0,1,1.659-10.5,24.665,24.665,0,0,1,4.975-8.4,21.866,21.866,0,0,1,7.573-5.514A23.7,23.7,0,0,1,83.027,160a20.664,20.664,0,0,1,6.262.928,16.324,16.324,0,0,1,4.894,2.412,25.209,25.209,0,0,1,3.131,2.714,17.523,17.523,0,0,1,1.948,2.435h.7v-7.237h9.974v49.681h-9.787v-7.052h-.6a18.655,18.655,0,0,1-16.051,8.3Zm1.345-43.047a15.415,15.415,0,0,0-6.146,1.189,14.023,14.023,0,0,0-4.894,3.566,15.993,15.993,0,0,0-3.2,5.433,20.64,20.64,0,0,0-1.066,6.79,21.439,21.439,0,0,0,1.061,6.941,15.421,15.421,0,0,0,3.183,5.422,13.826,13.826,0,0,0,4.911,3.5,16.159,16.159,0,0,0,6.244,1.165,15.525,15.525,0,0,0,6.262-1.218,13.546,13.546,0,0,0,4.871-3.653,16.724,16.724,0,0,0,3.131-5.474,20.49,20.49,0,0,0,1.044-6.68,21.259,21.259,0,0,0-1.085-7.022,14.9,14.9,0,0,0-3.253-5.387,14.338,14.338,0,0,0-4.935-3.426A15.943,15.943,0,0,0,84.836,169.138ZM24.121,212.185a25.4,25.4,0,0,1-9.718-1.8,22.05,22.05,0,0,1-7.723-5.393,23.862,23.862,0,0,1-5.009-8.28A31.056,31.056,0,0,1,0,186.255a31.693,31.693,0,0,1,1.659-10.5,24.631,24.631,0,0,1,4.974-8.4,21.882,21.882,0,0,1,7.573-5.514A23.71,23.71,0,0,1,23.657,160a20.664,20.664,0,0,1,6.262.928,16.321,16.321,0,0,1,4.893,2.412,25.206,25.206,0,0,1,3.131,2.714,17.722,17.722,0,0,1,1.949,2.435h.7V139.683h9.973v71.25H40.774v-7.052h-.6a19.676,19.676,0,0,1-6.958,6.228A19.588,19.588,0,0,1,24.121,212.185Zm1.346-43.047a15.4,15.4,0,0,0-6.146,1.189,14,14,0,0,0-4.894,3.566,15.965,15.965,0,0,0-3.2,5.433,20.578,20.578,0,0,0-1.067,6.79,21.455,21.455,0,0,0,1.061,6.941,15.421,15.421,0,0,0,3.183,5.422,13.787,13.787,0,0,0,4.911,3.5,16.175,16.175,0,0,0,6.245,1.165,15.5,15.5,0,0,0,6.262-1.218,13.5,13.5,0,0,0,4.871-3.653,16.719,16.719,0,0,0,3.13-5.474,20.474,20.474,0,0,0,1.044-6.68,21.236,21.236,0,0,0-1.084-7.022,14.9,14.9,0,0,0-3.253-5.387,14.342,14.342,0,0,0-4.934-3.426A15.93,15.93,0,0,0,25.466,169.138Zm170.965,41.8H192.35c-3.724,0-6.65-1.093-8.7-3.247s-3.085-5.214-3.085-9.092V139.683h9.974v58.308a4.4,4.4,0,0,0,.974,3.061,3.653,3.653,0,0,0,2.83,1.067h2.087v8.813ZM13.5,146.781H3.525V75.253H13.22v7.1h.65c.416-.612.83-1.174,1.229-1.67a18.947,18.947,0,0,1,2.111-2.11,18.078,18.078,0,0,1,3.131-2.25A19.022,19.022,0,0,1,24.515,74.7a20.035,20.035,0,0,1,5.312-.7,25.459,25.459,0,0,1,9.741,1.8,21.84,21.84,0,0,1,7.7,5.393,23.884,23.884,0,0,1,5.01,8.28,31.15,31.15,0,0,1,1.669,10.461,32,32,0,0,1-1.647,10.5,24.692,24.692,0,0,1-4.94,8.4,21.724,21.724,0,0,1-7.526,5.515,23.482,23.482,0,0,1-9.405,1.838,21.076,21.076,0,0,1-6.332-.928,17,17,0,0,1-4.917-2.366A23.8,23.8,0,0,1,16,120.178a15.786,15.786,0,0,1-1.949-2.481H13.5V146.78ZM28.436,83.046a15.535,15.535,0,0,0-6.251,1.211,13.4,13.4,0,0,0-4.836,3.636,16.651,16.651,0,0,0-3.1,5.456,20.7,20.7,0,0,0-1.032,6.674,21.354,21.354,0,0,0,1.085,7.039,15.2,15.2,0,0,0,3.253,5.439,14.32,14.32,0,0,0,4.935,3.479,15.849,15.849,0,0,0,6.129,1.16,15.1,15.1,0,0,0,6.1-1.2,13.846,13.846,0,0,0,4.847-3.6,16.218,16.218,0,0,0,3.166-5.48,21.173,21.173,0,0,0,1.056-6.836,21.59,21.59,0,0,0-1.049-6.964,15.247,15.247,0,0,0-3.149-5.4A13.6,13.6,0,0,0,34.7,84.2,16.249,16.249,0,0,0,28.436,83.046Zm57.05,43.14a26.686,26.686,0,0,1-10.055-1.827,22.82,22.82,0,0,1-7.99-5.479,24.339,24.339,0,0,1-5.218-8.309,29.325,29.325,0,0,1-1.74-10.316A28.6,28.6,0,0,1,63.73,86.5a23.182,23.182,0,0,1,8.883-9.254A25.068,25.068,0,0,1,85.3,74a26.01,26.01,0,0,1,10.3,1.994,21.144,21.144,0,0,1,7.677,5.474,24.934,24.934,0,0,1,4.685,8.118,29.822,29.822,0,0,1,1.647,9.973v3.711H70.457a17.227,17.227,0,0,0,1.241,5.9,13.824,13.824,0,0,0,3.165,4.627,13.546,13.546,0,0,0,4.789,2.993,17.862,17.862,0,0,0,6.112,1,16.838,16.838,0,0,0,8.465-2.134,11.71,11.71,0,0,0,5.219-5.752h9.695a20.7,20.7,0,0,1-3.045,6.616,21.511,21.511,0,0,1-5.236,5.189,23.584,23.584,0,0,1-7.01,3.357A30.136,30.136,0,0,1,85.486,126.185ZM85.3,82.35a14.5,14.5,0,0,0-9.927,3.711,14.108,14.108,0,0,0-4.731,9.509H99.726a15.783,15.783,0,0,0-1.357-5.48A12.655,12.655,0,0,0,95.226,85.9,14.56,14.56,0,0,0,85.3,82.35Zm44.34,42.584h-9.974V75.253h9.695v6.633h.65a13.469,13.469,0,0,1,5.474-5.612A17.639,17.639,0,0,1,144.577,74a19.808,19.808,0,0,1,7.468,1.345,16.045,16.045,0,0,1,5.8,4.036,18.052,18.052,0,0,1,3.722,6.1,21.992,21.992,0,0,1,1.241,7.537v31.913h-9.973V94.92a11.466,11.466,0,0,0-3.178-8.373,10.755,10.755,0,0,0-7.955-3.224,11.476,11.476,0,0,0-8.627,3.595,12.6,12.6,0,0,0-3.433,9.023v28.992Zm6.8-72.749a26.8,26.8,0,0,1-10.054-1.826,22.845,22.845,0,0,1-7.99-5.479,24.341,24.341,0,0,1-5.218-8.31,29.279,29.279,0,0,1-1.74-10.315A28.589,28.589,0,0,1,114.683,12.5a23.182,23.182,0,0,1,8.883-9.254A25.066,25.066,0,0,1,136.253,0a26.041,26.041,0,0,1,10.3,1.994,21.183,21.183,0,0,1,7.677,5.474,24.974,24.974,0,0,1,4.685,8.118,29.859,29.859,0,0,1,1.647,9.973V29.27H121.409a17.012,17.012,0,0,0,1.24,5.9,13.833,13.833,0,0,0,3.166,4.627,13.557,13.557,0,0,0,4.79,2.992,17.9,17.9,0,0,0,6.112,1,16.91,16.91,0,0,0,8.465-2.134A11.7,11.7,0,0,0,150.4,35.9H160.1a20.487,20.487,0,0,1-3.044,6.616,21.527,21.527,0,0,1-5.236,5.189,23.668,23.668,0,0,1-7.01,3.357A29.829,29.829,0,0,1,136.438,52.185Zm-.185-43.835a14.558,14.558,0,0,0-9.927,3.712,14.111,14.111,0,0,0-4.731,9.508h29.084a13.738,13.738,0,0,0-4.5-9.671A14.568,14.568,0,0,0,136.253,8.349ZM21.013,52.185a19.933,19.933,0,0,1-7.468-1.345,16.172,16.172,0,0,1-5.8-4.036,18.073,18.073,0,0,1-3.722-6.1,22,22,0,0,1-1.241-7.538V1.253h9.974V31.358a11.493,11.493,0,0,0,3.154,8.4,10.722,10.722,0,0,0,7.933,3.2,11.53,11.53,0,0,0,8.651-3.549A12.487,12.487,0,0,0,35.9,30.43V1.253h9.973v49.68H36.182V44.3h-.65a13.486,13.486,0,0,1-5.45,5.613A17.6,17.6,0,0,1,21.013,52.185Zm47.448-1.251H58.488V1.253h9.695V7.886h.65a13.452,13.452,0,0,1,5.473-5.613A17.725,17.725,0,0,1,83.4,0a19.8,19.8,0,0,1,7.468,1.345,16.125,16.125,0,0,1,5.8,4.036,18.064,18.064,0,0,1,3.722,6.1,21.993,21.993,0,0,1,1.241,7.537V50.932H91.655V20.92a11.466,11.466,0,0,0-3.178-8.373,10.758,10.758,0,0,0-7.955-3.224,11.48,11.48,0,0,0-8.628,3.595,12.6,12.6,0,0,0-3.433,9.023V50.933Zm107.313,0H164.456L182.037,25.1,165.8,1.253h11.272l11.133,17.209h.556L199.8,1.253h11.318L194.839,25.374l17.58,25.557-11.258,0-12.4-18.416h-.834L175.775,50.933Z" transform="translate(13 214)" fill="#fff"/>
    </g>
    <path id="WE_DESIGN_THINGS_THA" data-name="WE DESIGN THINGS THA" d="M60.667,192.4a17.877,17.877,0,0,1-5.391-.808,15.4,15.4,0,0,1-4.593-2.325,17.056,17.056,0,0,1-3.538-3.56,15.463,15.463,0,0,1-2.3-4.616,18.207,18.207,0,0,1-.8-5.4,17.219,17.219,0,0,1,1.269-6.592,16.29,16.29,0,0,1,3.47-5.313,15.969,15.969,0,0,1,5.3-3.5,17.777,17.777,0,0,1,13.275.012,15.89,15.89,0,0,1,5.289,3.526A16.4,16.4,0,0,1,76.1,169.13a17.765,17.765,0,0,1-.012,13.163,15.6,15.6,0,0,1-8.76,8.815A17.265,17.265,0,0,1,60.667,192.4Zm.045-29.918a12.8,12.8,0,0,0-6.57,1.718,12.184,12.184,0,0,0-4.582,4.739,13.889,13.889,0,0,0-1.652,6.749,14.283,14.283,0,0,0,.967,5.278,12.548,12.548,0,0,0,2.661,4.189,12.264,12.264,0,0,0,4.077,2.74,13.1,13.1,0,0,0,5.1,1,12.264,12.264,0,0,0,9.152-3.739,13.1,13.1,0,0,0,3.628-9.468,13.9,13.9,0,0,0-1.651-6.749,12.207,12.207,0,0,0-4.571-4.739A12.74,12.74,0,0,0,60.712,162.481Zm56.152,29.312h-3.729V159.584h3.729v16.239h.27l13.7-16.239h4.649L123.8,173.218l12.24,18.574-4.6,0-10.174-15.632-4.4,5.144v10.489Zm-28.885,0H84.251V159.584H95.144a10.9,10.9,0,0,1,7.682,2.6,9.028,9.028,0,0,1,2.808,6.918,9.549,9.549,0,0,1-1.931,5.941,9.184,9.184,0,0,1-4.784,3.358l7.546,13.385-4.333,0-7.121-13.027H87.98v13.027Zm0-28.886v12.556h7.165a6.928,6.928,0,0,0,4.784-1.651,6.68,6.68,0,0,0,.056-9.153,6.956,6.956,0,0,0-5.064-1.752ZM32.613,191.794H27.784l-7.232-27.177h-.269l-7.21,27.177H8.243L0,159.584H4l6.582,27.649h.269l7.232-27.649h4.694l7.21,27.649h.292l6.559-27.649h4.02l-8.243,32.208Zm.966-53H29.85V106.584h3.729v14.127H50.694V106.584H54.4v32.207H50.694V124.126H33.579v14.666Zm30.255,0H59.926l12.421-32.208H76.7l12.375,32.207-3.908,0-2.9-7.636H66.731l-2.9,7.636Zm10.534-27.875-6.356,16.824H80.994l-6.356-16.824Zm-60.33,27.874H10.31V110H.449v-3.414H23.876V110H14.038v28.794Zm84.9,0,0-28.795H89.08v-3.414h23.427V110h-9.838v28.794H98.942ZM156.687,86.4a13.034,13.034,0,0,1-5.806-1.28,10.3,10.3,0,0,1-4.155-3.628,9.429,9.429,0,0,1-1.539-5.267h3.729a6.166,6.166,0,0,0,2.168,4.8,8.367,8.367,0,0,0,5.738,1.921,8.764,8.764,0,0,0,5.244-1.472,4.663,4.663,0,0,0,2.033-3.964,5.94,5.94,0,0,0-.607-2.775,4.822,4.822,0,0,0-1.64-1.831,10.773,10.773,0,0,0-2.37-1.134c-.869-.3-1.814-.573-2.807-.808-.963-.228-1.957-.477-2.954-.742a16.435,16.435,0,0,1-2.819-1.021,9.9,9.9,0,0,1-2.37-1.55,6.383,6.383,0,0,1-1.64-2.449,9.83,9.83,0,0,1-.607-3.594,7.9,7.9,0,0,1,2.808-6.1,10.9,10.9,0,0,1,7.5-2.5,13.221,13.221,0,0,1,3.718.539,12.044,12.044,0,0,1,3.38,1.617,7.8,7.8,0,0,1,2.526,2.942,9.225,9.225,0,0,1,.955,4.245h-3.819a5.579,5.579,0,0,0-1.774-4.369,7.339,7.339,0,0,0-5.032-1.584,7.033,7.033,0,0,0-4.874,1.516,4.834,4.834,0,0,0-1.662,3.694,4.67,4.67,0,0,0,.607,2.415,4.487,4.487,0,0,0,1.64,1.617,12.449,12.449,0,0,0,2.38,1.033c.9.292,1.85.564,2.819.808,1.007.254,2,.518,2.954.787a15.029,15.029,0,0,1,2.831,1.123,10.8,10.8,0,0,1,2.38,1.673,6.725,6.725,0,0,1,1.64,2.55,10.354,10.354,0,0,1,.607,3.672,8.27,8.27,0,0,1-3.033,6.513A12.14,12.14,0,0,1,156.687,86.4Zm-32.052,0a17.865,17.865,0,0,1-5.39-.808,15.411,15.411,0,0,1-4.594-2.325,17.058,17.058,0,0,1-3.538-3.56,15.5,15.5,0,0,1-2.3-4.615,18.234,18.234,0,0,1-.8-5.4,17.3,17.3,0,0,1,1.258-6.593,16.391,16.391,0,0,1,3.436-5.312,15.744,15.744,0,0,1,5.268-3.5A17.1,17.1,0,0,1,124.591,53a15.905,15.905,0,0,1,9.467,2.886,15.265,15.265,0,0,1,5.649,7.558h-4.133a11.006,11.006,0,0,0-4.166-5.088,12.152,12.152,0,0,0-6.817-1.876,12.858,12.858,0,0,0-6.637,1.718,11.775,11.775,0,0,0-4.493,4.729,15.2,15.2,0,0,0,.022,13.555,11.836,11.836,0,0,0,4.537,4.705,13.042,13.042,0,0,0,6.66,1.707,13.249,13.249,0,0,0,5.953-1.336,10.7,10.7,0,0,0,6-9.422H123.58v-3.28h17.25v.18A21.535,21.535,0,0,1,140,75.146a16.179,16.179,0,0,1-2.346,4.93,15.09,15.09,0,0,1-8,5.627A17.982,17.982,0,0,1,124.636,86.4Zm-44.383-.6H76.524V53.584h3.819L97.166,79.3h.293V53.584h3.661V85.792H97.166L80.522,60.075h-.269V85.793Zm-46.674,0H29.85V53.584h3.729V67.711H50.694V53.584H54.4V85.792H50.694V71.126H33.579V85.793Zm33.759,0H63.609V53.584h3.729V85.792Zm-53.3,0H10.31V57H.449V53.584H23.876V57H14.038V85.792ZM196.668,33.4a17.877,17.877,0,0,1-5.391-.808,15.415,15.415,0,0,1-4.593-2.325,17.06,17.06,0,0,1-3.538-3.56,15.5,15.5,0,0,1-2.3-4.615,18.208,18.208,0,0,1-.8-5.4,17.265,17.265,0,0,1,1.258-6.593,16.307,16.307,0,0,1,3.436-5.312,15.759,15.759,0,0,1,5.267-3.5A17.284,17.284,0,0,1,196.623,0a15.905,15.905,0,0,1,9.467,2.886,15.265,15.265,0,0,1,5.649,7.558h-4.133a10.977,10.977,0,0,0-4.167-5.088,12.146,12.146,0,0,0-6.817-1.876A12.865,12.865,0,0,0,189.986,5.2a11.781,11.781,0,0,0-4.492,4.729,14.361,14.361,0,0,0-1.583,6.761,14.218,14.218,0,0,0,1.606,6.794,11.844,11.844,0,0,0,4.537,4.706,13.051,13.051,0,0,0,6.66,1.706,13.279,13.279,0,0,0,5.952-1.337,10.7,10.7,0,0,0,6-9.422h-13.05v-3.28h17.25v.18a21.536,21.536,0,0,1-.832,6.109,16.16,16.16,0,0,1-2.347,4.93,15.083,15.083,0,0,1-8,5.627A17.944,17.944,0,0,1,196.668,33.4Zm-44.383,0a12.993,12.993,0,0,1-5.807-1.28,10.274,10.274,0,0,1-4.155-3.628,9.44,9.44,0,0,1-1.538-5.267h3.729a6.168,6.168,0,0,0,2.167,4.8,8.371,8.371,0,0,0,5.738,1.921,8.77,8.77,0,0,0,5.245-1.472,4.662,4.662,0,0,0,2.032-3.964,5.827,5.827,0,0,0-.606-2.774,4.868,4.868,0,0,0-1.64-1.831,10.608,10.608,0,0,0-2.37-1.135,28.719,28.719,0,0,0-2.808-.808c-.915-.216-1.909-.466-2.954-.742a16.666,16.666,0,0,1-2.819-1.021,9.547,9.547,0,0,1-2.37-1.55,6.383,6.383,0,0,1-1.639-2.449,9.756,9.756,0,0,1-.607-3.594,7.905,7.905,0,0,1,2.807-6.1A10.9,10.9,0,0,1,152.2,0a13.381,13.381,0,0,1,3.717.539,12.012,12.012,0,0,1,3.38,1.617A7.815,7.815,0,0,1,161.82,5.1a9.332,9.332,0,0,1,.954,4.245h-3.818a5.577,5.577,0,0,0-1.775-4.369,7.334,7.334,0,0,0-5.031-1.584,7.037,7.037,0,0,0-4.874,1.517A4.833,4.833,0,0,0,145.615,8.6a4.579,4.579,0,0,0,.606,2.415,4.438,4.438,0,0,0,1.64,1.617,12.351,12.351,0,0,0,2.381,1.033c.787.261,1.735.533,2.819.809.921.23,1.914.495,2.954.786a14.531,14.531,0,0,1,2.83,1.123,11.256,11.256,0,0,1,2.381,1.673,6.725,6.725,0,0,1,1.64,2.55,10.405,10.405,0,0,1,.607,3.672,8.268,8.268,0,0,1-3.032,6.513A12.14,12.14,0,0,1,152.285,33.4Zm71.2-.6h-3.729V.584h3.819L240.4,26.3h.293V.584h3.661V32.792H240.4L223.756,7.075h-.27V32.793Zm-190.873,0H27.784L20.552,5.615h-.269l-7.21,27.178H8.243L0,.584H4L10.58,28.233h.269L18.081.584h4.694l7.21,27.649h.292L36.836.584h4.02L32.613,32.793Zm141.482,0h-3.729V.584H174.1V32.792Zm-37.668,0H117.583V.584h18.35V4H121.312V14.712h12.6v3.369h-12.6V29.424h15.115v3.369Zm-71.223,0H46.359V.584H64.71V4H50.088V14.712h12.6v3.369h-12.6V29.424H65.2v3.369Zm29.334,0H84.97V.584h9.568a17.6,17.6,0,0,1,8.693,2.077,13.794,13.794,0,0,1,5.57,5.694,17.842,17.842,0,0,1,1.886,8.333,19.961,19.961,0,0,1-1.067,6.716,13.818,13.818,0,0,1-3.2,5.1,13.67,13.67,0,0,1-5.1,3.218A19.973,19.973,0,0,1,94.538,32.793ZM88.7,3.953V29.491h5.839c3.815,0,6.857-1.137,9.04-3.38s3.29-5.413,3.29-9.422c0-3.891-1.107-7.02-3.29-9.3s-5.225-3.437-9.04-3.437Z" transform="translate(15.921 471.207)" fill="#fff"/>
  </g>
</svg>
