<svg xmlns="http://www.w3.org/2000/svg" width="75.017" height="18.985" viewBox="0 0 75.017 18.985">
  <path id="Shape" d="M59.557,18.985a4.212,4.212,0,0,1-2.515-.8,2.749,2.749,0,0,1-1.132-2.253,3.369,3.369,0,0,1,1.667-2.978,6.729,6.729,0,0,1,3.518-.886c.234,0,.471.021.68.04h.007c.208.018.4.035.585.035a5.153,5.153,0,0,0-.3-2.066,1.623,1.623,0,0,0-1.638-.929,2.837,2.837,0,0,0-2.678,1.4h-.645v-2.5A12.618,12.618,0,0,1,60.6,7.579a6.115,6.115,0,0,1,3.136.645,2.8,2.8,0,0,1,1.327,2.627c0,.443-.021.969-.045,1.579l0,.075v.008c-.026.651-.056,1.385-.065,2.145v.924c0,1.175.2,1.553.816,1.553a2.566,2.566,0,0,0,.57-.111l.4.388L64.7,18.984a2.727,2.727,0,0,1-2.166-1.294l-.051.037A4.967,4.967,0,0,1,59.557,18.985ZM61.1,12.958a2.274,2.274,0,0,0-2.544,2.311A2.119,2.119,0,0,0,60.659,17.4a3.368,3.368,0,0,0,1.8-.444l-.076-3.864A7.222,7.222,0,0,0,61.1,12.958ZM27.483,18.968h0a3.845,3.845,0,0,1-2.051-1.738L23.854,18.56a3.6,3.6,0,0,1-1.9.388,5.294,5.294,0,0,1-3.974-1.636,5.817,5.817,0,0,1-1.5-4.02,5.6,5.6,0,0,1,1.7-4.256,6.2,6.2,0,0,1,4.3-1.511,6.627,6.627,0,0,1,2.754.665v-3.9c0-.8-.158-1.747-1.386-1.94V1.83A8.471,8.471,0,0,0,27.481.019h.532c0,.832-.017,1.75-.04,2.864v.051l0,.078,0,.1c-.03,1.44-.07,3.412-.07,5.707v6.544c0,1.023.258,1.48.836,1.48a1.282,1.282,0,0,0,.76-.2l.4.388a10.739,10.739,0,0,0-2.412,1.94ZM22.391,8.6a2.616,2.616,0,0,0-2.3,1.343,5.277,5.277,0,0,0-.7,2.687,5.861,5.861,0,0,0,.968,3.2A3.3,3.3,0,0,0,23.094,17.4a3.035,3.035,0,0,0,2.183-.924V12.145C25.277,9.591,24.468,8.6,22.391,8.6ZM70.725,18.967a6.847,6.847,0,0,1-3.134-.758l-.171-2.441h1.006a2.627,2.627,0,0,0,2.545,2.163,1.73,1.73,0,0,0,1.9-1.626c0-.8-.974-1.2-2.1-1.669-1.543-.635-3.463-1.426-3.463-3.6a3.113,3.113,0,0,1,1.3-2.646,5.142,5.142,0,0,1,2.97-.829,11.87,11.87,0,0,1,3.274.636l.164.048L74.9,10.574H74.01a2.267,2.267,0,0,0-2.507-2,1.642,1.642,0,0,0-1.861,1.664c0,1.155,1.133,1.593,2.333,2.057,1.426.551,3.041,1.176,3.041,3.138a3.15,3.15,0,0,1-1.27,2.7A5.1,5.1,0,0,1,70.725,18.967Zm-34.6,0a6.131,6.131,0,0,1-4.759-1.928,5.724,5.724,0,0,1-1.47-3.785,6.154,6.154,0,0,1,1.382-3.785,5.2,5.2,0,0,1,4.145-1.927,5.332,5.332,0,0,1,3.527,1.209,4.279,4.279,0,0,1,1.448,3.3H32.532a4.748,4.748,0,0,0,1.223,3.557,4.479,4.479,0,0,0,3.3,1.435,4.983,4.983,0,0,0,2.831-.851l.266.314-1.463,2.07A7.825,7.825,0,0,1,36.121,18.967ZM34.963,8.448a2.3,2.3,0,0,0-1.682.7A2.527,2.527,0,0,0,32.609,11H37.47a2.608,2.608,0,0,0-.649-1.913A2.527,2.527,0,0,0,34.963,8.448Zm9.971,10.5A6.836,6.836,0,0,1,41.8,18.19l-.171-2.44h1.006a2.628,2.628,0,0,0,2.545,2.163,1.73,1.73,0,0,0,1.9-1.627c0-.8-.973-1.2-2.1-1.667-1.544-.635-3.466-1.426-3.466-3.6a3.113,3.113,0,0,1,1.3-2.646,5.126,5.126,0,0,1,2.97-.83,11.811,11.811,0,0,1,3.247.627l.017.005.012,0,.162.048-.114,2.366h-.855a2.266,2.266,0,0,0-2.507-2,1.642,1.642,0,0,0-1.861,1.663c0,1.158,1.134,1.594,2.335,2.056,1.417.546,3.023,1.164,3,3.1a3.15,3.15,0,0,1-1.27,2.7A5.105,5.105,0,0,1,44.934,18.948Zm-28.127-.2h0c-.453,0-.9-.027-1.332-.053l-.049,0c-.443-.027-.9-.055-1.354-.055-.469,0-.922.028-1.361.055h-.023l-.048,0h-.015l-.031,0c-.361.022-.811.049-1.256.049v-.573a.863.863,0,0,0,.893-.979,4.511,4.511,0,0,0-.323-1.35l-.95-2.44H4.6l-.741,2.311a5.179,5.179,0,0,0-.19,1.312c0,.7.371,1.128.968,1.128v.573c-.376,0-.751-.027-1.114-.053l-.044,0-.032,0c-.367-.026-.747-.053-1.127-.053s-.753.027-1.118.053l-.041,0-.032,0c-.368.026-.748.053-1.126.053v-.573c1.1-.226,2.124-2.74,2.618-3.948L8.375.037H8.7l5.925,14.789q.142.348.265.653c.749,1.859,1.029,2.555,1.9,2.655h.019v.609ZM7.71,5.176h0L5.089,12.108h5.356L7.71,5.176ZM55.38,18.689h0c-.447,0-.908-.023-1.213-.038h-.02c-.327-.015-.774-.036-1.2-.036-.4,0-.832.021-1.144.036H51.79c-.312.016-.737.038-1.158.038v-.536a1.076,1.076,0,0,0,1.083-1.184V8.429c0-1.555-.131-3.493-.209-4.511-.058-1.112-.538-1.7-1.387-1.7v-.61A8.682,8.682,0,0,0,53.9,0h.532l-.008.3V.319c-.039,1.431-.105,3.825-.105,6.114V16.655c0,.822.178,1.36,1.064,1.5v.535Z" fill="#d6d4d3"/>
</svg>
