<?xml version="1.0" encoding="UTF-8"?>
<svg width="111px" height="25px" viewBox="0 0 111 25" version="1.1" xmlns="http://www.w3.org/2000/svg" xmlns:xlink="http://www.w3.org/1999/xlink">
    <!-- Generator: Sketch 52.6 (67491) - http://www.bohemiancoding.com/sketch -->
    <title>identidad / alsa / blanco</title>
    <desc>Created with Sketch.</desc>
    <defs>
        <polygon id="path-1" points="0 0.534 22.3158384 0.534 22.3158384 24.9997948 0 24.9997948"></polygon>
        <polygon id="path-3" points="0 0.534 22.5 0.534 22.5 24.8336 0 24.8336"></polygon>
        <polygon id="path-5" points="0 0.6338 28.9998 0.6338 28.9998 24.9338 0 24.9338"></polygon>
    </defs>
    <g id="Desktop" stroke="none" stroke-width="1" fill="none" fill-rule="evenodd">
        <g id="Desktop---Inicio" transform="translate(-89.000000, -3088.000000)">
            <g id="grid" transform="translate(68.000000, 2970.000000)">
                <g id="identidad-/-alsa-/-blanco" transform="translate(21.000000, 117.000000)">
                    <g>
                        <g id="Group-3" transform="translate(58.000000, 0.466400)">
                            <mask id="mask-2" fill="white">
                                <use xlink:href="#path-1"></use>
                            </mask>
                            <g id="Clip-2"></g>
                            <path d="M16.7,11.5334 C13,10.1334 5.8,9.3334 5.6,7.1334 C5.4,3.3334 9.1,2.9334 10.5,2.9334 C14.5,2.9334 18.7,5.9334 19.1,8.9334 L21.8,8.9334 L21.8,0.5334 L19.1,0.5334 C17.9,0.9334 18.6,2.1334 18.1,2.7334 C15.9,1.7334 13.4,0.5334 9.9,0.5334 C3,0.5334 0.3,5.1334 0,6.9334 L0,8.3334 C0,12.7334 7.4,15.3334 12.6,16.3334 C16.6,17.7334 16.8,18.9334 15.8,20.5334 C14.8,22.3334 9.9,23.3334 6.2,20.5334 C4.5,19.3334 3.7,18.5334 3.2,16.3334 L0,16.3334 L0,24.9334 L2.7,24.9334 C3.9,25.3334 2.9,23.3334 4.2,23.1344 C6.7,24.1344 7.9,24.7334 10.6,24.9334 C15.3,25.3334 19.2,23.9334 21.5,20.5334 C22.2,19.3334 22.5,17.9334 22.2,16.7334 C21.9,14.9334 20.7,12.7334 16.7,11.5334" id="Fill-1" fill="#FFFFFF" mask="url(#mask-2)"></path>
                        </g>
                        <g id="Group-6" transform="translate(32.000000, 0.466400)">
                            <mask id="mask-4" fill="white">
                                <use xlink:href="#path-3"></use>
                            </mask>
                            <g id="Clip-5"></g>
                            <path d="M19.7,18.7336 C19.5,19.5336 19.2,20.1336 18.7,20.9336 C17.7,22.3336 9.6,23.5336 9.6,20.9336 L9.6,4.1336 C10.1,3.3336 11.8,2.9336 13.3,2.9336 L13.3,0.5336 L0.7,0.5336 L0.7,3.1336 C2.2,3.3336 3.4,3.5336 3.7,4.1336 L3.7,20.8336 C3.5,22.6336 1,22.4336 0,22.4336 C0.2,23.0336 0.2,24.2336 0,24.8336 L22.5,24.8336 L22.5,16.2336 L19.7,16.2336 L19.7,18.7336 Z" id="Fill-4" fill="#FFFFFF" mask="url(#mask-4)"></path>
                        </g>
                        <path d="M94.6004,14.4002 L92.2994,14.4002 L94.9004,6.4002 L97.1004,14.4002 L94.6004,14.4002 Z M106.9004,21.4002 L100.4994,1.1002 L94.9994,1.1002 L94.6004,1.1002 L93.4994,1.1002 L85.7994,21.4002 C85.2994,22.6002 83.1004,22.6002 81.7994,23.0002 L81.7994,25.4002 L92.2004,25.4002 L92.2004,23.0002 C90.4994,23.0002 88.9994,22.2002 89.4994,21.0002 L90.7004,17.2002 L94.4994,17.2002 L98.4994,17.2002 L99.7004,21.4002 C99.9004,22.2002 97.7004,22.6002 96.4994,23.0002 L96.4994,25.4002 L110.7994,25.4002 L110.7994,23.0002 C109.4004,22.4002 107.4004,22.4002 106.9004,21.4002 Z" id="Fill-7" fill="#FFFFFF"></path>
                        <g id="Group-11" transform="translate(0.000000, 0.466400)">
                            <mask id="mask-6" fill="white">
                                <use xlink:href="#path-5"></use>
                            </mask>
                            <g id="Clip-10"></g>
                            <path d="M12.9998,13.9338 L12.5998,13.9338 L10.2998,13.9338 L12.8998,5.9338 L15.0998,13.9338 L12.9998,13.9338 Z M24.9998,20.9338 L18.5998,0.6338 L13.0998,0.6338 L12.6998,0.6338 L11.5998,0.6338 L4.1998,20.9338 C3.4998,22.1338 1.1998,22.1338 0.1998,22.5338 L-0.0002,24.9338 L10.3998,24.9338 L10.3998,22.5338 C8.6998,22.5338 7.1998,21.7338 7.6998,20.5338 L8.8998,16.7338 L12.6998,16.7338 L13.0998,16.7338 L16.6998,16.7338 L17.8998,20.9338 C18.0998,21.7338 15.8998,22.1338 14.6998,22.5338 L14.6998,24.9338 L28.9998,24.9338 L28.9998,22.5338 C27.3998,21.9338 25.4998,21.9338 24.9998,20.9338 Z" id="Fill-9" fill="#FFFFFF" mask="url(#mask-6)"></path>
                        </g>
                    </g>
                </g>
            </g>
        </g>
    </g>
</svg>