<?xml version="1.0" encoding="UTF-8"?>
<svg width="137px" height="31px" viewBox="0 0 137 31" version="1.1" xmlns="http://www.w3.org/2000/svg" xmlns:xlink="http://www.w3.org/1999/xlink">
    <!-- Generator: Sketch 52.6 (67491) - http://www.bohemiancoding.com/sketch -->
    <title>identidad / ausolan / blanco</title>
    <desc>Created with Sketch.</desc>
    <defs>
        <polygon id="path-1" points="0 0 30.9998 0 30.9998 31 0 31"></polygon>
    </defs>
    <g id="Desktop" stroke="none" stroke-width="1" fill="none" fill-rule="evenodd">
        <g id="Desktop---Inicio" transform="translate(-268.000000, -3285.000000)">
            <g id="grid" transform="translate(68.000000, 2970.000000)">
                <g id="identidad-/-ausolan-/-blanco" transform="translate(200.000000, 315.000000)">
                    <g>
                        <path d="M97.0996,17.2004 C97.0996,17.8994 96.4996,18.5004 95.7996,18.5004 L88.0996,18.5004 C87.4006,18.5004 86.7996,17.8994 86.7996,17.2004 L86.7996,13.7004 C86.7996,13.0004 87.4006,12.4004 88.0996,12.4004 L95.7996,12.4004 C96.4996,12.4004 97.0996,13.0004 97.0996,13.7004 L97.0996,17.2004 Z M95.9006,10.3004 L87.9996,10.3004 C86.2006,10.3004 84.7006,11.8004 84.7006,13.5994 L84.7006,17.3994 C84.7006,19.2004 86.2006,20.7004 87.9996,20.7004 L95.9006,20.7004 C97.7006,20.7004 99.2006,19.2004 99.2006,17.3994 L99.2006,13.5994 C99.0996,11.7004 97.7006,10.3004 95.9006,10.3004 Z" id="Fill-1" fill="#FFFFFF"></path>
                        <path d="M47.5,17.2004 L47.5,17.3994 C47.4,18.0004 46.5,18.5004 45.8,18.5004 L39,18.5004 C38.3,18.5004 37.2,18.0004 37.2,17.3004 L37.2,17.0004 C37.2,16.3004 38.3,15.8004 39,15.8004 L47.5,15.8004 L47.5,17.2004 Z M46.5,10.3004 L39.7,10.3004 C39.5,10.3004 39.3,10.5004 39.3,10.7004 L39.3,11.9004 C39.3,12.0994 39.5,12.3004 39.7,12.3004 L46.5,12.3004 C47,12.3004 47.6,12.7004 47.6,13.0994 L47.6,13.7004 L38.7,13.7004 C37.5,13.7004 36.2,14.2004 35.5,15.0994 C35.3,15.3004 35.2,15.5994 35.2,15.8994 L35.2,18.2004 C35.2,19.7004 37.2,20.5004 38.7,20.5004 L46.2,20.5004 C47.7,20.5004 49.7,19.8004 49.7,18.3004 L49.7,13.7004 C49.6,11.9004 48.3,10.3004 46.5,10.3004 Z" id="Fill-3" fill="#FFFFFF"></path>
                        <g id="Group-7">
                            <mask id="mask-2" fill="white">
                                <use xlink:href="#path-1"></use>
                            </mask>
                            <g id="Clip-6"></g>
                            <path d="M24.7998,19.3 C24.7998,21.2 22.1998,22.1 20.2998,22.1 L10.6998,22.1 C8.7998,22.1 6.1998,21 6.1998,19.1 L6.1998,16.2 C6.1998,15.8 6.2998,15.5 6.5998,15.2 C7.4998,14 9.1998,13.4 10.6998,13.4 L22.0998,13.4 L22.0998,12.6 C22.0998,12 21.2998,11.5 20.6998,11.5 L11.9998,11.5 C11.6998,11.5 11.3998,11.3 11.3998,10.9 L11.3998,9.4 C11.3998,9.1 11.5998,8.8 11.9998,8.8 L20.6998,8.8 C23.0998,8.8 24.6998,10.9 24.6998,13.3 L24.7998,19.3 Z M15.4998,0 C6.8998,0 -0.0002,6.9 -0.0002,15.5 C-0.0002,24.1 6.8998,31 15.4998,31 C24.0998,31 30.9998,24.1 30.9998,15.5 C30.9998,6.9 24.0998,0 15.4998,0 Z" id="Fill-5" fill="#FFFFFF" mask="url(#mask-2)"></path>
                        </g>
                        <path d="M8.7998,17.5998 L8.7998,17.9998 C8.7998,18.8998 10.1998,19.4998 11.0998,19.4998 L19.9998,19.4998 C20.8998,19.4998 21.9998,18.8998 22.0998,18.0998 L22.0998,17.7998 L22.0998,16.0998 L11.0998,16.0998 C10.1998,16.0998 8.7998,16.7008 8.7998,17.5998" id="Fill-8" fill="#FFFFFF"></path>
                        <path d="M117.7002,17.2004 L117.7002,17.3994 C117.5992,18.0004 116.7002,18.5004 116.0002,18.5004 L109.0992,18.5004 C108.4002,18.5004 107.3002,18.0004 107.3002,17.3004 L107.3002,17.0004 C107.3002,16.3004 108.4002,15.8004 109.0992,15.8004 L117.5992,15.8004 L117.7002,17.2004 Z M116.7002,10.3004 L109.9002,10.3004 C109.7002,10.3004 109.5002,10.5004 109.5002,10.7004 L109.5002,11.9004 C109.5002,12.0994 109.7002,12.3004 109.9002,12.3004 L116.7002,12.3004 C117.2002,12.3004 117.8002,12.7004 117.8002,13.0994 L117.8002,13.7004 L108.9002,13.7004 C107.7002,13.7004 106.4002,14.2004 105.7002,15.0994 C105.5002,15.3004 105.4002,15.5994 105.4002,15.8994 L105.4002,18.2004 C105.4002,19.7004 107.4002,20.5004 108.9002,20.5004 L116.4002,20.5004 C117.9002,20.5004 119.9002,19.8004 119.9002,18.3004 L119.9002,13.7004 C119.8002,11.9004 118.5002,10.3004 116.7002,10.3004 Z" id="Fill-10" fill="#FFFFFF"></path>
                        <path d="M102.7998,8.1999 L101.6998,8.1999 C101.4008,8.1999 101.1998,8.3999 101.1998,8.6999 L101.1998,20.1999 C101.1998,20.4999 101.4008,20.6999 101.6998,20.6999 L102.7998,20.6999 C103.0998,20.6999 103.2998,20.4999 103.2998,20.1999 L103.2998,8.6999 C103.2998,8.3999 103.0998,8.1999 102.7998,8.1999" id="Fill-12" fill="#FFFFFF"></path>
                        <path d="M65.5,10.3 L64.5,10.3 C64.2,10.3 64,10.5 64,10.8 L64,17.2 C64,17.9 63.4,18.5 62.7,18.5 L55,18.5 C54.3,18.5 53.7,17.9 53.7,17.2 L53.7,10.8 C53.7,10.5 53.5,10.3 53.2,10.3 L52.2,10.3 C51.9,10.3 51.7,10.5 51.7,10.8 L51.7,17.3 C51.7,19.1 53.2,20.6 55,20.6 L62.9,20.6 C64.7,20.6 66.2,19.1 66.2,17.3 L66.2,10.8 C66.1,10.5 65.8,10.3 65.5,10.3" id="Fill-14" fill="#FFFFFF"></path>
                        <path d="M133,10.3 L125.1,10.3 C123.3,10.3 121.8,11.8 121.8,13.6 L121.8,20.1 C121.8,20.4 122.1,20.6 122.4,20.6 L123.4,20.6 C123.7,20.6 123.9,20.4 123.9,20.1 L123.9,13.7 C123.9,13 124.5,12.4 125.2,12.4 L132.9,12.4 C133.6,12.4 134.2,13 134.2,13.7 L134.2,20.1 C134.2,20.4 134.4,20.6 134.7,20.6 L135.7,20.6 C136,20.6 136.2,20.4 136.2,20.1 L136.2,13.6 C136.3,11.7 134.8,10.3 133,10.3" id="Fill-16" fill="#FFFFFF"></path>
                        <path d="M79.2998,13.8 L71.0998,13.8 C70.6998,13.8 70.1998,13.7 70.1998,13.3 L70.1998,12.8 C70.1998,12.4 70.7998,12.3 71.0998,12.3 L77.9008,12.3 C78.1998,12.3 78.4008,12.1 78.4008,11.8 L78.4008,10.8 C78.4008,10.5 78.1998,10.3 77.9008,10.3 L70.0998,10.3 C68.9998,10.3 68.0998,11.5 68.0998,12.5 L68.0998,13.6 C68.0998,14.8 69.0998,15.8 70.2998,15.8 L79.0998,15.8 C79.7998,15.8 80.4998,16.3 80.4998,17 L80.4998,17.3 C80.4998,18 79.7998,18.5 79.0998,18.5 L68.6998,18.5 C68.4008,18.5 68.1998,18.7 68.1998,19 L68.1998,20 C68.1998,20.3 68.4008,20.5 68.6998,20.5 L79.2998,20.5 C80.5998,20.5 82.5998,19.7 82.5998,18.4 L82.5998,15.8 C82.5998,14.6 80.5998,13.8 79.2998,13.8" id="Fill-18" fill="#FFFFFF"></path>
                    </g>
                </g>
            </g>
        </g>
    </g>
</svg>