<?xml version="1.0" encoding="UTF-8"?>
<svg width="125px" height="34px" viewBox="0 0 125 34" version="1.1" xmlns="http://www.w3.org/2000/svg" xmlns:xlink="http://www.w3.org/1999/xlink">
    <!-- Generator: Sketch 52.6 (67491) - http://www.bohemiancoding.com/sketch -->
    <title>identidad / ajuntament de barcelona</title>
    <desc>Created with Sketch.</desc>
    <defs>
        <polygon id="path-1" points="0.0001 0.3006 83.4 0.3006 83.4 10.8996 0.0001 10.8996"></polygon>
        <polygon id="path-3" points="0 33.5 124.4 33.5 124.4 0 0 0"></polygon>
    </defs>
    <g id="Desktop" stroke="none" stroke-width="1" fill="none" fill-rule="evenodd">
        <g id="Desktop---Inicio" transform="translate(-274.000000, -3183.000000)">
            <g id="grid" transform="translate(68.000000, 2970.000000)">
                <g id="identidad-/-ajuntament-de-barcelona" transform="translate(206.000000, 213.000000)">
                    <g>
                        <g id="Group-3" transform="translate(41.000000, 18.500000)">
                            <mask id="mask-2" fill="white">
                                <use xlink:href="#path-1"></use>
                            </mask>
                            <g id="Clip-2"></g>
                            <path d="M6.8001,10.4996 L6.8001,0.3996 L5.0001,0.3996 L5.0001,3.6996 C4.7001,3.3006 4.0001,2.9996 3.1001,2.9996 C2.4001,2.9996 1.8001,3.1996 1.3001,3.6006 C0.4001,4.3006 0.0001,5.3996 0.0001,6.8996 C0.0001,8.3006 0.4001,9.3996 1.3001,10.1006 C1.7001,10.4996 2.4001,10.6996 3.1001,10.6996 C3.9001,10.6996 4.7001,10.3996 5.2001,9.6996 L5.3001,10.4996 L6.8001,10.4996 Z M5.1001,6.8996 C5.1001,7.9996 4.8001,9.3006 3.4001,9.3006 C2.9001,9.3006 2.5001,8.9996 2.2001,8.6996 C1.8001,8.1996 1.7001,7.4996 1.7001,6.8996 C1.7001,6.3006 1.8001,5.6006 2.2001,5.1006 C2.5001,4.8006 2.8001,4.4996 3.4001,4.4996 C4.8001,4.4996 5.1001,5.8006 5.1001,6.8996 Z M15.1001,6.8996 C15.1001,5.9996 15.0001,5.1996 14.5001,4.3996 C13.9001,3.4996 12.9001,3.1006 11.8001,3.1006 C10.8001,3.1006 10.0001,3.4996 9.5001,3.9996 C8.8001,4.6996 8.4001,5.8006 8.4001,6.8996 C8.4001,8.1006 8.8001,9.1006 9.5001,9.8006 C10.1001,10.3006 10.8001,10.6996 11.8001,10.6996 C12.7001,10.6996 13.6001,10.3996 14.3001,9.6996 C14.6001,9.3996 14.9001,8.8006 14.9001,8.3006 L13.2001,8.3006 C13.1001,8.6006 13.0001,8.8006 12.8001,8.8996 C12.5001,9.1996 12.2001,9.3006 11.7001,9.3006 C11.2001,9.3006 10.9001,9.1006 10.6001,8.8006 C10.2001,8.4996 10.1001,7.8996 10.1001,7.3996 L15.0001,7.3996 C15.1001,7.3006 15.1001,6.8996 15.1001,6.8996 Z M13.3001,6.1996 L10.1001,6.1996 C10.1001,5.6996 10.2001,5.3996 10.5001,5.1006 C10.8001,4.8006 11.2001,4.4996 11.7001,4.4996 C12.2001,4.4996 12.6001,4.6996 12.8001,4.8996 C13.1001,5.1996 13.3001,5.6006 13.3001,6.1996 Z M27.2001,7.6006 C27.2001,6.6996 26.7001,5.8006 25.8001,5.3996 C26.6001,4.9996 27.0001,4.1006 27.0001,3.3006 C27.0001,2.3996 26.6001,1.6006 25.8001,1.1006 C25.1001,0.6996 24.3001,0.6006 23.5001,0.6006 L19.5001,0.6006 L19.5001,10.6006 L23.5001,10.6006 C24.5001,10.6006 25.4001,10.4996 26.2001,9.8996 C26.9001,9.3006 27.2001,8.4996 27.2001,7.6006 Z M25.1001,3.3996 C25.1001,4.3006 24.4001,4.6006 23.6001,4.6006 L21.3001,4.6006 L21.3001,2.1006 L23.5001,2.1006 C24.4001,2.1006 25.1001,2.3996 25.1001,3.3996 Z M25.3001,7.6006 C25.3001,8.6006 24.4001,8.8996 23.5001,8.8996 L21.3001,8.8996 L21.3001,6.1006 L23.6001,6.1006 C24.6001,6.1996 25.3001,6.4996 25.3001,7.6006 Z M35.1001,10.4996 L35.1001,9.1996 L34.9001,9.1996 C34.6001,9.1996 34.5001,9.1006 34.5001,8.6996 L34.5001,5.9996 C34.5001,5.4996 34.5001,4.9996 34.3001,4.4996 C33.9001,3.3996 32.8001,2.9996 31.6001,2.9996 C30.0001,2.9996 28.7001,3.6996 28.6001,5.3996 L30.3001,5.3996 C30.3001,4.6996 30.8001,4.3996 31.6001,4.3996 C32.6001,4.3996 32.8001,4.8996 32.8001,5.6006 L32.8001,6.1006 L30.6001,6.3006 C29.2001,6.3996 28.1001,7.1996 28.1001,8.6006 C28.1001,9.8006 29.0001,10.8996 30.7001,10.8996 C31.7001,10.8996 32.6001,10.3996 32.9001,9.8006 C33.0001,10.3006 33.4001,10.8006 34.1001,10.8006 C34.6001,10.6996 34.8001,10.6006 35.1001,10.4996 Z M32.7001,7.6006 C32.7001,8.6996 31.9001,9.3006 30.8001,9.3006 C30.3001,9.3006 29.8001,8.8996 29.8001,8.3996 C29.8001,7.8006 30.3001,7.4996 30.9001,7.3996 L32.8001,7.3006 L32.7001,7.6006 Z M40.8001,4.8996 L40.8001,3.1996 L40.3001,3.1996 C39.4001,3.1996 38.6001,3.6006 38.2001,4.3996 L38.0001,3.3006 L36.5001,3.3006 L36.5001,10.6006 L38.3001,10.6006 L38.3001,6.8996 C38.3001,5.6996 38.9001,4.8006 40.2001,4.8006 C40.4001,4.8006 40.6001,4.8006 40.8001,4.8996 Z M47.6001,7.9996 L45.9001,7.9996 C45.9001,8.3006 45.8001,8.4996 45.7001,8.6996 C45.5001,8.9996 45.1001,9.1996 44.6001,9.1996 C44.1001,9.1996 43.8001,8.9996 43.5001,8.6996 C43.1001,8.1996 43.0001,7.4996 43.0001,6.8996 C43.0001,6.1996 43.1001,5.4996 43.5001,4.9996 C43.7001,4.6996 44.1001,4.4996 44.6001,4.4996 C45.1001,4.4996 45.5001,4.6996 45.7001,4.9996 C45.8001,5.1996 45.9001,5.3996 45.9001,5.6996 L47.6001,5.6996 C47.6001,5.1006 47.4001,4.4996 47.0001,4.1006 C46.5001,3.4996 45.6001,2.8996 44.5001,2.8996 C43.4001,2.8996 42.5001,3.3996 42.0001,4.1006 C41.5001,4.8006 41.2001,5.6996 41.2001,6.8006 C41.2001,7.8996 41.5001,8.8006 42.0001,9.4996 C42.5001,10.1006 43.4001,10.6996 44.5001,10.6996 C45.6001,10.6996 46.5001,10.1996 47.0001,9.4996 C47.4001,9.1006 47.6001,8.4996 47.6001,7.9996 Z M55.3001,6.8996 C55.3001,5.9996 55.2001,5.1996 54.7001,4.3996 C54.1001,3.4996 53.1001,3.1006 52.0001,3.1006 C51.0001,3.1006 50.2001,3.4996 49.7001,3.9996 C49.0001,4.6996 48.6001,5.8006 48.6001,6.8996 C48.6001,8.1006 49.0001,9.1006 49.7001,9.8006 C50.3001,10.3006 51.0001,10.6996 52.0001,10.6996 C52.9001,10.6996 53.8001,10.3996 54.5001,9.6996 C54.8001,9.3996 55.1001,8.8006 55.1001,8.3006 L53.4001,8.3006 C53.3001,8.6006 53.2001,8.8006 53.0001,8.8996 C52.7001,9.1996 52.4001,9.3006 51.9001,9.3006 C51.4001,9.3006 51.1001,9.1006 50.8001,8.8006 C50.4001,8.4996 50.3001,7.8996 50.3001,7.3996 L55.2001,7.3996 C55.3001,7.3006 55.3001,6.8996 55.3001,6.8996 Z M53.5001,6.1996 L50.3001,6.1996 C50.3001,5.6996 50.4001,5.3996 50.7001,5.1006 C51.0001,4.8006 51.4001,4.4996 51.9001,4.4996 C52.4001,4.4996 52.8001,4.6996 53.0001,4.8996 C53.3001,5.1996 53.5001,5.6006 53.5001,6.1996 Z M59.5001,10.4996 L59.5001,8.9996 L59.2001,8.9996 C58.6001,8.9996 58.5001,8.6996 58.5001,8.3006 L58.5001,0.3006 L56.7001,0.3006 L56.7001,8.6006 C56.7001,9.9996 57.5001,10.6006 58.7001,10.6006 C59.1001,10.6006 59.2001,10.6006 59.5001,10.4996 Z M67.2001,6.8996 C67.2001,5.6996 66.9001,4.8996 66.3001,4.1996 C65.8001,3.6006 64.9001,3.1006 63.7001,3.1006 C62.6001,3.1006 61.6001,3.6006 61.1001,4.1996 C60.6001,4.8996 60.2001,5.6996 60.2001,6.8996 C60.2001,8.1006 60.5001,8.8996 61.1001,9.6006 C61.6001,10.1996 62.5001,10.6996 63.7001,10.6996 C64.8001,10.6996 65.8001,10.1996 66.3001,9.6006 C66.9001,8.8996 67.2001,8.1006 67.2001,6.8996 Z M65.4001,6.8996 C65.4001,7.6006 65.3001,8.3006 64.9001,8.6996 C64.7001,8.9996 64.3001,9.1996 63.8001,9.1996 C63.3001,9.1996 62.9001,8.9996 62.7001,8.6996 C62.3001,8.1996 62.2001,7.4996 62.2001,6.8996 C62.2001,6.1996 62.3001,5.4996 62.7001,5.1006 C62.9001,4.8006 63.3001,4.6006 63.8001,4.6006 C64.3001,4.6006 64.7001,4.8006 64.9001,5.1006 C65.3001,5.4996 65.4001,6.1996 65.4001,6.8996 Z M75.0001,10.4996 L75.0001,5.6006 C75.0001,4.1006 74.1001,2.9996 72.5001,2.9996 C71.7001,2.9996 70.8001,3.3996 70.3001,4.1006 L70.2001,3.1996 L68.7001,3.1996 L68.7001,10.4996 L70.5001,10.4996 L70.5001,7.4996 C70.5001,6.8996 70.5001,6.1006 70.7001,5.4996 C70.9001,4.9996 71.3001,4.6006 72.0001,4.6006 C72.9001,4.6006 73.2001,5.1006 73.2001,5.9996 L73.2001,10.4996 L75.0001,10.4996 Z M83.4001,10.4996 L83.4001,9.1996 L83.2001,9.1996 C82.9001,9.1996 82.8001,9.1006 82.8001,8.6996 L82.8001,5.9996 C82.8001,5.4996 82.8001,4.9996 82.6001,4.4996 C82.2001,3.3996 81.1001,2.9996 79.9001,2.9996 C78.3001,2.9996 77.0001,3.6996 76.9001,5.3996 L78.6001,5.3996 C78.6001,4.6996 79.1001,4.3996 79.9001,4.3996 C80.9001,4.3996 81.1001,4.8996 81.1001,5.6006 L81.1001,6.1006 L78.9001,6.3006 C77.5001,6.3996 76.4001,7.1996 76.4001,8.6006 C76.4001,9.8006 77.3001,10.8996 79.0001,10.8996 C80.0001,10.8996 80.9001,10.3996 81.2001,9.8006 C81.3001,10.3006 81.7001,10.8006 82.4001,10.8006 C82.9001,10.6996 83.1001,10.6006 83.4001,10.4996 Z M81.0001,7.6006 C81.0001,8.6996 80.2001,9.3006 79.1001,9.3006 C78.6001,9.3006 78.1001,8.8996 78.1001,8.3996 C78.1001,7.8006 78.6001,7.4996 79.2001,7.3996 L81.1001,7.3006 L81.1001,7.6006 L81.0001,7.6006 Z" id="Fill-1" fill="#FFFFFF" mask="url(#mask-2)"></path>
                        </g>
                        <path d="M49.4002,14.9 L45.9002,4.9 L43.9002,4.9 L40.4002,14.9 L42.2002,14.9 L42.8002,13 L46.8002,13 L47.4002,14.9 L49.4002,14.9 Z M46.3002,11.3 L43.5002,11.3 L44.9002,7.1 L46.3002,11.3 Z M50.6002,6.5 L52.5002,6.5 L52.5002,4.7 L50.6002,4.7 L50.6002,6.5 Z M52.4002,15.9 L52.4002,7.6 L50.6002,7.6 L50.6002,15.6 C50.6002,16.1 50.3002,16.4 49.8002,16.4 C49.5002,16.4 49.5002,16.4 48.9002,16.3 L48.9002,17.8 C49.2002,17.9 49.5002,17.9 49.7002,18 L50.3002,18 C51.7002,17.9 52.4002,17.2 52.4002,15.9 Z M60.7002,14.9 L60.7002,7.6 L58.9002,7.6 L58.9002,11.5 C58.9002,12.1 58.8002,12.8 58.4002,13.1 C58.2002,13.3 57.9002,13.5 57.5002,13.5 C56.6002,13.5 56.2002,13 56.2002,12.1 L56.2002,7.6 L54.4002,7.6 L54.4002,12.5 C54.4002,14.1 55.4002,15.1 56.9002,15.1 C57.8002,15.1 58.6002,14.7 59.0002,14 L59.1002,15 L60.7002,15 L60.7002,14.9 Z M69.0002,14.9 L69.0002,10 C69.0002,8.5 68.1002,7.4 66.5002,7.4 C65.7002,7.4 64.7992,7.8 64.2992,8.5 L64.2002,7.6 L62.7002,7.6 L62.7002,14.9 L64.5002,14.9 L64.5002,11.9 C64.5002,11.3 64.5002,10.5 64.7002,9.9 C64.9002,9.4 65.2992,9 66.0002,9 C66.9002,9 67.2002,9.5 67.2002,10.4 L67.2002,14.9 L69.0002,14.9 Z M75.1002,14.8 L75.1002,13.3 C74.6002,13.4 74.2992,13.4 74.0002,13.4 C73.4002,13.4 73.2002,13.2 73.2002,12.6 L73.2002,9 L75.0002,9 L75.0002,7.6 L73.2002,7.6 L73.2002,5.3 L71.4002,5.7 L71.4002,7.6 L70.1002,7.6 L70.1002,9 L71.4002,9 L71.4002,12.7 C71.4002,14.1 72.1002,14.9 73.6002,14.9 C74.1002,15 74.6002,14.9 75.1002,14.8 Z M82.9002,14.8 L82.9002,13.5 L82.7002,13.5 C82.4002,13.5 82.2992,13.4 82.2992,13 L82.2992,10.3 C82.2992,9.8 82.2992,9.3 82.1002,8.8 C81.7002,7.7 80.6002,7.3 79.4002,7.3 C77.7992,7.3 76.5002,8 76.4002,9.7 L78.1002,9.7 C78.1002,9 78.6002,8.7 79.4002,8.7 C80.4002,8.7 80.6002,9.2 80.6002,9.9 L80.6002,10.4 L78.4002,10.6 C77.0002,10.7 75.9002,11.5 75.9002,12.9 C75.9002,14.1 76.7992,15.2 78.5002,15.2 C79.5002,15.2 80.4002,14.7 80.7002,14.1 C80.7992,14.6 81.2002,15.1 81.9002,15.1 C82.4002,15 82.6002,14.9 82.9002,14.8 Z M80.5002,12 C80.5002,13.1 79.7002,13.7 78.6002,13.7 C78.1002,13.7 77.6002,13.3 77.6002,12.8 C77.6002,12.2 78.1002,11.9 78.7002,11.8 L80.6002,11.7 L80.5002,12 Z M94.7002,14.9 L94.7002,10 C94.7002,8.5 93.9002,7.4 92.2992,7.4 C91.2992,7.4 90.5002,7.8 90.1002,8.6 C89.7002,7.9 89.0002,7.4 88.0002,7.4 C87.0002,7.4 86.2992,7.9 85.9002,8.6 L85.7992,7.6 L84.2992,7.6 L84.2992,14.9 L86.0002,14.9 L86.0002,10.9 C86.0002,10 86.5002,8.9 87.5002,8.9 C88.4002,8.9 88.6002,9.4 88.6002,10.3 L88.6002,14.8 L90.2992,14.8 L90.2992,10.8 C90.2992,9.9 90.7002,8.8 91.7002,8.8 C92.6002,8.8 92.7992,9.3 92.7992,10.2 L92.7992,14.7 L94.7002,14.7 L94.7002,14.9 Z M102.7992,11.3 C102.7992,10.4 102.7002,9.6 102.2002,8.8 C101.6002,7.9 100.6002,7.5 99.5002,7.5 C98.5002,7.5 97.7002,7.9 97.2002,8.4 C96.5002,9.1 96.1002,10.2 96.1002,11.3 C96.1002,12.5 96.5002,13.5 97.2002,14.2 C97.7992,14.7 98.5002,15.1 99.5002,15.1 C100.4002,15.1 101.2992,14.8 102.0002,14.1 C102.2992,13.8 102.6002,13.2 102.6002,12.7 L100.9002,12.7 C100.7992,13 100.7002,13.2 100.5002,13.3 C100.2002,13.6 99.9002,13.7 99.4002,13.7 C98.9002,13.7 98.6002,13.5 98.2992,13.2 C97.9002,12.9 97.7992,12.3 97.7992,11.8 L102.7002,11.8 C102.7992,11.6 102.7992,11.3 102.7992,11.3 Z M101.1002,10.5 L97.9002,10.5 C97.9002,10 98.0002,9.7 98.2992,9.4 C98.6002,9.1 99.0002,8.8 99.5002,8.8 C100.0002,8.8 100.4002,9 100.6002,9.2 C100.9002,9.5 101.1002,10 101.1002,10.5 Z M110.6002,14.9 L110.6002,10 C110.6002,8.5 109.7002,7.4 108.1002,7.4 C107.2992,7.4 106.4002,7.8 105.9002,8.5 L105.7992,7.6 L104.2992,7.6 L104.2992,14.9 L106.1002,14.9 L106.1002,11.9 C106.1002,11.3 106.1002,10.5 106.2992,9.9 C106.5002,9.4 106.9002,9 107.6002,9 C108.5002,9 108.7992,9.5 108.7992,10.4 L108.7992,14.9 L110.6002,14.9 Z M116.7002,14.8 L116.7002,13.3 C116.2002,13.4 115.9002,13.4 115.6002,13.4 C115.0002,13.4 114.7992,13.2 114.7992,12.6 L114.7992,9 L116.6002,9 L116.6002,7.6 L114.7992,7.6 L114.7992,5.3 L113.0002,5.7 L113.0002,7.6 L111.7002,7.6 L111.7002,9 L113.0002,9 L113.0002,12.7 C113.0002,14.1 113.7002,14.9 115.2002,14.9 C115.7002,15 116.2002,14.9 116.7002,14.8 Z" id="Fill-4" fill="#FFFFFF"></path>
                        <path d="M16.8001,10.6002 L16.8001,18.6002 L17.7001,18.6002 L17.7001,11.5002 L18.6001,12.4002 L18.6001,18.6002 L19.5001,18.6002 L19.5001,13.3002 L20.4001,14.2002 L20.4001,18.6002 L21.3001,18.6002 L21.3001,15.1002 L22.2001,16.0002 L22.2001,18.6002 L23.1001,18.6002 L23.1001,16.9002 L24.0001,17.8002 L24.0001,18.6002 L24.8001,18.6002 L24.9001,18.7002 L24.8001,18.8002 L19.5001,18.8002 L19.5001,20.9992 L22.6001,20.9992 L21.7001,22.1002 L19.5001,22.1002 L19.5001,24.3002 L18.6001,25.1002 L18.6001,22.1002 L16.8001,22.1002 L16.8001,26.9992 L16.7001,27.1002 L16.6001,26.9992 L16.6001,18.9992 L15.7001,18.9992 L15.7001,26.1002 L14.8001,25.1002 L14.8001,18.9002 L13.9001,18.9002 L13.9001,24.2002 L13.0001,23.3002 L13.0001,18.9002 L12.1001,18.9002 L12.1001,22.4002 L11.2001,21.4992 L11.2001,18.9002 L10.3001,18.9002 L10.3001,20.6002 L9.4001,19.7002 L9.4001,18.9002 L8.6001,18.9002 L8.5001,18.8002 L8.6001,18.7002 L13.9001,18.7002 L13.9001,16.5002 L10.8001,16.5002 L11.7001,15.6002 L13.9001,15.6002 L13.9001,13.4002 L14.8001,12.5002 L14.8001,15.6002 L16.6001,15.6002 L16.6001,10.7002 L16.7001,10.6002 L16.8001,10.6002 Z M7.8001,18.8002 L16.7001,27.7002 L25.6001,18.8002 L16.7001,9.9002 L7.8001,18.8002 Z" id="Fill-6" fill="#FFFFFF"></path>
                        <mask id="mask-4" fill="white">
                            <use xlink:href="#path-3"></use>
                        </mask>
                        <g id="Clip-9"></g>
                        <polygon id="Fill-8" fill="#FFFFFF" mask="url(#mask-4)" points="14.8 18.6 16.6 18.6 16.6 16.4 14.8 16.4"></polygon>
                        <path d="M26.9002,18.9 C26.9002,19.1 26.7002,19.2 26.5002,19.2 C26.3002,19.2 26.1002,19 26.1002,18.8 C26.1002,18.6 26.3002,18.4 26.5002,18.4 C26.7002,18.4 26.8002,18.5 26.9002,18.7 L26.9002,18.8 L26.9002,18.9 Z M25.8002,18.8 C25.8002,18.8 24.8002,20.6 21.7002,23.7 C18.6002,26.8 16.7002,27.9 16.7002,27.9 C16.7002,27.9 14.9002,26.9 11.8002,23.8 C8.7002,20.7 7.6002,18.8 7.6002,18.8 C7.6002,18.8 8.6002,17 11.7002,13.9 C14.8002,10.8 16.7002,9.7 16.7002,9.7 C16.7002,9.7 18.5002,10.7 21.6002,13.8 C24.7002,16.9 25.7002,18.8 25.8002,18.8 Z M16.7002,29 C16.5002,29 16.3002,28.8 16.3002,28.6 C16.3002,28.4 16.5002,28.2 16.7002,28.2 C16.9002,28.2 17.1002,28.4 17.1002,28.6 C17.1002,28.8 16.9002,29 16.7002,29 Z M6.8002,19.2 C6.6002,19.2 6.4002,19 6.4002,18.8 C6.4002,18.6 6.6002,18.4 6.8002,18.4 C7.0002,18.4 7.2002,18.6 7.2002,18.8 C7.2002,19 7.1002,19.2 6.8002,19.2 Z M19.4002,8.4 C19.3002,8.4 19.1002,8.3 19.0002,8.2 C19.1002,8 19.2002,7.9 19.3002,7.9 C19.4002,7.9 19.6002,8 19.7002,8.1 C19.6002,8 19.6002,7.8 19.6002,7.7 C19.7002,7.6 19.8002,7.5 20.0002,7.5 C20.1002,7.6 20.1002,7.8 20.1002,7.9 C20.0002,8 19.9002,8.1 19.7002,8.1 C19.7002,8.2 19.6002,8.3 19.4002,8.4 Z M18.1002,7.2 C18.1002,7.1 18.2002,7 18.4002,6.9 C18.5002,7 18.6002,7.2 18.6002,7.3 C18.6002,7.4 18.5002,7.5 18.3002,7.6 C18.5002,7.6 18.6002,7.6 18.7002,7.7 C18.8002,7.8 18.8002,7.9 18.8002,8.1 C18.6002,8.1 18.5002,8.1 18.4002,8 C18.3002,7.9 18.3002,7.7 18.3002,7.6 C18.3002,7.8 18.2002,7.9 18.0002,7.9 C17.9002,7.9 17.7002,7.9 17.6002,7.8 C17.6002,7.6 17.7002,7.5 17.9002,7.5 C18.0002,7.5 18.2002,7.5 18.3002,7.6 C18.2002,7.5 18.1002,7.4 18.1002,7.2 Z M16.5002,7.1 C16.5002,7 16.6002,6.8 16.7002,6.7 C16.8002,6.8 16.9002,6.9 16.9002,7.1 C16.9002,7.2 16.8002,7.4 16.7002,7.5 C16.8002,7.4 17.0002,7.4 17.1002,7.5 C17.2002,7.6 17.3002,7.7 17.3002,7.9 C17.2002,8 17.0002,8 16.9002,7.9 C16.8002,7.8 16.7002,7.7 16.7002,7.5 C16.7002,7.7 16.6002,7.8 16.5002,7.9 C16.4002,8 16.2002,8 16.1002,7.9 C16.1002,7.7 16.2002,7.6 16.3002,7.5 C16.4002,7.4 16.6002,7.4 16.7002,7.5 C16.6002,7.4 16.5002,7.2 16.5002,7.1 Z M14.8002,7.3 C14.8002,7.2 14.8002,7 15.0002,6.9 C15.2002,7 15.3002,7.1 15.3002,7.2 C15.3002,7.3 15.3002,7.5 15.1002,7.6 C15.2002,7.5 15.4002,7.4 15.5002,7.5 C15.6002,7.5 15.7002,7.7 15.8002,7.8 C15.7002,7.9 15.5002,8 15.4002,7.9 C15.3002,7.9 15.2002,7.7 15.1002,7.6 C15.1002,7.8 15.1002,7.9 15.0002,8 C14.9002,8.1 14.7002,8.1 14.6002,8.1 C14.6002,7.9 14.6002,7.8 14.7002,7.7 C14.8002,7.6 15.0002,7.6 15.1002,7.6 C14.9002,7.6 14.8002,7.4 14.8002,7.3 Z M16.7002,8.2 C17.7002,8.2 18.7002,8.4 19.5002,8.8 L19.2002,9.3 C18.5002,9 17.6002,8.8 16.7002,8.8 C15.8002,8.8 15.0002,9 14.2002,9.3 L13.9002,8.8 C14.7002,8.4 15.7002,8.2 16.7002,8.2 Z M14.0002,7.9 C14.1002,7.9 14.3002,8 14.3002,8.2 C14.2002,8.3 14.1002,8.4 13.9002,8.4 C13.8002,8.4 13.6002,8.3 13.6002,8.1 C13.4002,8.1 13.3002,8 13.2002,7.9 C13.1002,7.8 13.2002,7.6 13.3002,7.5 C13.5002,7.5 13.6002,7.6 13.7002,7.7 C13.8002,7.8 13.7002,8 13.6002,8.1 C13.7002,8 13.8002,7.9 14.0002,7.9 Z M14.1002,5.2 C14.3002,5.2 14.5002,5.2 14.7002,5.3 C15.0002,5 15.4002,4.8 15.9002,4.8 C16.2002,4.8 16.5002,4.9 16.7002,5 C16.9002,4.9 17.2002,4.8 17.5002,4.8 C18.0002,4.8 18.4002,5 18.7002,5.3 C18.9002,5.2 19.1002,5.2 19.3002,5.2 C20.1002,5.2 20.8002,5.8 20.8002,6.5 C20.8002,6.8 20.6002,7.1 20.4002,7.4 L20.0002,7 C20.1002,6.9 20.2002,6.7 20.2002,6.5 C20.2002,6.1 19.8002,5.8 19.3002,5.8 L19.0002,5.8 L19.0002,6 C19.0002,6.2 18.9002,6.5 18.8002,6.7 L18.4002,6.3 C18.4002,6.2 18.5002,6.1 18.5002,6 C18.5002,5.6 18.1002,5.3 17.6002,5.3 C17.4002,5.3 17.2002,5.3 17.1002,5.4 L17.1002,6.2 L16.5002,6.2 L16.5002,5.4 C16.3002,5.3 16.2002,5.3 16.0002,5.3 C15.5002,5.3 15.1002,5.6 15.1002,6 C15.1002,6.1 15.1002,6.2 15.2002,6.3 L14.8002,6.7 C14.7002,6.5 14.6002,6.3 14.6002,6 L14.6002,5.8 L14.3002,5.8 C13.8002,5.8 13.4002,6.1 13.4002,6.5 C13.4002,6.7 13.5002,6.8 13.6002,7 L13.2002,7.4 C13.0002,7.2 12.8002,6.9 12.8002,6.5 C12.6002,5.8 13.3002,5.2 14.1002,5.2 Z M16.7002,3.7 C16.9002,3.7 17.1002,3.9 17.1002,4.1 C17.1002,4.3 16.9002,4.5 16.7002,4.5 C16.5002,4.5 16.3002,4.3 16.3002,4.1 C16.3002,3.8 16.5002,3.7 16.7002,3.7 Z M33.0002,3.7 C32.1002,1.5 30.0002,0 27.5002,0 L26.9002,0 L6.5002,0 L5.9002,0 C3.4002,0 1.3002,1.5 0.4002,3.7 C0.1002,4.4 0.0002,5.2 0.0002,5.9 L0.0002,27.6 C0.0002,28.1 0.1002,28.6 0.2002,29 C0.8002,31.6 3.2002,33.5 6.0002,33.5 L6.6002,33.5 L27.0002,33.5 L27.6002,33.5 C30.4002,33.5 32.7002,31.6 33.4002,29 C33.5002,28.5 33.6002,28.1 33.6002,27.6 L33.6002,5.9 C33.4002,5.1 33.3002,4.4 33.0002,3.7 Z" id="Fill-10" fill="#FFFFFF" mask="url(#mask-4)"></path>
                        <polygon id="Fill-11" fill="#FFFFFF" mask="url(#mask-4)" points="16.8 21.1 18.6 21.1 18.6 18.9 16.8 18.9"></polygon>
                    </g>
                </g>
            </g>
        </g>
    </g>
</svg>