<?xml version="1.0" encoding="UTF-8"?>
<svg width="86px" height="40px" viewBox="0 0 86 40" version="1.1" xmlns="http://www.w3.org/2000/svg" xmlns:xlink="http://www.w3.org/1999/xlink">
    <!-- Generator: Sketch 52.6 (67491) - http://www.bohemiancoding.com/sketch -->
    <title>identidad / bilbao / blanco</title>
    <desc>Created with Sketch.</desc>
    <defs>
        <polygon id="path-1" points="0.0002 0.2004 29.6002 0.2004 29.6002 40 0.0002 40"></polygon>
    </defs>
    <g id="Desktop" stroke="none" stroke-width="1" fill="none" fill-rule="evenodd">
        <g id="Desktop---Inicio" transform="translate(-101.000000, -3280.000000)">
            <g id="grid" transform="translate(68.000000, 2970.000000)">
                <g id="identidad-/-bilbao-/-blanco" transform="translate(33.000000, 309.000000)">
                    <g>
                        <polygon id="Fill-1" fill="#FFFFFF" points="32.7 31.2 36.5 31.2 36.5 16.5 32.7 16.5"></polygon>
                        <polygon id="Fill-2" fill="#FFFFFF" points="32.7 14.7 36.5 14.7 36.5 11.5 32.7 11.5"></polygon>
                        <polygon id="Fill-3" fill="#FFFFFF" points="39.6 31.301 43.4 31.301 43.4 11.7 39.6 11.7"></polygon>
                        <g id="Group-17" transform="translate(0.000000, 0.800000)">
                            <path d="M53.8004,26.6996 C53.4994,27.5006 52.9994,27.8996 52.1994,27.8996 C51.4004,27.8996 50.8004,27.5006 50.6004,26.6996 C50.3004,25.8996 50.1994,24.6996 50.1994,23.0996 C50.1994,21.5006 50.3004,20.3006 50.6004,19.4996 C50.9004,18.6996 51.4004,18.3006 52.1994,18.3006 C52.9994,18.3006 53.4994,18.6996 53.8004,19.4996 C54.1004,20.3006 54.1994,21.5006 54.1994,23.0996 C54.1994,24.6996 53.9994,25.8996 53.8004,26.6996 M53.4004,15.3006 C52.6994,15.3006 52.1004,15.3996 51.6004,15.6996 C51.1004,15.9996 50.6004,16.3996 50.1994,16.9996 L50.1004,16.9996 L50.1004,10.8006 L46.3004,10.8006 L46.3004,30.3996 L49.9004,30.3996 L49.9004,28.8006 L49.9994,28.8006 C50.8004,30.0996 51.9004,30.8006 53.3004,30.6996 C54.8004,30.6996 55.9994,30.0996 56.6994,28.8996 C57.4994,27.8006 57.9004,25.8006 57.9004,23.0996 C57.9004,20.3996 57.4994,18.3996 56.8004,17.1996 C56.1004,15.8996 54.9004,15.3006 53.4004,15.3006" id="Fill-4" fill="#FFFFFF"></path>
                            <path d="M67.3004,26.0004 C67.3004,26.8004 66.9994,27.3994 66.4994,27.8004 C65.9994,28.1994 65.4994,28.3004 64.9994,28.3004 C64.4994,28.3004 64.1004,28.1004 63.9004,27.6994 C63.6994,27.3004 63.6004,26.8004 63.6004,26.1994 C63.6004,25.5004 63.8004,25.0004 64.1004,24.6004 C64.4004,24.1994 64.9994,23.8994 65.6994,23.8004 C65.9004,23.6994 66.1994,23.6994 66.4994,23.5004 C66.8004,23.3994 67.1004,23.1994 67.3004,23.0004 L67.3004,26.0004 Z M70.9004,27.6004 L70.9004,19.8004 C70.9004,18.8994 70.8004,18.1004 70.4994,17.5004 C70.1994,16.8004 69.6994,16.3004 68.9004,15.8994 C68.1004,15.5004 66.9994,15.3004 65.4994,15.3004 C64.4994,15.3004 63.6994,15.3994 62.9004,15.7004 C62.1004,16.0004 61.4994,16.5004 60.9994,17.1004 C60.4994,17.8004 60.3004,18.7004 60.3004,19.8004 L60.3004,20.2004 L63.6994,20.2004 L63.6994,19.8004 C63.6994,19.2004 63.9004,18.8004 64.1004,18.3994 C64.4004,18.1004 64.8004,17.8994 65.4004,17.8994 C65.9994,17.8994 66.4994,18.1004 66.8004,18.3994 C67.1004,18.7004 67.1994,19.1004 67.1994,19.7004 C67.1994,20.2004 67.1004,20.6004 66.9004,20.8004 C66.6994,21.1004 66.3004,21.3004 65.6994,21.3994 L63.6004,22.0004 C62.3004,22.3004 61.4004,22.8004 60.8004,23.5004 C60.1994,24.1994 59.9004,25.1994 59.9004,26.6004 C59.9004,27.3004 59.9994,27.8994 60.1994,28.6004 C60.4004,29.1994 60.8004,29.8004 61.3004,30.1994 C61.8004,30.6004 62.4994,30.8004 63.4004,30.8994 C64.3004,30.8994 64.9994,30.8004 65.6004,30.5004 C66.1994,30.1994 66.6994,29.6994 67.1004,29.0004 L67.1994,29.0004 C67.3004,29.5004 67.4004,30.0004 67.6994,30.5004 L71.3004,30.5004 C71.1004,30.1004 70.9994,29.6994 70.9004,29.3004 C70.9994,28.8004 70.9004,28.3004 70.9004,27.6004 Z" id="Fill-6" fill="#FFFFFF"></path>
                            <path d="M80.9,27.0004 C80.6,27.8004 80.1,28.1994 79.3,28.1994 C78.4,28.1994 77.8,27.6994 77.6,26.6994 C77.4,25.8004 77.3,24.5004 77.3,23.0004 C77.3,21.5004 77.4,20.2004 77.6,19.3004 C77.8,18.3994 78.4,17.8994 79.3,17.8004 C80.1,17.8004 80.6,18.2004 80.9,19.0004 C81.2,19.8004 81.3,21.1004 81.3,23.0004 C81.3,24.8994 81.2,26.1994 80.9,27.0004 M84.6,18.8004 C84.3,17.6004 83.7,16.8004 82.8,16.2004 C82,15.6004 80.8,15.3004 79.3,15.3994 C77.2,15.3994 75.7,16.1004 74.8,17.3994 C73.9,18.7004 73.5,20.6004 73.5,23.1994 C73.5,24.8994 73.7,26.3004 74,27.5004 C74.3,28.6994 74.9,29.5004 75.8,30.1004 C76.6,30.6994 77.8,31.0004 79.3,30.8994 C81.4,30.8994 82.9,30.1994 83.8,28.8994 C84.7,27.6004 85.1,25.6994 85.1,23.1004 C85.1,21.3994 85,19.8994 84.6,18.8004" id="Fill-8" fill="#FFFFFF"></path>
                            <g id="Group-12">
                                <mask id="mask-2" fill="white">
                                    <use xlink:href="#path-1"></use>
                                </mask>
                                <g id="Clip-11"></g>
                                <path d="M22.6002,28.0004 C22.2002,28.6994 21.7002,29.3004 21.1002,29.8004 C20.4002,30.3994 19.6002,30.8004 18.7002,31.0004 C17.8002,31.1994 16.7002,31.3994 15.4002,31.3994 L7.7002,31.3994 L7.7002,12.0004 L14.5002,12.0004 C15.9002,12.0004 17.0002,12.1004 17.7002,12.2004 C18.4002,12.3004 19.1002,12.5004 19.8002,12.8994 C20.5002,13.3004 21.0002,13.8004 21.3002,14.3994 C21.6002,15.0004 21.8002,15.7004 21.8002,16.6004 C21.8002,17.5004 21.6002,18.3994 21.1002,19.1004 C20.6002,19.8004 20.0002,20.3994 19.2002,20.7004 L19.2002,20.8004 C20.4002,21.1004 21.4002,21.6004 22.1002,22.3004 C22.8002,23.1004 23.2002,24.1004 23.2002,25.3994 C23.2002,26.3994 23.0002,27.3004 22.6002,28.0004 M14.8002,0.2004 C6.6002,0.2004 0.0002,9.1004 0.0002,20.1004 C0.0002,31.1004 6.6002,40.0004 14.8002,40.0004 C23.0002,40.0004 29.6002,31.1004 29.6002,20.1004 C29.6002,9.1004 23.0002,0.2004 14.8002,0.2004" id="Fill-10" fill="#FFFFFF" mask="url(#mask-2)"></path>
                            </g>
                            <path d="M16.6998,23.1996 C16.3998,23.0996 15.9998,23.0006 15.4998,23.0006 L13.3998,23.0006 L12.4998,23.0006 L12.4998,27.8006 L12.7998,27.8006 L15.3998,27.8006 C15.8998,27.8006 16.3998,27.6996 16.8998,27.5006 C17.2998,27.3006 17.6998,27.0006 17.8998,26.6996 C18.0998,26.3006 18.1998,25.8996 18.1998,25.3996 C18.1998,24.8006 18.0998,24.3006 17.7998,24.0006 C17.5998,23.5996 17.1998,23.3996 16.6998,23.1996" id="Fill-13" fill="#FFFFFF"></path>
                            <path d="M14.9,19.7001 C15.2,19.7001 15.6,19.6001 15.9,19.4001 C16.3,19.2001 16.6,19.0001 16.7,18.6001 C16.8,18.2001 16.9,17.9001 16.9,17.5001 C16.9,17.2001 16.8,16.9001 16.7,16.5001 C16.5,16.2001 16.3,15.9001 16,15.8001 C15.7,15.7001 15.3,15.6001 14.9,15.6001 L13,15.6001 L12.7,15.6001 L12.7,19.7001 L13.3,19.7001 L14.9,19.7001 Z" id="Fill-15" fill="#FFFFFF"></path>
                        </g>
                    </g>
                </g>
            </g>
        </g>
    </g>
</svg>