<?xml version="1.0" encoding="UTF-8"?>
<svg width="116px" height="29px" viewBox="0 0 116 29" version="1.1" xmlns="http://www.w3.org/2000/svg" xmlns:xlink="http://www.w3.org/1999/xlink">
    <!-- Generator: Sketch 52.6 (67491) - http://www.bohemiancoding.com/sketch -->
    <title>identidad / bankia / blanco</title>
    <desc>Created with Sketch.</desc>
    <defs>
        <polygon id="path-1" points="0 0.1 23.0999 0.1 23.0999 29 0 29"></polygon>
        <polygon id="path-3" points="0 29.9 115.7 29.9 115.7 1 0 1"></polygon>
    </defs>
    <g id="Desktop" stroke="none" stroke-width="1" fill="none" fill-rule="evenodd">
        <g id="Desktop---Inicio" transform="translate(-278.000000, -2986.000000)">
            <g id="grid" transform="translate(68.000000, 2970.000000)">
                <g id="identidad-/-bankia-/-blanco" transform="translate(210.000000, 15.000000)">
                    <g>
                        <g id="Group-3" transform="translate(0.000000, 0.900000)">
                            <mask id="mask-2" fill="white">
                                <use xlink:href="#path-1"></use>
                            </mask>
                            <g id="Clip-2"></g>
                            <path d="M11.2999,24.9 C8.9999,24.9 6.7999,24.4 4.9999,23.4 L4.9999,4.7 C6.2999,4.3 7.4999,4.2 8.5999,4.2 C12.2999,4.2 13.6999,6.2 13.6999,8.3 C13.6999,10.1 12.5999,12 10.2999,13.8 C15.8999,14.1 18.1999,16.2 18.1999,19.6 C18.0999,22.9 15.8999,24.9 11.2999,24.9 M16.5999,11.5 C17.7999,10.2 18.2999,8.9 18.2999,7.3 C18.2999,3.1 14.6999,0.1 8.4999,0.1 C5.9999,0.1 2.6999,0.6 -0.0001,1.4 L-0.0001,28.8 L3.7999,27.2 C5.8999,28.3 8.8999,29 11.4999,29 C19.1999,29 23.0999,25.4 23.0999,19.9 C23.0999,15.6 20.6999,12.4 16.5999,11.5" id="Fill-1" fill="#FFFFFF" mask="url(#mask-2)"></path>
                        </g>
                        <path d="M39.6998,24.5002 C37.9998,25.6002 36.1998,26.0002 34.5998,26.0002 C31.7998,26.0002 30.0998,24.7002 30.0998,22.8002 C30.0998,20.3992 31.8998,18.3992 39.7998,17.6002 L39.7998,24.5002 L39.6998,24.5002 Z M35.4998,5.5002 C32.7998,5.5002 29.6998,6.2002 26.6998,7.7002 L27.7998,11.6002 C30.4998,10.2002 32.9998,9.5002 34.8998,9.5002 C38.0998,9.5002 39.5998,10.8002 39.6998,13.8002 C33.4998,14.3002 29.4998,15.7002 27.2998,17.8002 C25.7998,19.2002 25.1998,21.0002 25.1998,23.1002 C25.1998,26.5002 27.8998,29.8002 33.9998,29.8002 C36.2998,29.8002 38.5998,29.3002 40.5998,28.0002 L44.4998,29.6002 L44.4998,13.5002 C44.3998,8.5002 41.3998,5.5002 35.4998,5.5002 Z" id="Fill-4" fill="#FFFFFF"></path>
                        <mask id="mask-4" fill="white">
                            <use xlink:href="#path-3"></use>
                        </mask>
                        <g id="Clip-7"></g>
                        <polygon id="Fill-6" fill="#FFFFFF" mask="url(#mask-4)" points="88.4 29.3 93.1 29.3 93.1 5.9 88.4 5.9"></polygon>
                        <path d="M110.9,24.5002 C109.2,25.6002 107.4,26.0002 105.8,26.0002 C103,26.0002 101.3,24.7002 101.3,22.8002 C101.3,20.3992 103.1,18.3992 111,17.6002 L111,24.5002 L110.9,24.5002 Z M106.7,5.5002 C104,5.5002 100.9,6.2002 97.9,7.7002 L99,11.6002 C101.7,10.2002 104.2,9.5002 106.1,9.5002 C109.3,9.5002 110.8,10.8002 110.9,13.8002 C104.7,14.3002 100.7,15.7002 98.5,17.8002 C97,19.2002 96.4,21.0002 96.4,23.1002 C96.4,26.5002 99.1,29.8002 105.2,29.8002 C107.5,29.8002 109.8,29.3002 111.8,28.0002 L115.7,29.6002 L115.7,13.5002 C115.5,8.5002 112.6,5.5002 106.7,5.5002 Z" id="Fill-8" fill="#FFFFFF" mask="url(#mask-4)"></path>
                        <path d="M60.6002,5.5002 C58.2002,5.5002 55.6002,6.1002 53.0002,7.6002 L49.1002,5.7002 L49.1002,29.3992 L53.8002,29.3992 L53.8002,11.6002 C55.8002,10.4002 57.7002,9.9002 59.4002,9.9002 C60.8002,9.9002 61.9992,10.3002 62.6002,10.9002 C63.3002,11.6002 63.7002,12.7002 63.7002,14.6002 L63.7002,29.3992 L68.4002,29.3992 L68.4002,13.4002 C68.4002,10.8002 67.7002,9.0002 66.4992,7.7002 C65.2002,6.3002 63.1002,5.5002 60.6002,5.5002" id="Fill-9" fill="#FFFFFF" mask="url(#mask-4)"></path>
                        <polygon id="Fill-10" fill="#FFFFFF" mask="url(#mask-4)" points="79.4996 5.9001 69.4996 17.7001 79.3006 29.4001 85.3006 29.4001 75.3996 17.6001 85.3996 5.9001"></polygon>
                    </g>
                </g>
            </g>
        </g>
    </g>
</svg>