<svg xmlns="http://www.w3.org/2000/svg" width="74.542" height="19.089" viewBox="0 0 74.542 19.089">
  <path id="Fill-1" d="M67.8,19.089a6.421,6.421,0,0,1-4.3-1.361,3.994,3.994,0,0,1-1.38-3.038,4.563,4.563,0,0,1,1.385-3.5c1.462-1.418,4.071-2.283,7.979-2.647-.036-1.958-1.02-2.871-3.1-2.871a9.682,9.682,0,0,0-4.59,1.38l-.656-2.61a12.6,12.6,0,0,1,5.683-1.454,6.055,6.055,0,0,1,4.295,1.384A5.1,5.1,0,0,1,74.543,8.24V18.977l-2.478-1.044A7.845,7.845,0,0,1,67.8,19.089ZM71.519,11c-5.523.606-6.231,2.151-6.231,3.43a1.771,1.771,0,0,0,.5,1.315,3.327,3.327,0,0,0,2.411.81,5.929,5.929,0,0,0,3.316-1.006V11ZM21.9,19.089a6.35,6.35,0,0,1-4.285-1.361A4.006,4.006,0,0,1,16.25,14.69a4.562,4.562,0,0,1,1.384-3.5C19.1,9.768,21.705,8.9,25.612,8.538c-.036-1.958-1.02-2.871-3.1-2.871a9.653,9.653,0,0,0-4.59,1.38l-.692-2.61a12.572,12.572,0,0,1,5.684-1.454,6.053,6.053,0,0,1,4.294,1.384A5.1,5.1,0,0,1,28.636,8.24V18.977l-2.477-1.044A7.742,7.742,0,0,1,21.9,19.089ZM25.612,11c-5.522.606-6.23,2.151-6.23,3.43s1.144,2.125,2.915,2.125a5.924,5.924,0,0,0,3.315-1.006V11ZM7.4,19.089a11.1,11.1,0,0,1-4.955-1.156L0,18.977V.895A20.176,20.176,0,0,1,5.465,0C9.316,0,11.8,1.859,11.8,4.735a3.944,3.944,0,0,1-1.094,2.8A5.309,5.309,0,0,1,13.8,9.489a6.048,6.048,0,0,1,1.1,3.635,5.412,5.412,0,0,1-1.895,4.339A8.624,8.624,0,0,1,7.4,19.089ZM5.465,2.647a8.1,8.1,0,0,0-2.332.373V15.4H3.17A8.591,8.591,0,0,0,7.25,16.405c2.819,0,4.372-1.271,4.372-3.579a3.207,3.207,0,0,0-1.18-2.689A6.847,6.847,0,0,0,6.558,8.986,4.764,4.764,0,0,0,8.744,5.369C8.744,3.362,7.05,2.647,5.465,2.647ZM34.757,18.755H31.733V3.132L34.174,4.4a9.935,9.935,0,0,1,4.918-1.38,5.266,5.266,0,0,1,3.826,1.417,5.206,5.206,0,0,1,1.238,3.728V18.753H41.133V8.986a3.215,3.215,0,0,0-.692-2.424,2.969,2.969,0,0,0-2.076-.67A6.981,6.981,0,0,0,34.757,7.01V18.754Zm25.249,0H56.982V3.281h3.024V18.753Zm-5.028,0H51.152l-6.376-7.718,6.485-7.717h3.826L48.6,10.961l6.375,7.791Z" fill="#d6d4d3"/>
</svg>
