<?xml version="1.0" encoding="UTF-8"?>
<svg width="119px" height="26px" viewBox="0 0 119 26" version="1.1" xmlns="http://www.w3.org/2000/svg" xmlns:xlink="http://www.w3.org/1999/xlink">
    <!-- Generator: Sketch 52.6 (67491) - http://www.bohemiancoding.com/sketch -->
    <title>identidad / bbk / blanco</title>
    <desc>Created with Sketch.</desc>
    <defs>
        <polygon id="path-1" points="0 0.2 29.1032582 0.2 29.1032582 25.9999472 0 25.9999472"></polygon>
        <polygon id="path-3" points="0.1 0.2 29.2033582 0.2 29.2033582 25.9999472 0.1 25.9999472"></polygon>
        <polygon id="path-5" points="0.5002 0.2 29.5002 0.2 29.5002 25.9994 0.5002 25.9994"></polygon>
        <polygon id="path-7" points="0 26.8003 118.6 26.8003 118.6 1.0003 0 1.0003"></polygon>
    </defs>
    <g id="Desktop" stroke="none" stroke-width="1" fill="none" fill-rule="evenodd">
        <g id="Desktop---Inicio" transform="translate(-469.000000, -3288.000000)">
            <g id="grid" transform="translate(68.000000, 2970.000000)">
                <g id="identidad-/-bbk-/-blanco" transform="translate(401.000000, 317.000000)">
                    <g>
                        <g id="Group-3" transform="translate(0.000000, 0.800300)">
                            <mask id="mask-2" fill="white">
                                <use xlink:href="#path-1"></use>
                            </mask>
                            <g id="Clip-2"></g>
                            <path d="M18.6999,19.4996 L7.2999,19.4996 L7.2999,12.7996 L18.6999,12.7996 C18.6999,12.7996 21.8999,12.8996 21.8999,15.7996 C21.8999,19.4996 18.6999,19.4996 18.6999,19.4996 M20.1999,6.9996 L7.4999,6.9996 L7.4999,0.1996 L-0.0001,0.1996 L-0.0001,25.8996 L20.4999,25.9996 C20.4999,25.9996 29.2999,26.1996 29.0999,16.9996 C28.9999,6.8996 20.1999,6.9996 20.1999,6.9996" id="Fill-1" fill="#FFFFFF" mask="url(#mask-2)"></path>
                        </g>
                        <g id="Group-6" transform="translate(35.000000, 0.800300)">
                            <mask id="mask-4" fill="white">
                                <use xlink:href="#path-3"></use>
                            </mask>
                            <g id="Clip-5"></g>
                            <path d="M18.8,19.4996 L7.3,19.4996 L7.3,12.7996 L18.7,12.7996 C18.7,12.7996 21.9,12.8996 21.9,15.7996 C21.9,19.4996 18.8,19.4996 18.8,19.4996 M20.3,6.9996 L7.6,6.9996 L7.6,0.1996 L0.1,0.1996 L0.1,25.8996 L20.6,25.9996 C20.6,25.9996 29.4,26.1996 29.2,16.9996 C29.1,6.8996 20.3,6.9996 20.3,6.9996" id="Fill-4" fill="#FFFFFF" mask="url(#mask-4)"></path>
                        </g>
                        <g id="Group-9" transform="translate(70.000000, 0.800300)">
                            <mask id="mask-6" fill="white">
                                <use xlink:href="#path-5"></use>
                            </mask>
                            <g id="Clip-8"></g>
                            <polygon id="Fill-7" fill="#FFFFFF" mask="url(#mask-6)" points="28.0002 6.7994 16.8992 6.7994 7.8002 13.0994 7.8002 0.1994 0.5002 0.1994 0.5002 25.9994 7.6002 25.9994 7.6002 21.4994 14.3002 16.6994 20.8992 25.9994 29.5002 25.9004 20.2002 12.7994"></polygon>
                        </g>
                        <mask id="mask-8" fill="white">
                            <use xlink:href="#path-7"></use>
                        </mask>
                        <g id="Clip-11"></g>
                        <polygon id="Fill-10" fill="#FFFFFF" mask="url(#mask-8)" points="106 5.8003 118.6 5.8003 118.6 1.2003 106 1.2003"></polygon>
                        <polygon id="Fill-12" fill="#FFFFFF" mask="url(#mask-8)" points="106 14.3003 118.6 14.3003 118.6 9.7003 106 9.7003"></polygon>
                    </g>
                </g>
            </g>
        </g>
    </g>
</svg>