<?xml version="1.0" encoding="UTF-8"?>
<svg width="87px" height="30px" viewBox="0 0 87 30" version="1.1" xmlns="http://www.w3.org/2000/svg" xmlns:xlink="http://www.w3.org/1999/xlink">
    <!-- Generator: Sketch 52.6 (67491) - http://www.bohemiancoding.com/sketch -->
    <title>identidad / caf / blanco</title>
    <desc>Created with Sketch.</desc>
    <defs>
        <polygon id="path-1" points="0 8.33333333e-05 86.5691347 8.33333333e-05 86.5691347 29.5 0 29.5"></polygon>
    </defs>
    <g id="Desktop" stroke="none" stroke-width="1" fill="none" fill-rule="evenodd">
        <g id="Desktop---Inicio" transform="translate(-101.000000, -3185.000000)">
            <g id="grid" transform="translate(68.000000, 2970.000000)">
                <g id="identidad-/-caf-/-blanco" transform="translate(33.000000, 215.000000)">
                    <g>
                        <mask id="mask-2" fill="white">
                            <use xlink:href="#path-1"></use>
                        </mask>
                        <g id="Clip-2"></g>
                        <path d="M51.3384416,15.0834167 L46.5146792,15.0834167 L51.4254416,7.08341667 L51.3384416,15.0834167 Z M86.5691347,7.58341667 L86.5691347,8.33333333e-05 L65.292897,8.33333333e-05 L65.292897,15.0834167 L60.2107188,15.0834167 L60.2107188,8.33333333e-05 L45.0503228,8.33333333e-05 L36.2641842,15.0834167 L12.2315109,15.0834167 C11.7146792,15.0834167 11.1978475,15.0000833 10.7671545,14.8334167 C9.30279802,14.2500833 8.35527327,12.91675 8.35527327,11.3334167 C8.35527327,9.25008333 10.0780455,7.58341667 12.2315109,7.58341667 L38.5899267,7.58341667 L38.5899267,8.33333333e-05 L11.7146792,8.33333333e-05 C5.25428317,8.33333333e-05 -0.000172277228,5.08341667 -0.000172277228,11.3334167 C-0.000172277228,17.5834167 5.25428317,22.66675 11.7146792,22.66675 L32.1295307,22.66675 L27.9948772,29.5000833 L38.5037881,29.5000833 L42.2938871,22.66675 L51.682996,22.66675 L51.682996,29.5000833 L60.2107188,29.5000833 L60.2107188,22.66675 L65.292897,22.66675 L65.292897,29.5000833 L73.4760653,29.5000833 L73.3907881,22.66675 L84.0711149,22.66675 L84.0711149,15.0834167 L73.3907881,15.0834167 L73.3907881,7.58341667 L86.5691347,7.58341667 Z" id="Fill-1" fill="#FFFFFF" mask="url(#mask-2)"></path>
                    </g>
                </g>
            </g>
        </g>
    </g>
</svg>