<?xml version="1.0" encoding="UTF-8"?>
<svg width="72px" height="51px" viewBox="0 0 72 51" version="1.1" xmlns="http://www.w3.org/2000/svg" xmlns:xlink="http://www.w3.org/1999/xlink">
    <!-- Generator: Sketch 52.6 (67491) - http://www.bohemiancoding.com/sketch -->
    <title>identidad / caja rural / blanco</title>
    <desc>Created with Sketch.</desc>
    <defs>
        <polygon id="path-1" points="0.6001 0.8004 5.0001 0.8004 5.0001 10 0.6001 10"></polygon>
        <polygon id="path-3" points="0 0.3002 15.6998 0.3002 15.6998 9.0002 0 9.0002"></polygon>
        <polygon id="path-5" points="0.1004 0.8 32.4 0.8 32.4 9.8 0.1004 9.8"></polygon>
    </defs>
    <g id="Desktop" stroke="none" stroke-width="1" fill="none" fill-rule="evenodd">
        <g id="Desktop---Inicio" transform="translate(-492.000000, -3074.000000)">
            <g id="grid" transform="translate(68.000000, 2970.000000)">
                <g id="identidad-/-caja-rural-/-blanco" transform="translate(424.000000, 104.000000)">
                    <g>
                        <path d="M49.8004,17.8 L51.8004,15.8 L54.4994,15.8 L52.6004,17.8 L49.8004,17.8 Z M48.6004,21.8 L45.8004,21.8 L47.9004,19.7 L50.6004,19.7 L48.6004,21.8 Z M42.6994,27.6 C41.8004,28.5 40.9004,29.6 39.9994,30.8 C39.9994,30.8 39.6004,29.6 39.1004,28.6 C39.4004,28.2 39.6004,27.9 39.9994,27.6 L43.6994,23.9 L46.4004,23.9 L42.6994,27.6 Z M37.9994,26.8 C37.9994,26.8 37.4994,25.7 36.8004,25 L41.9994,19.9 L41.9994,22.7 L37.9994,26.8 Z M36.8004,17.5 L38.6994,15.5 L38.6994,20.8 L36.8004,22.7 L36.8004,17.5 Z M36.8004,12.1 L38.6994,10.1 L38.6994,12.9 L36.8004,14.9 L36.8004,12.1 Z M38.6994,4.4 L38.6004,7.4 L36.6994,9.4 L36.6994,6.4 L38.6994,4.4 Z M44.1994,17.9 L46.1994,15.9 L46.1994,18.7 L44.1994,20.6 L44.1994,17.9 Z M50.3004,11.8 L50.3004,14.6 L48.1994,16.6 L48.1994,13.9 L50.3004,11.8 Z M34.8004,9.3 L32.8004,7.3 L32.8004,4.5 L34.8004,6.4 L34.8004,9.3 Z M34.8004,14.8 L32.8004,12.8 L32.8004,9.9 L34.8004,11.8 L34.8004,14.8 Z M34.8004,22.7 L32.8004,20.7 L32.8004,15.6 L34.8004,17.5 L34.8004,22.7 Z M27.1994,20.5 L25.1994,18.6 L25.1994,15.8 L27.1994,17.8 L27.1994,20.5 Z M22.8004,21.8 L20.8004,19.6 L23.5004,19.6 L25.6004,21.8 L22.8004,21.8 Z M16.9004,15.7 L19.6004,15.7 L21.6004,17.7 L18.8004,17.7 L16.9004,15.7 Z M21.1004,11.8 L23.1994,13.9 L23.1994,16.5 L21.1004,14.5 L21.1004,11.8 Z M51.9994,14.3 L51.9994,7.7 L40.6994,19 L40.6994,0 L35.6994,4.6 L30.8004,0.1 L30.8004,19.1 L19.4004,7.6 L19.4004,14.2 L12.5004,14.2 L26.3004,28 C28.4004,30.2 30.8004,32.6 30.8004,36.8 L33.1004,36.8 C33.1004,32.6 30.8004,29.8 28.6994,27.6 L25.0004,23.9 L27.6994,23.9 L31.4004,27.6 C33.4994,29.8 34.9004,32.6 34.9004,36.8 L36.9004,36.8 C36.9004,32.6 34.9004,28.6 32.9004,26.4 L29.1994,22.7 L29.1994,19.9 L34.6994,25.3 C36.8004,27.5 38.8004,32.6 38.8004,36.9 L40.8004,36.9 C40.8004,32.7 42.9994,30.3 44.9994,28.1 L58.8004,14.4 L51.9994,14.4 L51.9994,14.3 Z" id="Fill-1" fill="#FFFFFF"></path>
                        <g id="Group-5" transform="translate(15.000000, 40.200000)">
                            <mask id="mask-2" fill="white">
                                <use xlink:href="#path-1"></use>
                            </mask>
                            <g id="Clip-4"></g>
                            <path d="M4.5001,2.0004 L5.0001,2.0004 L5.0001,0.8004 L0.9001,0.8004 L0.9001,1.8994 L1.4001,2.1004 C1.9001,2.3004 1.9001,2.8994 1.9001,2.8994 L1.9001,7.1004 C1.9001,8.8994 0.6001,9.1004 0.6001,9.1004 L0.6001,10.0004 C3.9001,9.6994 4.0001,7.0004 4.0001,6.6004 L4.0001,2.8004 C4.0001,2.6994 3.9001,2.0004 4.5001,2.0004" id="Fill-3" fill="#FFFFFF" mask="url(#mask-2)"></path>
                        </g>
                        <g id="Group-8" transform="translate(0.000000, 40.200000)">
                            <mask id="mask-4" fill="white">
                                <use xlink:href="#path-3"></use>
                            </mask>
                            <g id="Clip-7"></g>
                            <path d="M11.6998,7.8002 L11.1998,7.8002 L11.1998,9.0002 L15.6998,9.0002 L15.6998,7.8002 L15.1998,7.8002 C14.6998,7.8002 14.3998,7.3002 14.3998,7.3002 L12.1998,0.6002 L8.5998,0.6002 L8.5998,1.8002 L9.0998,1.8002 C9.5998,1.8002 9.4998,2.4002 9.2998,2.6002 L7.6998,7.0002 C7.0998,7.1992 5.7998,7.6002 4.6998,7.6002 C3.0998,7.6002 2.3998,6.4002 2.3998,5.0002 C2.3998,4.8002 2.2998,3.6992 2.6998,2.9002 C2.9998,2.1002 3.1998,2.0002 4.1998,1.9002 C4.6998,1.8002 5.1998,1.9002 5.3998,2.1002 C5.8998,2.5002 5.6998,3.3002 5.6998,3.3002 L7.0998,3.3002 L7.0998,0.5002 C7.0998,0.5002 5.9998,0.3002 5.4998,0.3002 C2.9998,0.3002 -0.0002,1.3002 -0.0002,4.8002 C-0.0002,9.0002 3.6998,9.0002 4.1998,9.0002 C4.8998,9.0002 5.5998,8.9002 6.1998,8.8002 L6.1998,9.0002 L10.1998,9.0002 L9.9998,7.8002 C9.9998,7.8002 9.0998,7.9002 9.0998,7.3002 C9.0998,7.0002 9.1998,6.8002 9.1998,6.8002 L10.5998,2.9002 L11.2998,5.1992 L9.9998,5.1992 L10.3998,6.4002 L11.7998,6.4002 L11.9998,7.3002 C12.0998,7.1992 12.1998,7.8002 11.6998,7.8002" id="Fill-6" fill="#FFFFFF" mask="url(#mask-4)"></path>
                        </g>
                        <path d="M38.9,47.7004 C38.7,47.5004 38,45.7004 37.7,45.3994 C37.5,45.2004 37.2,44.8994 37,44.8994 C37,44.8994 38.9,44.7004 38.9,42.8004 C38.9,41.0004 36.9,40.8004 36.6,40.8004 C36.2,40.8004 33.8,41.0004 33.2,41.0004 L31.6,41.0004 L31.6,42.2004 L32,42.2004 C32.2,42.2004 32.6,42.3004 32.6,43.0994 L32.6,47.5004 C32.6,48.5994 31.6,48.3994 31.6,48.3994 L31.6,49.5004 L35.8,49.5004 L35.8,48.3004 C35.8,48.3004 34.7,48.3994 34.7,47.3994 L34.7,43.2004 C34.7,42.7004 35,42.0004 35.6,42.0004 C36.2,42.0004 36.7,42.3994 36.7,42.8994 C36.7,43.5004 36.5,44.0994 35.8,44.0994 L34.9,44.0994 L37.3,49.3004 L40,49.3004 L40,48.0994 L39.5,48.0994 C39.3,48.2004 39.1,48.0004 38.9,47.7004" id="Fill-9" fill="#FFFFFF"></path>
                        <g id="Group-13" transform="translate(39.000000, 40.200000)">
                            <mask id="mask-6" fill="white">
                                <use xlink:href="#path-5"></use>
                            </mask>
                            <g id="Clip-12"></g>
                            <path d="M30.8004,7.1 C30.8004,7.1 30.8004,8 29.8004,8 C28.6994,8 27.9994,8.2 27.9994,7.3 L27.9994,2.7 C27.9994,2.7 27.9004,2 28.4994,2 L28.9994,2 L28.9994,0.8 L24.8004,0.8 L24.8004,2 L25.3004,2.1 C25.8004,2.3 25.8004,2.9 25.8004,2.9 L25.8004,7.3 C25.8004,7.8 25.6994,8 25.6004,8 L24.9994,8 C24.4994,8 24.1994,7.5 24.1994,7.5 L22.1004,0.8 L18.4004,0.8 L18.4004,2 L18.9004,2 C19.4004,2 19.3004,2.6 19.1994,2.9 L17.4004,7.7 C17.4004,7.7 17.1994,8.1 16.8004,8.1 L16.4004,8.1 C16.1994,8 16.1004,7.9 15.9994,7.7 C15.8004,7.5 15.1004,5.7 14.8004,5.4 C14.6004,5.2 14.3004,4.9 14.1004,4.9 C14.1004,4.9 16.1004,4.7 16.1004,2.8 C16.1004,1 14.1004,0.8 13.6994,0.8 C13.3004,0.8 10.9004,1 10.3004,1 L8.6994,1 L5.4004,1 L5.4004,2.2 C5.9994,2.2 6.4004,2.8 6.4004,3.4 L6.4004,6.1 C6.4004,6.7 6.1994,8.1 4.9004,8.1 C3.6004,8.1 3.1994,7.4 3.1994,6.5 L3.1994,3.4 C3.1994,2.2 4.1994,2.2 4.1994,2.2 L4.1994,1 L0.1004,1 L0.1004,2.2 C1.1994,2.2 0.9994,2.9 0.9994,3.3 L0.9994,6.4 C0.9994,7.6 1.3004,9.8 4.4004,9.8 C7.4004,9.8 7.6004,7.5 7.6004,6.8 L7.6004,3.1 C7.6004,2.3 8.4994,2.3 8.4994,2.3 L8.9004,2.3 C9.1004,2.3 9.4994,2.4 9.4994,3.2 L9.4994,7.6 C9.4994,8.7 8.4994,8.5 8.4994,8.5 L8.4994,9.3 L12.6994,9.3 L12.6994,8.1 C12.6994,8.1 11.6004,8.2 11.6004,7.2 L11.6004,3 C11.6004,2.5 11.9004,1.8 12.4994,1.8 C13.1004,1.8 13.6004,2.2 13.6004,2.7 C13.6004,3.3 13.4004,3.9 12.6994,3.9 L11.8004,3.9 L14.1994,9.1 L19.6994,9.2 L19.6004,8 C19.6004,8 18.6994,8 18.6994,7.4 L18.6994,6.9 L20.1004,3 L21.4004,5.3 L19.9994,5.3 L20.4004,6.6 L21.8004,6.6 L21.9994,7.4 C21.9994,7.4 22.1994,7.9 21.6994,7.9 L21.1004,7.9 L21.1004,9.3 L24.9994,9.3 L25.6994,9.3 L32.4004,9.3 L32.4004,6.5 L30.8004,6.5 L30.8004,7.1 Z" id="Fill-11" fill="#FFFFFF" mask="url(#mask-6)"></path>
                        </g>
                        <path d="M27.1998,47.7004 L24.9998,41.0004 L21.3998,41.0004 L21.3998,42.2004 L21.8998,42.2004 C22.3998,42.2004 22.2998,42.8004 22.1998,43.0994 L20.3998,47.7004 C20.3998,47.7004 20.1998,48.0994 19.8998,48.0994 L19.1998,48.0994 L19.1998,49.5004 L23.0998,49.5004 L22.9998,48.3004 C22.9998,48.3004 22.0998,48.3004 22.0998,47.7004 C22.0998,47.3994 22.1998,47.2004 22.1998,47.2004 L23.5998,43.3004 L24.2998,45.5994 L22.9998,45.5994 L23.3998,46.8994 L24.6998,46.8994 L24.9998,47.7004 C24.9998,47.7004 25.0998,48.2004 24.5998,48.2004 L23.9998,48.2004 L23.9998,49.5004 L28.5998,49.5004 L28.5998,48.3004 L27.9998,48.3004 C27.3998,48.2004 27.1998,47.7004 27.1998,47.7004" id="Fill-14" fill="#FFFFFF"></path>
                    </g>
                </g>
            </g>
        </g>
    </g>
</svg>