<svg id="logo-Iberia" xmlns="http://www.w3.org/2000/svg" width="106.8" height="23" viewBox="0 0 106.8 23">
  <path id="Fill-3" d="M4.9,10.6,0,16H0c16.8,0,20.8-4.4,23.1-10.4L25,0C19.4.2,10.9,3.9,4.9,10.6" transform="translate(79 7)" fill="#d6d4d3"/>
  <path id="Fill-6" d="M5.5,4.7,0,10.9C5.2,6.8,10.3,4.3,15.5,3.6L16.8,0C9.2,0,8.1,1.8,5.5,4.7" transform="translate(90)" fill="#d6d4d3"/>
  <path id="Fill-1" d="M23.9,5H22.5c.343-.914.744-1.9,1.1-2.7.134-.268.251-.509.364-.742A13.187,13.187,0,0,1,24.8,0V.1H26a15.96,15.96,0,0,1,1.2,2.3A13.67,13.67,0,0,1,28,4.246c.1.272.2.528.295.753H26.9l-.3-.9H24.2l-.3.9Zm1.6-3.9h0c-.1.225-.193.44-.278.63l-.012.026c-.193.432-.375.84-.51,1.244h1.7c-.3-.7-.6-1.3-.865-1.837ZM15.8,5H14.4a21.891,21.891,0,0,1-.1-2.5A20.953,20.953,0,0,1,14.4,0h3a2.021,2.021,0,0,1,1.5.5,1.687,1.687,0,0,1,.3,1,1.41,1.41,0,0,1-.9,1.4,2.113,2.113,0,0,0,.235.34l.011.015.014.018.006.007c.073.094.155.2.235.32.291.486.491.882.683,1.265l.006.012L19.5,4.9H18a3.321,3.321,0,0,0-.379-.966c-.045-.082-.084-.159-.122-.234a3.556,3.556,0,0,0-.4-.5H15.7v.015A10.71,10.71,0,0,0,15.8,5ZM15.7.9V2.1h1.8a.606.606,0,0,0,.3-.6c0-.2,0-.3-.1-.4a1.281,1.281,0,0,0-.8-.2ZM13.1,5H8.9a20.953,20.953,0,0,1-.1-2.5A20.953,20.953,0,0,1,8.9,0h4.3a3.771,3.771,0,0,0-.1,1h-3V2h2.7V3H10.1V4H13a3.743,3.743,0,0,1,.1,1ZM5.5,5H2.9a21.891,21.891,0,0,1-.1-2.5A20.092,20.092,0,0,1,2.9,0H5.3A2.575,2.575,0,0,1,7.1.4a1.231,1.231,0,0,1,.3.9,1.237,1.237,0,0,1-.5,1,1.3,1.3,0,0,1,.8,1.2,1.234,1.234,0,0,1-.4,1.1C7.019,4.881,6.481,5,5.5,5ZM4.2,2.9A4.5,4.5,0,0,0,4.3,4H5.8a.824.824,0,0,0,.6-.2c.1-.1.1-.2.1-.4s0-.3-.1-.4a.753.753,0,0,0-.5-.1Zm0-2V2H6.1a.76.76,0,0,0,.2-.5c0-.2,0-.3-.1-.4C6,.9,5.9.9,5.4.9Zm17.5,4H20.5a19.379,19.379,0,0,1-.1-2.4A19.432,19.432,0,0,1,20.5,0h1.2a19.432,19.432,0,0,1,.1,2.5,19.368,19.368,0,0,1-.1,2.4ZM1.3,4.9H.1A19.378,19.378,0,0,1,0,2.5,19.432,19.432,0,0,1,.1,0H1.3a19.26,19.26,0,0,1,.1,2.5,19.2,19.2,0,0,1-.1,2.4Z" transform="translate(47 2)" fill="#d6d4d3"/>
  <path id="Shape" d="M8.4,0,8.2,1.3H1.8V4.8H6.7V6.2H1.8V9.9H8.1l.3,1.4H0V0Z" transform="translate(0 11)" fill="#d6d4d3"/>
  <path id="Shape-2" data-name="Shape" d="M8.3,0,8.2,1.3H1.8V4.8H6.6V6.2H1.8V9.9H8.1l.2,1.4H0V0Z" transform="translate(47 11)" fill="#d6d4d3"/>
  <path id="Shape-3" data-name="Shape" d="M0,0H2.2A49.318,49.318,0,0,0,5.6,4.4,44.12,44.12,0,0,0,9,0h2.2A48.874,48.874,0,0,1,6.8,5.5s3,3.6,4.6,5.8H9.2S6.1,7.2,5.7,6.8a32.3,32.3,0,0,0-3.6,4.5H0S3.4,6.7,4.5,5.5C4.5,5.5.4.8,0,0Z" transform="translate(9 11)" fill="#d6d4d3"/>
  <path id="Shape-4" data-name="Shape" d="M1.8,11.3H0V.005H5.6S5.677,0,5.808,0A4.529,4.529,0,0,1,8.947,1.118,3.3,3.3,0,0,1,9.8,3.605a3.465,3.465,0,0,1-.909,2.616A4.663,4.663,0,0,1,5.9,7.405H1.8v3.9Zm0-10V5.9H5.644a2.861,2.861,0,0,0,1.934-.717A2.068,2.068,0,0,0,8.1,3.605a2.383,2.383,0,0,0-2.4-2.3Z" transform="translate(22 11)" fill="#d6d4d3"/>
  <path id="Shape-5" data-name="Shape" d="M1.9,11.307H0V.005H5S5.092,0,5.243,0A4.942,4.942,0,0,1,8.671,1.171,2.887,2.887,0,0,1,9.4,3.406a3.432,3.432,0,0,1-1.8,3.1l.01.01A24.045,24.045,0,0,1,10.5,11.3H8.6a32.334,32.334,0,0,0-2.9-4.5H1.9v4.5Zm.1-10v4.1H6.226c.214,0,1.292-.1,1.474-2.1a1.719,1.719,0,0,0-.44-1.322,2.847,2.847,0,0,0-1.908-.678H2Z" transform="translate(34 11)" fill="#d6d4d3"/>
  <path id="Shape-6" data-name="Shape" d="M8.1.49l-.2,1.3S2.1.49,2,2.79c-.2,2.3,3.5,2,5.1,3,1.6,1.1,1.7,2.1,1.2,3.7s-2.7,2.9-8.3,1.4l.2-1.4s5.3,1.7,6.3-.5c1-2.3-2.3-2.5-3-2.7S-.9,5.19.4,1.69C1.5-.81,7.2.09,8.1.49Z" transform="translate(57 11)" fill="#d6d4d3"/>
  <path id="Shape-7" data-name="Shape" d="M8.1.49l-.2,1.3S2.1.49,2,2.79c-.2,2.3,3.5,2,5.1,3,1.6,1.1,1.7,2.1,1.2,3.7s-2.7,2.9-8.3,1.4l.2-1.4s5.3,1.7,6.3-.5c1-2.3-2.3-2.5-3-2.7S-.9,5.19.4,1.69C1.5-.81,7.2.09,8.1.49Z" transform="translate(67 11)" fill="#d6d4d3"/>
</svg>
