<svg xmlns="http://www.w3.org/2000/svg" width="84.042" height="22.082" viewBox="0 0 84.042 22.082">
  <path id="Combined_Shape" data-name="Combined Shape" d="M.824,22.01a2.486,2.486,0,0,1-.76-.437C.05,21.4-.041,21.231.023,21.06a3.223,3.223,0,0,1,.942-.338c1.114-.029,1.92-.021,3.009-.087a17.332,17.332,0,0,0,2.121-.517l1.165-.5a1.01,1.01,0,0,0,.482-.475c.171-.42.367-.814.513-1.259q.208-.876.418-1.752.244-.965.49-1.93L9.5,12.576q.25-.818.5-1.635l.362-.9c.161-.371.321-.742.483-1.112A13.689,13.689,0,0,0,11.3,7.155c.124-1.767-.009-3.533-.014-5.3a1.132,1.132,0,0,0-.374-.364,1.911,1.911,0,0,0-.749-.348c-.242-.005-.487,0-.733,0A12.184,12.184,0,0,1,7.994,1.1,1.991,1.991,0,0,1,8.111.12,26.812,26.812,0,0,1,11.923,0l1.116,0a2.352,2.352,0,0,1,.842.753,1.907,1.907,0,0,1,.438.848,29.827,29.827,0,0,1-.05,3.883A15.952,15.952,0,0,1,13.729,8.5c-.2.858-.381,1.639-.578,2.46-.2.886-.446,1.774-.649,2.661q-.17.845-.338,1.692l-.551,1.6q-.321.713-.642,1.426-.257.456-.51.913l-.422.618-.51.58-.484.464c-.216.183-.433.365-.648.549l-.943.514-1.425.1-2.958.008C2.463,22.056,1.418,22.084.824,22.01Zm38.5-4.072-5.7-.132a4.944,4.944,0,0,1-1.173-.3,3.645,3.645,0,0,1-.9-.4,1.747,1.747,0,0,1-.807-.659,3.577,3.577,0,0,1-.089-1.166,1.979,1.979,0,0,1,.377-.887,8.007,8.007,0,0,1,.715-1.009q.371-.6.742-1.193l.515-.8c.194-.3.389-.6.583-.9a6.681,6.681,0,0,1,.527-.921,6.572,6.572,0,0,1,.586-1.044,5.564,5.564,0,0,1,.509-.816l.572-.835q.418-.51.84-1.021c.039-.191.207-.382.117-.573a15.485,15.485,0,0,0-2.524.021,6.559,6.559,0,0,1-.838.274c-.288.076-.65.162-1.055.279a1.53,1.53,0,0,1-.73.274,1.7,1.7,0,0,1-.041-.775,4.05,4.05,0,0,1,1.339-.512c.444-.138.747-.4,1.218-.563a6.559,6.559,0,0,1,1.64-.153l3.156,0a3.318,3.318,0,0,1,1.466.156,2.6,2.6,0,0,1-.181,1.3l-.364.895q-.343.667-.684,1.335l-.951,1.438q-.753,1.153-1.5,2.306L34.1,15.251a2.3,2.3,0,0,0-.278,1.275,1.8,1.8,0,0,0,.814.472c1.112.178,2.069.178,3.1.267a19.412,19.412,0,0,1,1.949.157c.171.157.29.313.2.471a.5.5,0,0,1-.286.066A2.233,2.233,0,0,1,39.328,17.938Zm16.119-.192a1.423,1.423,0,0,1-.648-.437c-.167-.918-.2-1.861-.306-2.793q-.077-.645-.153-1.292.041-.842.08-1.682c.083-.325.166-.648.249-.972.1-.394.211-.788.316-1.181q.236-.78.473-1.56a1.539,1.539,0,0,0,.074-.937,3.257,3.257,0,0,0-1.065-.032,3.453,3.453,0,0,0-.71.448,7.135,7.135,0,0,1-1.659.023.937.937,0,0,1,0-.5,12.782,12.782,0,0,1,1.527-.4A9.152,9.152,0,0,1,54.687,5.9l1.473-.485L57.5,5.331c1.753-.008,3.506-.119,5.259-.025a.45.45,0,0,1-.014.455c-.857.141-1.713.131-2.57.274a7.644,7.644,0,0,0-1.691.343q-.074,1.3-.149,2.6-.239,2.117-.477,4.235-.039.988-.079,1.977a13.992,13.992,0,0,1,.277,2.156,1.593,1.593,0,0,1-.877.437c-.233.02-.465.03-.694.03A7.725,7.725,0,0,1,55.447,17.746Zm18.022-.941c.044-.825.165-1.649.209-2.473.212-1.09.6-2.18.908-3.271a22.473,22.473,0,0,0,.524-2.215c.281-1.614.149-3.368.445-5.045a2.3,2.3,0,0,1,1.014-.022c0,1.845-.165,3.689-.111,5.533-.08,1-.263,1.99-.394,2.984q-.031.987-.063,1.972a1.252,1.252,0,0,0,.506.613,1.867,1.867,0,0,0,.614.52c1.232.05,2.463,0,3.7,0a6.613,6.613,0,0,0,1.319-.078,9.3,9.3,0,0,1,1.881-.066.975.975,0,0,1-.014.509,8.209,8.209,0,0,1-1.039.571,10.742,10.742,0,0,1-1.2.448,3.11,3.11,0,0,1-1,.1c-2.237.142-4.539.233-6.826.273A.975.975,0,0,1,73.469,16.806Zm-26.523-.479c-.73-.007-1.681-.014-3.118-.011a5.555,5.555,0,0,1-.966-.208,4.48,4.48,0,0,1-.76-.287,1.057,1.057,0,0,1-.531-.523,4.826,4.826,0,0,1,.026-1.393q.2-.616.4-1.23l.718-1.495q.269-.539.538-1.075l.767-1.356.71-.936,1.1-1.321,1.125-1.085L48.139,4.18c.239-.3.621-.557.717-.892a21.122,21.122,0,0,0-3.238.181l-1.208.2c-.459.11-.893.411-1.378.33a.78.78,0,0,1-.056-.774,5.9,5.9,0,0,1,1.362-.45,7.177,7.177,0,0,1,1.128-.307l1.13-.086,3.156.073a3.284,3.284,0,0,1,1.327.257,1.771,1.771,0,0,1-.041,1.133q-.184.447-.366.895-.342.667-.683,1.335-.475.72-.952,1.438a18.523,18.523,0,0,0-1.618,2.055,30.137,30.137,0,0,0-2.234,3.98c-.027.457-.02.882-.047,1.339.094.174.338.222.49.339,1.049.005,1.95.045,3,.051l1.881.02a.634.634,0,0,1-.145.585.7.7,0,0,1-.331.432c-.642.02-1.113.026-1.588.026C48,16.339,47.547,16.332,46.946,16.327Zm21.164-.494-.58-.144a7.245,7.245,0,0,1-.969-.406c-.188-.162-.377-.4-.565-.6a14.379,14.379,0,0,1-1.007-1.107c-.271-.44-.463-.93-.694-1.394a5.669,5.669,0,0,1-.518-1.48,21.471,21.471,0,0,1,.009-2.753q.136-.585.272-1.169.408-.508.815-1.016L65.965,4.8,67,4.244a7.95,7.95,0,0,1,.94-.465,7.274,7.274,0,0,1,2.168-.023,1.04,1.04,0,0,1-.409.618,4,4,0,0,1-.956.364c-.266.073-.507.146-.8.219a1.556,1.556,0,0,0-.51.5c-.034,1.046-.017,2.066-.026,3.1a3.144,3.144,0,0,0,1.035,0,3.277,3.277,0,0,0,.7-.154,5.078,5.078,0,0,1,.909-.451c.076.176.216.277.279.455a.713.713,0,0,1-.318.57L68.7,9.472l-.661.344c-.175.1-.3,0-.528.289-.008.167-.015.333-.023.5.036.154.073.309.11.463q.161.27.323.538l.268.579.618.729q.456.433.914.866c.252.25.452.59.755.75a3.727,3.727,0,0,1,.768.23,1.332,1.332,0,0,1,0,.546,7.433,7.433,0,0,1-.991.423c-.319.06-.677.148-1.008.182H69.15A6.651,6.651,0,0,1,68.11,15.833Z" transform="translate(0 0)" fill="#d6d4d3"/>
</svg>
