<svg xmlns="http://www.w3.org/2000/svg" width="77.94" height="23.337" viewBox="0 0 77.94 23.337">
  <path id="Shape" d="M52.43,23.337a5.6,5.6,0,0,1-3.263-.9A3.831,3.831,0,0,1,47.6,19.328H51a1.683,1.683,0,0,0,1.854,1.308c2.184,0,2.611-1.2,2.611-3.27V16.182a3.373,3.373,0,0,1-3.254,1.839,4.368,4.368,0,0,1-3.8-2.069,8.4,8.4,0,0,1-1.192-4.55,9.366,9.366,0,0,1,1.13-4.73,4.284,4.284,0,0,1,3.826-2.217A3.511,3.511,0,0,1,55.542,6.5V4.9h2.951V17.122a11.158,11.158,0,0,1-.34,3.146,3.943,3.943,0,0,1-2.214,2.467,7.772,7.772,0,0,1-3.235.6C52.585,23.335,52.5,23.337,52.43,23.337Zm.463-15.859c-2.253.047-2.5,2.7-2.5,3.841a5.75,5.75,0,0,0,.516,2.574,2.277,2.277,0,0,0,4.053-.025,5.827,5.827,0,0,0,.5-2.631,5.452,5.452,0,0,0-.549-2.554A2.184,2.184,0,0,0,52.893,7.478ZM66.136,18.552a4.833,4.833,0,0,1-4.01-1.921,8.231,8.231,0,0,1-1.665-5.189,8.176,8.176,0,0,1,1.4-4.847A5.064,5.064,0,0,1,66.1,4.536a4.948,4.948,0,0,1,4.275,2.043,8.612,8.612,0,0,1,1.136,5.884H63.828a4.187,4.187,0,0,0,.6,2.182,2.112,2.112,0,0,0,1.854.924,2.976,2.976,0,0,0,2.573-1.758l2.534,1.634A6.178,6.178,0,0,1,66.136,18.552Zm.076-11.115a2.164,2.164,0,0,0-2.383,2.371H68.6a2.376,2.376,0,0,0-.624-1.751A2.4,2.4,0,0,0,66.211,7.437ZM25.274,18.552c-2.183,0-3.708-1.714-3.708-4.168a3.731,3.731,0,0,1,1.239-2.957,5.794,5.794,0,0,1,2.885-1.21c.222-.026.461-.068.8-.128l.167-.029.135-.023.146-.025c1.342-.207,1.967-.623,1.967-1.308,0-1.359-.895-1.471-1.892-1.471-.941,0-1.617.517-2.194,1.676l-2.46-1.594c.862-2.253,3.463-2.723,4.541-2.82a4.467,4.467,0,0,1,.463-.02,5.645,5.645,0,0,1,3.292,1.04A3.836,3.836,0,0,1,32.273,8.7v9.357H29.02l.038-1.593A4.042,4.042,0,0,1,25.274,18.552Zm3.746-6.906a6.883,6.883,0,0,1-1.741.653l-.124.03-.094.022-.01,0-.013,0-.013,0a3.8,3.8,0,0,0-1.94.841A1.657,1.657,0,0,0,26.3,15.9c1.68,0,2.724-1.143,2.724-2.984V11.646ZM5.9,18.552A5.47,5.47,0,0,1,1.49,16.524a7.981,7.981,0,0,1-1.49-5,7.955,7.955,0,0,1,1.49-5A5.406,5.406,0,0,1,5.9,4.536a5.406,5.406,0,0,1,4.413,1.992,7.955,7.955,0,0,1,1.49,5,8.029,8.029,0,0,1-1.49,5.016A5.388,5.388,0,0,1,5.9,18.552Zm0-11.074A2.342,2.342,0,0,0,3.727,8.765a5.9,5.9,0,0,0-.587,2.759,6.028,6.028,0,0,0,.572,2.763A2.342,2.342,0,0,0,5.9,15.61a2.306,2.306,0,0,0,2.156-1.323,6.079,6.079,0,0,0,.568-2.763C8.627,7.872,6.721,7.478,5.9,7.478ZM17.064,18.061h-3.1V4.945h2.913V7.192c.753-1.668,1.948-2.624,3.278-2.624a3.168,3.168,0,0,1,.544.05V8.173H19.636c-1.683,0-2.572,1.031-2.572,2.983v6.9Zm28.111-.04h-3.14V10.094c0-1.358-.22-2.615-1.816-2.615-1.47,0-2.383,1.065-2.383,2.778v7.764h-3.1V4.945H37.8V6.5a4.145,4.145,0,0,1,3.518-1.921,3.56,3.56,0,0,1,2.937,1.21,5.224,5.224,0,0,1,.923,3.326v8.908ZM74.308,4.7h-.832V0h1.362l.87,3.555L76.578,0H77.94V4.7h-.87V.9l-.908,3.8h-.946L74.308.9V4.7Zm-2.648,0h-.908V.858H69.427V0h3.519V.858H71.66V4.7Z" fill="#d6d4d3"/>
</svg>
