<?xml version="1.0" encoding="UTF-8"?>
<svg width="81px" height="48px" viewBox="0 0 81 48" version="1.1" xmlns="http://www.w3.org/2000/svg" xmlns:xlink="http://www.w3.org/1999/xlink">
    <!-- Generator: Sketch 52.6 (67491) - http://www.bohemiancoding.com/sketch -->
    <title>identidad / orona / blanco</title>
    <desc>Created with Sketch.</desc>
    <defs>
        <polygon id="path-1" points="0.7996 0.2868 2.926 0.2868 2.926 17.4868 0.7996 17.4868"></polygon>
        <polygon id="path-3" points="0.9002 0.387 3.7992 0.387 3.7992 33.8868 0.9002 33.8868"></polygon>
        <polygon id="path-5" points="0.7998 0.387 3.6998 0.387 3.6998 33.8869 0.7998 33.8869"></polygon>
        <polygon id="path-7" points="0.1004 0.387 3.1004 0.387 3.1004 13.2869 0.1004 13.2869"></polygon>
    </defs>
    <g id="Desktop" stroke="none" stroke-width="1" fill="none" fill-rule="evenodd">
        <g id="Desktop---Inicio" transform="translate(-296.000000, -3076.000000)">
            <g id="grid" transform="translate(68.000000, 2970.000000)">
                <g id="identidad-/-orona-/-blanco" transform="translate(228.000000, 105.000000)">
                    <g>
                        <path d="M40.7,8.8999 C40.7,8.8999 38.6,12.6999 38.6,16.5999 C38.1,21.7999 40.3,26.0999 40.3,26.0999 L40.7,8.8999 Z" id="Fill-1" fill="#FFFFFF"></path>
                        <g id="Group-5" transform="translate(78.000000, 8.613100)">
                            <mask id="mask-2" fill="white">
                                <use xlink:href="#path-1"></use>
                            </mask>
                            <g id="Clip-4"></g>
                            <path d="M0.7996,0.2868 L1.1006,17.4868 C1.1006,17.4868 2.9996,13.5868 2.9006,9.6868 C3.1996,4.5868 0.7996,0.2868 0.7996,0.2868" id="Fill-3" fill="#FFFFFF" mask="url(#mask-2)"></path>
                        </g>
                        <path d="M76.1004,31.4004 L77.4004,30.0004 L78.1004,7.2004 C77.4004,5.7004 75.4994,3.7004 75.4994,3.7004 L76.1004,31.4004 Z" id="Fill-6" fill="#FFFFFF"></path>
                        <path d="M43.4998,31.4004 L44.1998,3.6004 C44.1998,3.6004 42.1998,5.6004 41.6008,7.1004 L42.1998,30.0004 L43.4998,31.4004 Z" id="Fill-8" fill="#FFFFFF"></path>
                        <g id="Group-12" transform="translate(44.000000, 0.613100)">
                            <mask id="mask-4" fill="white">
                                <use xlink:href="#path-3"></use>
                            </mask>
                            <g id="Clip-11"></g>
                            <path d="M0.9002,2.2868 L1.7002,33.1868 L2.7002,33.8868 L3.7992,0.3868 L3.1002,0.3868 C3.0002,0.3868 1.6002,1.1868 0.9002,2.2868" id="Fill-10" fill="#FFFFFF" mask="url(#mask-4)"></path>
                        </g>
                        <g id="Group-15" transform="translate(71.000000, 0.613100)">
                            <mask id="mask-6" fill="white">
                                <use xlink:href="#path-5"></use>
                            </mask>
                            <g id="Clip-14"></g>
                            <path d="M1.4998,0.3869 L0.7998,0.3869 L1.8998,33.8869 L2.8998,33.1869 L3.6998,2.2869 C2.8998,1.1869 1.4998,0.3869 1.4998,0.3869" id="Fill-13" fill="#FFFFFF" mask="url(#mask-6)"></path>
                        </g>
                        <path d="M49.2,36.2998 L50,36.7998 L50.3,25.3998 C49.7,24.5998 49.1,23.6998 48.7,22.7998 L49.2,36.2998 Z" id="Fill-16" fill="#FFFFFF"></path>
                        <g id="Group-20" transform="translate(48.000000, 0.613100)">
                            <mask id="mask-8" fill="white">
                                <use xlink:href="#path-7"></use>
                            </mask>
                            <g id="Clip-19"></g>
                            <path d="M3.1004,0.3869 L0.1004,0.3869 L0.4994,13.2869 C0.9994,11.8869 1.7994,10.4869 2.7994,9.3869 L3.1004,0.3869 Z" id="Fill-18" fill="#FFFFFF" mask="url(#mask-8)"></path>
                        </g>
                        <path d="M71.4002,1.1001 L68.4002,1.1001 L68.7002,10.1001 C69.7002,11.2001 70.5002,12.6001 71.0002,14.1001 L71.4002,1.1001 Z" id="Fill-21" fill="#FFFFFF"></path>
                        <path d="M69.4002,36.7998 L70.2002,36.2998 L70.6002,22.5998 C70.2002,23.5998 69.6002,24.4998 69.0002,25.2998 L69.4002,36.7998 Z" id="Fill-23" fill="#FFFFFF"></path>
                        <path d="M54.4998,1.1001 L51.6008,1.1001 L51.7998,9.2001 C52.6008,8.5001 53.3998,8.0001 54.2998,7.5001 L54.4998,1.1001 Z" id="Fill-25" fill="#FFFFFF"></path>
                        <path d="M52.6004,37.7998 L53.4994,38.1998 L53.7004,28.2998 C53.2004,27.9998 52.7004,27.6998 52.2004,27.2998 L52.6004,37.7998 Z" id="Fill-27" fill="#FFFFFF"></path>
                        <path d="M67.9998,1.1001 L65.1008,1.1001 L65.2998,7.5001 C66.1998,8.0001 66.9998,8.6001 67.7998,9.3001 L67.9998,1.1001 Z" id="Fill-29" fill="#FFFFFF"></path>
                        <path d="M66.1004,38.2002 L66.9994,37.8002 L67.2994,27.0992 C66.7994,27.5002 66.2994,27.8002 65.7994,28.2002 L66.1004,38.2002 Z" id="Fill-31" fill="#FFFFFF"></path>
                        <path d="M56.1004,38.9004 L56.7994,38.9004 L57.1004,29.5994 C56.7004,29.5004 56.2994,29.4004 55.9004,29.2994 L56.1004,38.9004 Z" id="Fill-33" fill="#FFFFFF"></path>
                        <path d="M57.7996,1.1001 L54.9996,1.1001 L55.1996,7.0001 C55.9996,6.7001 56.7996,6.4001 57.6996,6.3001 L57.7996,1.1001 Z" id="Fill-35" fill="#FFFFFF"></path>
                        <path d="M64.4998,1.1001 L61.6998,1.1001 L61.8998,6.3001 C62.7998,6.5001 63.6008,6.7001 64.3998,7.0001 L64.4998,1.1001 Z" id="Fill-37" fill="#FFFFFF"></path>
                        <path d="M62.7996,38.9004 L63.4996,38.9004 L63.7996,29.2004 C63.4006,29.2994 62.9996,29.5004 62.6006,29.5994 L62.7996,38.9004 Z" id="Fill-39" fill="#FFFFFF"></path>
                        <path d="M60.9998,6.2002 L61.1008,1.1002 L58.2998,1.1002 L58.4998,6.2002 C58.8998,6.2002 59.2998,6.1002 59.6998,6.1002 C60.1008,6.1002 60.6008,6.1002 60.9998,6.2002" id="Fill-41" fill="#FFFFFF"></path>
                        <polygon id="Fill-43" fill="#FFFFFF" points="59.2 29.9004 59.5 38.9004 60.1 38.9004 60.3 29.9004 59.6 29.9004"></polygon>
                        <path d="M35.4002,40.4004 C34.4002,39.4004 33.2002,39.0994 31.8002,39.2994 C30.3002,39.5004 28.3002,40.5994 28.5002,42.9004 L28.5002,44.9004 L28.5002,47.5004 C28.5002,47.7994 28.6002,48.0994 28.9002,48.2004 C29.2002,48.4004 29.6002,48.4004 29.9002,48.2004 C30.2002,48.0004 30.3002,47.7004 30.3002,47.4004 L30.3002,42.5994 C30.3002,42.2994 30.4002,42.0004 30.5002,41.7004 C31.0002,40.9004 32.0002,40.5994 33.0002,40.7994 C34.0002,41.0994 34.4002,41.7004 34.4002,42.7004 L34.4002,47.4004 C34.4002,48.0004 34.7002,48.2994 35.3002,48.2994 C35.9002,48.2994 36.2002,48.0004 36.2002,47.4004 L36.2002,42.5994 C36.2992,41.7994 36.0002,41.0004 35.4002,40.4004" id="Fill-45" fill="#FFFFFF"></path>
                        <path d="M42.6004,46.7998 C41.7994,47.1998 40.9994,47.1998 40.2004,46.6998 C39.4994,46.2998 39.4994,45.4008 40.2004,44.9008 C40.7994,44.4998 41.4994,44.4998 42.1004,44.2998 L42.2994,44.2998 C43.2994,44.0998 43.2994,44.0998 43.2994,45.1998 C43.4004,45.7998 43.2994,46.4008 42.6004,46.7998 M45.2004,42.1998 C45.2004,41.2998 44.7994,40.4998 44.1004,39.9998 C42.7004,38.9998 40.1004,39.0998 38.7994,40.2998 C38.4004,40.6998 38.2994,40.9998 38.4994,41.4008 C38.7004,41.7998 39.2994,41.9008 39.7004,41.6998 C39.9004,41.5998 40.1004,41.4008 40.2994,41.2998 C40.9994,40.7998 42.2004,40.7998 42.7994,41.1998 C43.2994,41.4998 43.4004,41.9998 43.2994,42.4998 C43.2004,42.9008 42.7994,42.6998 42.4994,42.7998 C42.4004,42.7998 42.2004,42.9008 42.1004,42.9008 C40.9994,43.0998 39.9994,43.1998 38.9994,43.7998 C37.2994,44.9008 37.2994,46.9998 39.1004,47.9998 C40.4994,48.7998 41.9994,48.7998 43.4004,48.0998 C44.4994,47.5998 45.1004,46.6998 45.1004,45.4008 L45.1004,43.9008 C45.2004,43.2998 45.2004,42.7998 45.2004,42.1998" id="Fill-47" fill="#FFFFFF"></path>
                        <path d="M24.9002,44 L24.9002,45.1 C25.0002,46.4 23.8002,47.1 22.7002,47.1 C21.8002,47 20.7002,46.4 20.8002,45.1 L20.8002,42.8 C20.8002,41.6 21.6002,40.9 22.9002,40.9 C24.1002,40.9 24.9002,41.6 24.9002,42.8 L24.9002,44 Z M26.7002,43.9 L26.7002,42.5 C26.7002,41.6 26.3002,40.9 25.7002,40.3 C24.4002,39.2 22.4002,38.9 20.9002,39.7 C19.6002,40.3 18.9002,41.3 19.0002,42.8 L19.0002,45.2 C19.0002,46.2 19.4002,47.1 20.2002,47.7 C21.6002,48.7 23.2002,48.9 24.7002,48.1 C26.0002,47.5 26.7002,46.5 26.7002,45 L26.7002,43.9 Z" id="Fill-49" fill="#FFFFFF"></path>
                        <path d="M17.5999,40 C17.1999,39.8 16.8999,39.6 16.3999,39.5 C13.9999,38.9 11.5999,40 11.6999,43 L11.6999,47.5 C11.6999,48.1 11.9999,48.4 12.5999,48.4 C13.1999,48.4 13.4999,48.1 13.4999,47.5 L13.4999,45 L13.4999,43.7 L13.4999,42.4 C13.5999,41.3 14.1999,40.8 15.1999,40.8 C15.5999,40.8 15.9999,40.9 16.3999,41.2 C16.5999,41.3 16.6999,41.4 16.8999,41.4 C17.2999,41.5 17.7999,41.2 17.8999,40.9 C18.1999,40.4 17.8999,40.2 17.5999,40" id="Fill-51" fill="#FFFFFF"></path>
                        <path d="M8.2,42.2002 L8.2,44.0002 C8.2,45.5002 7.4,46.5002 6,46.9002 C4.8,47.2002 3.7,47.0002 2.7,46.2002 C2.1,45.7002 1.8,45.0002 1.8,44.3002 L1.8,40.5002 C1.8,39.0002 2.6,38.0002 4,37.5992 C5.2,37.3002 6.4,37.5002 7.4,38.4002 C7.9,38.9002 8.2,39.5002 8.2,40.2002 L8.2,42.2002 Z M8.6,37.2002 C5.8,34.8002 0.8,36.0002 0,39.4002 L0,45.0002 C0.2,45.8002 0.6,46.5002 1.2,47.0992 C3.1,48.8002 6.2,49.0002 8.3,47.5002 C9.3,46.8002 10,45.8002 10,44.5002 L10,39.9002 C9.9,38.8002 9.4,37.9002 8.6,37.2002 Z" id="Fill-53" fill="#FFFFFF"></path>
                    </g>
                </g>
            </g>
        </g>
    </g>
</svg>