<?xml version="1.0" encoding="UTF-8"?>
<svg width="129px" height="36px" viewBox="0 0 129 36" version="1.1" xmlns="http://www.w3.org/2000/svg" xmlns:xlink="http://www.w3.org/1999/xlink">
    <!-- Generator: Sketch 52.6 (67491) - http://www.bohemiancoding.com/sketch -->
    <title>identidad / panda / blanco</title>
    <desc>Created with Sketch.</desc>
    <defs>
        <polygon id="path-1" points="0.8992 0.9002 16 0.9002 16 16.1002 0.8992 16.1002"></polygon>
        <polygon id="path-3" points="0.4998 0.3994 18.0998 0.3994 18.0998 18 0.4998 18"></polygon>
        <polygon id="path-5" points="0.0998 0.3994 17.6998 0.3994 17.6998 18 0.0998 18"></polygon>
        <polygon id="path-7" points="0.1999 0.8 17.6999 0.8 17.6999 18.3998 0.1999 18.3998"></polygon>
        <polygon id="path-9" points="0.5002 0.8 18.2002 0.8 18.2002 18.3998 0.5002 18.3998"></polygon>
    </defs>
    <g id="Desktop" stroke="none" stroke-width="1" fill="none" fill-rule="evenodd">
        <g id="Desktop---Inicio" transform="translate(-464.000000, -2983.000000)">
            <g id="grid" transform="translate(68.000000, 2970.000000)">
                <g id="identidad-/-panda-/-blanco" transform="translate(396.000000, 12.000000)">
                    <g>
                        <path d="M55.1999,21.0002 C53.8999,21.0002 52.7999,20.0002 52.7999,18.6002 C52.7999,17.3002 53.7999,16.2002 55.1999,16.2002 C56.4999,16.2002 57.5999,17.2002 57.5999,18.6002 C57.5999,20.0002 56.4999,21.0002 55.1999,21.0002 M55.1999,11.1002 C53.9999,11.1002 52.9999,11.4002 51.9999,11.8002 L47.6999,11.8002 L47.6999,32.5002 L52.9999,32.5002 L52.9999,25.8002 C53.6999,26.0002 54.4999,26.1002 55.1999,26.1002 C59.3999,26.1002 62.7999,22.7002 62.7999,18.5002 C62.7999,14.4002 59.3999,11.1002 55.1999,11.1002" id="Fill-1" fill="#FFFFFF"></path>
                        <path d="M71.5002,21.0002 C70.2002,21.0002 69.1002,20.0002 69.1002,18.6002 C69.1002,17.3002 70.1002,16.2002 71.5002,16.2002 C72.8002,16.2002 73.8992,17.2002 73.8992,18.6002 C73.8002,19.8992 72.8002,21.0002 71.5002,21.0002 M71.5002,11.1002 C67.3992,11.1002 64.0002,14.5002 64.0002,18.7002 C64.0002,22.8992 67.3992,26.3002 71.6002,26.3002 C72.8002,26.3002 73.8002,26.0002 74.8002,25.6002 L79.1002,25.6002 L79.1002,11.8002 L74.8002,11.8002 C73.7002,11.3002 72.6002,11.1002 71.5002,11.1002" id="Fill-3" fill="#FFFFFF"></path>
                        <path d="M86.7004,18.5002 C86.7004,17.3002 87.7004,16.3002 88.8994,16.3002 C90.0994,16.3002 91.0994,17.3002 91.0994,18.5002 L91.0994,25.5002 L96.3994,25.5002 L96.3994,18.7002 C96.3994,14.5002 93.0004,11.1002 88.8994,11.1002 C87.7004,11.1002 86.7004,11.4002 85.7004,11.8002 L81.3994,11.8002 L81.3994,25.3992 L86.7004,25.3992 L86.7004,18.5002 Z" id="Fill-5" fill="#FFFFFF"></path>
                        <path d="M105.2004,21.0002 C103.8994,21.0002 102.8004,20.0002 102.8004,18.6002 C102.8004,17.3002 103.8004,16.2002 105.2004,16.2002 C106.5004,16.2002 107.5994,17.2002 107.5994,18.6002 C107.5994,19.8992 106.5004,21.0002 105.2004,21.0002 Z M107.5004,11.4002 C106.8004,11.2002 106.0004,11.1002 105.3004,11.1002 C101.0994,11.1002 97.7004,14.5002 97.7004,18.7002 C97.7004,22.8992 101.0994,26.3002 105.3004,26.3002 C106.5004,26.3002 107.5004,26.0002 108.5004,25.6002 L112.8004,25.6002 L112.8004,4.7002 L107.5004,4.7002 L107.5004,11.4002 Z" id="Fill-7" fill="#FFFFFF"></path>
                        <g id="Group-11" transform="translate(113.000000, 10.200000)">
                            <mask id="mask-2" fill="white">
                                <use xlink:href="#path-1"></use>
                            </mask>
                            <g id="Clip-10"></g>
                            <path d="M8.5002,10.8002 C7.2002,10.8002 6.1002,9.8002 6.1002,8.4002 C6.1002,7.1002 7.1002,6.0002 8.5002,6.0002 C9.8002,6.0002 10.8992,7.0002 10.8992,8.4002 C10.8002,9.6992 9.8002,10.8002 8.5002,10.8002 Z M11.7002,1.6002 C10.7002,1.1002 9.6002,0.9002 8.5002,0.9002 C4.3002,0.9002 0.8992,4.3002 0.8992,8.5002 C0.8992,12.6992 4.3002,16.1002 8.5002,16.1002 C9.7002,16.1002 10.7002,15.8002 11.7002,15.4002 L16.0002,15.4002 L16.0002,1.6002 L11.7002,1.6002 Z" id="Fill-9" fill="#FFFFFF" mask="url(#mask-2)"></path>
                        </g>
                        <g id="Group-14" transform="translate(2.000000, 18.200000)">
                            <mask id="mask-4" fill="white">
                                <use xlink:href="#path-3"></use>
                            </mask>
                            <g id="Clip-13"></g>
                            <path d="M18.0998,8.0004 C13.8998,8.0004 10.4998,4.6004 10.4998,0.3994 L0.4998,0.3994 C0.4998,10.1004 8.3998,18.0004 18.0998,18.0004 L18.0998,8.0004 Z" id="Fill-12" fill="#FFFFFF" mask="url(#mask-4)"></path>
                        </g>
                        <g id="Group-17" opacity="0.8" transform="translate(20.000000, 18.200000)">
                            <mask id="mask-6" fill="white">
                                <use xlink:href="#path-5"></use>
                            </mask>
                            <g id="Clip-16"></g>
                            <path d="M0.0998,18.0004 C9.7998,18.0004 17.6998,10.1004 17.6998,0.3994 L7.6998,0.3994 C7.6998,4.6004 4.2998,8.0004 0.0998,8.0004 L0.0998,18.0004 Z" id="Fill-15" fill="#FFFFFF" mask="url(#mask-6)"></path>
                        </g>
                        <g id="Group-20" opacity="0.6" transform="translate(20.000000, 0.200000)">
                            <mask id="mask-8" fill="white">
                                <use xlink:href="#path-7"></use>
                            </mask>
                            <g id="Clip-19"></g>
                            <path d="M17.6999,18.3998 C17.6999,8.6998 9.8999,0.7998 0.1999,0.7998 L0.1999,10.7998 C4.3999,10.7998 7.6999,14.1998 7.6999,18.3998 L17.6999,18.3998 Z" id="Fill-18" fill="#FFFFFF" mask="url(#mask-8)"></path>
                        </g>
                        <g id="Group-23" transform="translate(2.000000, 0.200000)">
                            <mask id="mask-10" fill="white">
                                <use xlink:href="#path-9"></use>
                            </mask>
                            <g id="Clip-22"></g>
                            <path d="M10.5002,18.3998 C10.5002,14.1998 13.9999,10.8002 18.1999,10.8002 L18.2002,0.7998 C8.5002,0.7998 0.5002,8.6998 0.5002,18.3998 L10.5002,18.3998 Z" id="Fill-21" fill="#FFFFFF" opacity="0.4" mask="url(#mask-10)"></path>
                        </g>
                        <path d="M35.1999,1.0002 C32.9999,1.0002 31.0999,2.4002 30.4999,4.4002 C32.8999,6.1002 34.7999,8.4002 35.9999,11.0002 C38.3999,10.6002 40.1999,8.5002 40.1999,6.0002 C40.1999,3.3002 37.9999,1.0002 35.1999,1.0002" id="Fill-24" fill="#FFFFFF"></path>
                        <path d="M9.8,4.4001 C9.1,2.5001 7.2,1.0001 5,1.0001 C2.2,1.0001 0,3.2001 0,6.0001 C0,8.5001 1.8,10.6001 4.3,11.0001 C5.5,8.4001 7.4,6.1001 9.8,4.4001" id="Fill-26" fill="#FFFFFF"></path>
                    </g>
                </g>
            </g>
        </g>
    </g>
</svg>