<?xml version="1.0" encoding="UTF-8"?>
<svg width="101px" height="40px" viewBox="0 0 101 40" version="1.1" xmlns="http://www.w3.org/2000/svg" xmlns:xlink="http://www.w3.org/1999/xlink">
    <!-- Generator: Sketch 52.6 (67491) - http://www.bohemiancoding.com/sketch -->
    <title>identidad / prisa / white</title>
    <desc>Created with Sketch.</desc>
    <defs>
        <polygon id="path-1" points="1 0.5 1.5 0.5 1.5 1 1 1"></polygon>
        <polygon id="path-3" points="1 0.5 1.5 0.5 1.5 1 1 1"></polygon>
        <polygon id="path-5" points="1 0.5 1.5 0.5 1.5 1 1 1"></polygon>
        <polygon id="path-7" points="1 0.5 1.5 0.5 1.5 1 1 1"></polygon>
        <polygon id="path-9" points="1 0.5 1.5 0.5 1.5 1 1 1"></polygon>
        <polygon id="path-11" points="1 0.5 1.5 0.5 1.5 1 1 1"></polygon>
        <polygon id="path-13" points="1 0.5 1.5 0.5 1.5 1 1 1"></polygon>
        <polygon id="path-15" points="1 0.5 1.5 0.5 1.5 1 1 1"></polygon>
        <polygon id="path-17" points="1 0.5 1.5 0.5 1.5 1 1 1"></polygon>
        <polygon id="path-19" points="1 0.5 1.5 0.5 1.5 1 1 1"></polygon>
        <polygon id="path-21" points="1 0.5 1.5 0.5 1.5 1 1 1"></polygon>
        <polygon id="path-23" points="1 0.5 1.5 0.5 1.5 1 1 1"></polygon>
        <polygon id="path-25" points="1 0.5 1.5 0.5 1.5 1 1 1"></polygon>
        <polygon id="path-27" points="1 0.5 1.5 0.5 1.5 1 1 1"></polygon>
        <polygon id="path-29" points="1 0.5 1.5 0.5 1.5 1 1 1"></polygon>
        <polygon id="path-31" points="1 0.5 1.5 0.5 1.5 1 1 1"></polygon>
    </defs>
    <g id="Desktop" stroke="none" stroke-width="1" fill="none" fill-rule="evenodd">
        <g id="Desktop---Inicio" transform="translate(-94.000000, -2980.000000)">
            <g id="grid" transform="translate(68.000000, 2970.000000)">
                <g id="identidad-/-prisa-/-white" transform="translate(25.000000, 10.000000)">
                    <g>
                        <g id="Group-3" transform="translate(0.000000, 38.700000)">
                            <mask id="mask-2" fill="white">
                                <use xlink:href="#path-1"></use>
                            </mask>
                            <g id="Clip-2"></g>
                            <path d="" id="Fill-1" fill="#050005" mask="url(#mask-2)"></path>
                        </g>
                        <g id="Group-6" transform="translate(0.000000, 38.700000)">
                            <mask id="mask-4" fill="white">
                                <use xlink:href="#path-3"></use>
                            </mask>
                            <g id="Clip-5"></g>
                            <path d="" id="Fill-4" fill="#050005" mask="url(#mask-4)"></path>
                        </g>
                        <g id="Group-9" transform="translate(0.000000, 38.700000)">
                            <mask id="mask-6" fill="white">
                                <use xlink:href="#path-5"></use>
                            </mask>
                            <g id="Clip-8"></g>
                            <path d="" id="Fill-7" fill="#050005" mask="url(#mask-6)"></path>
                        </g>
                        <g id="Group-12" transform="translate(0.000000, 38.700000)">
                            <mask id="mask-8" fill="white">
                                <use xlink:href="#path-7"></use>
                            </mask>
                            <g id="Clip-11"></g>
                            <path d="" id="Fill-10" fill="#050005" mask="url(#mask-8)"></path>
                        </g>
                        <g id="Group-15" transform="translate(0.000000, 38.700000)">
                            <mask id="mask-10" fill="white">
                                <use xlink:href="#path-9"></use>
                            </mask>
                            <g id="Clip-14"></g>
                            <path d="" id="Fill-13" fill="#050005" mask="url(#mask-10)"></path>
                        </g>
                        <g id="Group-18" transform="translate(0.000000, 38.700000)">
                            <mask id="mask-12" fill="white">
                                <use xlink:href="#path-11"></use>
                            </mask>
                            <g id="Clip-17"></g>
                            <path d="" id="Fill-16" fill="#050005" mask="url(#mask-12)"></path>
                        </g>
                        <g id="Group-21" transform="translate(0.000000, 38.700000)">
                            <mask id="mask-14" fill="white">
                                <use xlink:href="#path-13"></use>
                            </mask>
                            <g id="Clip-20"></g>
                            <path d="" id="Fill-19" fill="#050005" mask="url(#mask-14)"></path>
                        </g>
                        <g id="Group-24" transform="translate(0.000000, 38.700000)">
                            <mask id="mask-16" fill="white">
                                <use xlink:href="#path-15"></use>
                            </mask>
                            <g id="Clip-23"></g>
                            <path d="" id="Fill-22" fill="#050005" mask="url(#mask-16)"></path>
                        </g>
                        <g id="Group-27" transform="translate(0.000000, 38.700000)">
                            <mask id="mask-18" fill="white">
                                <use xlink:href="#path-17"></use>
                            </mask>
                            <g id="Clip-26"></g>
                            <path d="" id="Fill-25" fill="#050005" mask="url(#mask-18)"></path>
                        </g>
                        <g id="Group-30" transform="translate(0.000000, 38.700000)">
                            <mask id="mask-20" fill="white">
                                <use xlink:href="#path-19"></use>
                            </mask>
                            <g id="Clip-29"></g>
                            <path d="" id="Fill-28" fill="#050005" mask="url(#mask-20)"></path>
                        </g>
                        <g id="Group-33" transform="translate(0.000000, 38.700000)">
                            <mask id="mask-22" fill="white">
                                <use xlink:href="#path-21"></use>
                            </mask>
                            <g id="Clip-32"></g>
                            <path d="" id="Fill-31" fill="#050005" mask="url(#mask-22)"></path>
                        </g>
                        <g id="Group-36" transform="translate(0.000000, 38.700000)">
                            <mask id="mask-24" fill="white">
                                <use xlink:href="#path-23"></use>
                            </mask>
                            <g id="Clip-35"></g>
                            <path d="" id="Fill-34" fill="#050005" mask="url(#mask-24)"></path>
                        </g>
                        <g id="Group-39" transform="translate(0.000000, 38.700000)">
                            <mask id="mask-26" fill="white">
                                <use xlink:href="#path-25"></use>
                            </mask>
                            <g id="Clip-38"></g>
                            <path d="" id="Fill-37" fill="#050005" mask="url(#mask-26)"></path>
                        </g>
                        <g id="Group-42" transform="translate(0.000000, 38.700000)">
                            <mask id="mask-28" fill="white">
                                <use xlink:href="#path-27"></use>
                            </mask>
                            <g id="Clip-41"></g>
                            <path d="" id="Fill-40" fill="#050005" mask="url(#mask-28)"></path>
                        </g>
                        <g id="Group-45" transform="translate(0.000000, 38.700000)">
                            <mask id="mask-30" fill="white">
                                <use xlink:href="#path-29"></use>
                            </mask>
                            <g id="Clip-44"></g>
                            <path d="" id="Fill-43" fill="#050005" mask="url(#mask-30)"></path>
                        </g>
                        <g id="Group-48" transform="translate(0.000000, 38.700000)">
                            <mask id="mask-32" fill="white">
                                <use xlink:href="#path-31"></use>
                            </mask>
                            <g id="Clip-47"></g>
                            <path d="" id="Fill-46" fill="#050005" mask="url(#mask-32)"></path>
                        </g>
                        <path d="M72.8252,36.7998 C72.8252,36.7998 73.1252,33.9008 75.7242,34.2998 C78.6252,34.7998 82.1252,35.1998 82.0252,33.2998 C81.9252,31.2998 73.5252,31.4008 73.5252,26.0998 C73.4252,19.0998 85.5252,22.4998 85.5252,22.4998 C85.5252,22.4998 85.6252,25.4008 83.0252,25.2998 C81.0252,25.1998 77.4252,24.5998 77.3252,25.9998 C77.2242,27.7998 86.0252,28.0998 85.8252,33.1998 C85.4252,41.2998 72.8252,36.7998 72.8252,36.7998" id="Fill-49" fill="#FFFFFF"></path>
                        <path d="M61.625,31.5996 C63.425,30.7006 64.425,29.0996 64.425,27.0996 C64.425,23.4006 61.625,21.5996 57.925,21.5996 C53.425,21.5996 51.325,22.4996 51.325,22.4996 L51.325,36.4006 C51.325,38.4996 55.225,37.7996 55.225,37.7996 L55.225,25.2006 C56.025,25.0996 56.625,24.9996 57.525,24.9996 C59.325,24.9996 60.525,25.4006 60.525,27.2006 C60.525,28.2006 60.025,28.9006 58.425,29.0996 C56.525,29.2996 57.325,30.9006 57.825,31.9996 L60.125,36.4996 C61.425,38.9996 64.925,37.9006 64.925,37.9006 L61.625,31.5996 Z" id="Fill-51" fill="#FFFFFF"></path>
                        <path d="M43.4248,21.7002 C38.9248,21.7002 36.8248,22.6002 36.8248,22.6002 L36.8248,36.5002 C36.8248,38.5992 40.7248,37.9002 40.7248,37.9002 L40.7248,32.5992 C41.4248,32.5992 42.2248,32.7002 43.7248,32.7002 C47.7248,32.7002 50.0258,30.3002 50.0258,27.3002 C49.9248,23.4002 47.1248,21.7002 43.4248,21.7002 M43.2248,29.3002 C42.1248,29.3002 41.4248,29.3002 40.7248,29.2002 L40.7248,25.2002 C41.5248,25.0992 42.1248,25.0002 43.0248,25.0002 C44.8248,25.0002 46.0248,25.4002 46.0248,27.2002 C46.0248,28.3002 45.2248,29.3002 43.2248,29.3002" id="Fill-53" fill="#FFFFFF"></path>
                        <path d="M95.9248,22.7998 C95.1248,20.8998 91.9248,21.8998 91.9248,21.8998 L86.1248,36.4008 C85.3248,38.4008 89.7248,37.7998 89.7248,37.7998 L90.9248,34.5998 L96.5258,34.5998 L97.1248,36.4008 C98.0258,38.5998 101.7248,37.7998 101.7248,37.7998 L95.9248,22.7998 Z M92.1248,31.1998 L93.7248,26.9008 L95.2248,31.1998 L92.1248,31.1998 Z" id="Fill-55" fill="#FFFFFF"></path>
                        <path d="M66.9248,21.8999 L66.9248,36.3999 C66.9248,38.4999 70.8248,37.7999 70.8248,37.7999 L70.8248,23.2999 C70.8248,21.1999 66.9248,21.8999 66.9248,21.8999" id="Fill-57" fill="#FFFFFF"></path>
                        <path d="M3.4248,9.2998 C3.4248,10.0998 3.7248,10.8998 4.3248,11.6998 C7.0248,9.2998 10.7248,7.8998 12.6248,7.1998 C13.5248,6.8998 14.5248,6.5998 15.5248,6.2998 L14.4248,6.2998 C10.1248,6.2998 5.9248,6.9998 3.4248,9.2998" id="Fill-59" fill="#6F6D6D"></path>
                        <path d="M22.0249,19.1001 C21.1249,19.4001 20.3249,19.6001 19.5249,19.9001 C20.3249,20.3001 20.7249,20.8001 20.7249,21.3001 C20.7249,21.7001 20.5249,22.0001 20.1249,22.4001 C17.9249,24.5001 15.0249,25.4001 12.1249,25.4001 L11.9249,25.4001 C12.9249,25.5001 13.8249,25.7001 14.8249,26.0001 C15.1249,26.1001 15.4249,26.2001 15.7249,26.3001 C16.5249,26.6001 17.3249,26.8001 18.0249,27.1001 C19.8249,26.2001 22.5249,25.5001 26.0249,25.1001 C30.7249,24.6001 32.0249,23.9001 32.0249,23.2001 C32.0249,23.0001 31.9249,22.9001 31.8249,22.7001 C31.2249,21.9001 30.0249,21.2001 28.6249,20.7001 C26.3249,19.8001 23.7249,19.3001 22.0249,19.1001" id="Fill-61" fill="#716F6F"></path>
                        <path d="M28.2251,11.5 C28.0251,11.5 16.2251,12.5 8.8251,15.6 C12.1251,17.5 15.9251,18.9 17.6251,19.3 L17.8251,19.3 C18.9251,19.1 19.9251,19 20.8251,19 C21.1251,19 21.5251,19 21.9251,19.1 C24.6251,18.3 27.9251,17.7 31.8251,17.4 C38.0251,16.9 42.1251,15.9 43.9251,14.7 C47.2251,12.4 42.5251,9.6 28.3251,8.7 C31.8251,10 31.3251,11 28.2251,11.5" id="Fill-63" fill="#888889"></path>
                        <path d="M7.125,14.3999 C7.725,14.7999 8.325,15.1999 8.925,15.5999 C16.325,12.4999 28.125,11.4999 28.325,11.4999 C31.325,11.0999 31.925,10.0999 28.625,8.6999 C28.025,8.6999 27.325,8.5999 26.725,8.5999 C19.925,8.5999 11.625,10.6999 7.125,14.3999" id="Fill-65" fill="#505050"></path>
                        <path d="M20.9248,19.1001 C20.0248,19.1001 18.9248,19.2001 17.9248,19.4001 C18.6248,19.6001 19.1248,19.8001 19.6248,20.0001 C20.4248,19.7001 21.2248,19.4001 22.1248,19.2001 C21.6248,19.1001 21.2248,19.1001 20.9248,19.1001" id="Fill-67" fill="#505050"></path>
                        <g id="Group-71" transform="translate(1.000000, 11.700000)" fill="#949494">
                            <path d="M0.625,0.8 L0.625,0.9 C-0.075,3.9 -0.075,7.1 0.325,10 C2.325,16.4 12.625,19.5 17.925,20.6 C19.425,19.5 23.825,20.7 24.325,17.8 L24.325,17.7 C24.325,16.4 22.925,16.3 22.325,16.3 C21.625,16.3 18.425,15.8 14.825,14.4 C14.525,14.3 14.225,14.2 13.925,14.1 C12.925,13.8 12.025,13.7 11.025,13.5 C5.825,13.4 0.825,10.5 0.025,6.1 C-0.075,4.5 0.125,2.6 0.625,0.8" id="Fill-69"></path>
                        </g>
                        <path d="M4.0249,30.5 C5.0249,32.4 6.1249,34.1 7.4249,35.3 C9.5249,37.3 11.7249,38.1 13.5249,38.1 C14.3249,38.1 15.0249,37.9 15.6249,37.7 C15.9249,37.6 16.0249,37.4 16.0249,37.2 C16.0249,36.8 15.3249,36.3 14.0249,35.8 C13.6249,35.7 13.2249,35.5 12.7249,35.3 C7.8249,35 5.3249,32.7 4.0249,30.5" id="Fill-72" fill="#7D7D7D"></path>
                        <path d="M1.2251,21.7998 C1.3251,22.2998 1.3251,22.7998 1.4251,23.1998 C1.7251,24.9008 2.2251,26.4998 2.8251,27.9998 C4.5251,31.0998 8.0251,33.0998 10.9251,34.4008 C12.3251,34.9008 13.7251,35.1998 15.1251,35.1998 C17.0251,35.1998 18.8251,34.5998 19.9251,33.2998 C20.0251,33.1998 20.0251,33.0998 20.0251,32.9998 C20.0251,32.5998 19.0251,32.4008 18.9251,32.2998 L17.4251,32.2998 C9.6251,32.2998 3.2251,29.0998 1.5251,22.9998 C1.4251,22.6998 1.3251,22.2998 1.2251,21.7998" id="Fill-74" fill="#838383"></path>
                        <path d="M1.2251,21.7998 C1.3251,22.2998 1.3251,22.6998 1.4251,23.1998 C3.1251,29.2998 9.5251,32.4998 17.3251,32.4998 L18.8251,32.4998 C13.5251,31.2998 3.2251,28.1998 1.2251,21.7998" id="Fill-76" fill="#808080"></path>
                        <path d="M2.9248,28.0996 C3.2248,28.9996 3.6248,29.7996 4.0248,30.5996 C5.3248,32.7996 7.8248,35.0996 12.7248,35.2006 C12.4248,35.0996 12.1248,34.9996 11.8248,34.7996 C11.6248,34.7006 11.4248,34.5996 11.2248,34.4996 C11.1248,34.4996 11.1248,34.4006 11.0248,34.4006 C8.1248,33.2006 4.5248,31.2006 2.9248,28.0996" id="Fill-78" fill="#5C5C5C"></path>
                        <path d="M20.4248,37.2998 C18.8248,37.2998 17.7248,37.9008 17.4248,38.4998 C17.3248,38.5998 17.3248,38.7998 17.3248,38.9008 C17.3248,39.2998 17.8248,39.6998 18.8248,39.6998 C19.1248,39.6998 19.5248,39.6998 19.9248,39.5998 C20.7248,39.4998 21.6248,39.0998 22.0248,38.4998 C22.2248,38.2998 22.3248,38.0998 22.3248,37.9008 C22.3248,37.6998 22.1248,37.4998 21.4248,37.2998 L20.4248,37.2998" id="Fill-80" fill="#7D7D7D"></path>
                        <path d="M4.125,7 C3.925,7.3 3.525,7.8 3.125,8.6 C2.925,9 2.725,9.3 2.525,9.7 C2.225,10.4 1.925,11.1 1.825,11.7 C1.725,12 1.625,12.3 1.625,12.5 C0.925,18.2 8.925,23.3 13.425,25.3 C13.125,25.3 12.725,25.4 12.325,25.4 L11.825,25.4 L11.925,25.4 L12.125,25.4 C15.025,25.4 17.925,24.5 20.125,22.4 C20.525,22 20.725,21.7 20.725,21.3 C20.725,20.8 20.325,20.3 19.525,19.9 C19.125,19.7 18.525,19.5 17.825,19.3 L17.625,19.3 C15.925,18.9 12.125,17.5 8.825,15.6 C8.225,15.2 7.625,14.8 7.025,14.4 C5.825,13.6 4.925,12.7 4.225,11.7 C3.725,10.9 3.425,10.1 3.325,9.3 L3.325,9.2 C3.425,8.5 3.625,7.7 4.125,7" id="Fill-82" fill="#969695"></path>
                        <path d="M1.625,12.5 C1.125,14.3 0.925,16.2 1.025,18.1 C1.725,22.4 6.825,25.4 12.025,25.5 L11.925,25.5 L12.425,25.5 C12.825,25.5 13.225,25.5 13.525,25.4 C8.925,23.3 0.925,18.2 1.625,12.5" id="Fill-84" fill="#6F6D6D"></path>
                        <path d="M15.5249,6.2998 C14.5249,6.5998 13.5249,6.8998 12.6249,7.1998 C10.8249,7.8998 7.0249,9.2998 4.3249,11.6998 C5.0249,12.6998 5.9249,13.5998 7.1249,14.3998 C11.6249,10.6998 19.9249,8.5998 26.6249,8.5998 C27.3249,8.5998 27.9249,8.5998 28.5249,8.6998 C28.2249,8.5998 27.8249,8.3998 27.4249,8.2998 C25.5249,7.4998 20.5249,6.3998 15.5249,6.2998" id="Fill-86" fill="#767575"></path>
                        <path d="M4.125,7.1001 C3.725,7.8001 3.525,8.5001 3.525,9.2001 L3.525,9.3001 C6.025,7.0001 10.225,6.2001 14.525,6.2001 L15.625,6.2001 C21.625,4.6001 28.925,4.5001 36.625,4.5001 L40.725,4.5001 C40.925,4.5001 40.925,4.5001 40.925,4.4001 C40.925,4.3001 40.625,4.1001 40.425,3.9001 C36.425,1.7001 29.525,0.0001 22.625,0.0001 C15.225,0.1001 7.925,2.0001 4.125,7.1001" id="Fill-88" fill="#8F8F8F"></path>
                    </g>
                </g>
            </g>
        </g>
    </g>
</svg>