<?xml version="1.0" encoding="UTF-8"?>
<svg width="121px" height="31px" viewBox="0 0 121 31" version="1.1" xmlns="http://www.w3.org/2000/svg" xmlns:xlink="http://www.w3.org/1999/xlink">
    <!-- Generator: Sketch 52.6 (67491) - http://www.bohemiancoding.com/sketch -->
    <title>identidad / sherpa / blanco</title>
    <desc>Created with Sketch.</desc>
    <defs>
        <polygon id="path-1" points="0.308127907 0.469884848 16.7237946 0.469884848 16.7237946 24.4242424 0.308127907 24.4242424"></polygon>
        <polygon id="path-3" points="0 0.620683168 12.7835093 0.620683168 12.7835093 17.7585817 0 17.7585817"></polygon>
    </defs>
    <g id="Desktop" stroke="none" stroke-width="1" fill="none" fill-rule="evenodd">
        <g id="Desktop---Inicio" transform="translate(-468.000000, -3185.000000)">
            <g id="grid" transform="translate(68.000000, 2970.000000)">
                <g id="identidad-/-sherpa-/-blanco" transform="translate(400.000000, 215.000000)">
                    <g>
                        <path d="M88.2914488,17.0973455 L88.2914488,16.4397697 L87.7277202,16.4397697 C83.9757822,16.4397697 82.1945496,17.1912848 82.1945496,18.6003758 C82.1945496,19.8206485 83.5067899,20.3852242 84.6333093,20.3852242 C86.9782705,20.3852242 88.2914488,19.2579515 88.2914488,17.0973455 M92.5123791,14.0912848 L92.5123791,19.7276485 C92.5123791,21.7943152 90.824007,23.8600424 88.8542395,23.8600424 C88.7604411,23.8600424 88.5728442,23.7670424 88.5728442,23.5782242 L88.5728442,21.6994364 C87.4472628,23.1085273 85.8517512,23.8600424 83.7891233,23.8600424 C80.9751698,23.8600424 77.8788829,22.2640121 77.8788829,18.8812545 C77.8788829,13.1518909 84.9137667,13.1518909 87.8224566,13.1518909 L88.5728442,13.1518909 L88.5728442,12.9640121 C88.5728442,11.273103 87.3534643,10.2397697 85.2898984,10.2397697 C84.5395109,10.2397697 83.7891233,10.4267091 83.1325341,10.7094667 C81.7255574,11.1791636 80.1309837,10.8964061 79.0054023,9.77007273 C79.0054023,9.77007273 78.9116039,9.67613333 78.9116039,9.58219394 C78.9116039,9.48731515 78.9116039,9.48731515 79.0054023,9.39431515 L79.0992008,9.30037576 C80.3185806,7.98522424 82.0069527,7.23370909 83.9757822,6.85795152 C84.5395109,6.76401212 85.1023016,6.76401212 85.7588907,6.76401212 C92.4176426,6.76401212 92.5123791,11.8358 92.5123791,14.0912848" id="Fill-1" fill="#FFFFFF"></path>
                        <path d="M109.301739,17.0973455 L109.301739,16.4397697 L108.738948,16.4397697 C104.98701,16.4397697 103.20484,17.1912848 103.20484,18.6003758 C103.20484,19.8206485 104.518018,20.3852242 105.644537,20.3852242 C108.082359,20.3852242 109.301739,19.2579515 109.301739,17.0973455 M113.522669,14.0912848 L113.522669,19.7276485 C113.522669,21.7943152 111.834297,23.8600424 109.865467,23.8600424 C109.770731,23.8600424 109.584072,23.7670424 109.584072,23.5782242 L109.584072,21.6994364 C108.458491,23.1085273 106.862979,23.8600424 104.799413,23.8600424 C101.98546,23.8600424 98.8901109,22.2640121 98.8901109,18.8812545 C98.8901109,13.1518909 105.924995,13.1518909 108.832747,13.1518909 L109.584072,13.1518909 L109.584072,12.9640121 C109.584072,11.273103 108.363754,10.2397697 106.301126,10.2397697 C105.549801,10.2397697 104.799413,10.4267091 104.142824,10.7094667 C102.735847,11.1791636 101.142212,10.8964061 100.01663,9.77007273 C100.01663,9.77007273 99.9218938,9.67613333 99.9218938,9.58219394 C99.9218938,9.48731515 99.9218938,9.48731515 100.01663,9.39431515 L100.109491,9.30037576 C101.328871,7.98522424 103.018181,7.23370909 104.98701,6.85795152 C105.549801,6.76401212 106.113529,6.76401212 106.770119,6.76401212 C113.428871,6.76401212 113.522669,11.8358 113.522669,14.0912848" id="Fill-3" fill="#FFFFFF"></path>
                        <g id="Group-7" transform="translate(60.031008, 6.106061)">
                            <mask id="mask-2" fill="white">
                                <use xlink:href="#path-1"></use>
                            </mask>
                            <g id="Clip-6"></g>
                            <path d="M9.12518217,0.939581818 C13.5337093,0.939581818 16.7237946,4.3214 16.7237946,9.30018788 C16.7237946,14.091097 13.6275078,17.6607939 9.31277907,17.6607939 C7.24921318,17.6607939 5.65463953,17.0032182 4.43525969,15.5941273 L4.43525969,22.2638242 C4.43525969,23.4850364 3.49727519,24.4244303 2.3716938,24.4244303 C1.24705039,24.4244303 0.308127907,23.4850364 0.308127907,22.2638242 L0.308127907,4.41533939 C0.308127907,2.34867273 1.9965,0.469884848 4.06100388,0.469884848 C4.15386434,0.469884848 4.34146124,0.563824242 4.34146124,0.75170303 L4.34146124,3.19412727 C5.27944574,1.78503636 7.06161628,0.939581818 9.12518217,0.939581818 M8.37479457,13.6214 C11.0958876,13.6214 12.5028643,11.4607939 12.5028643,9.30018788 C12.5028643,7.13958182 11.0958876,4.97897576 8.37479457,4.97897576 C5.65463953,4.97897576 4.24766279,7.13958182 4.24766279,9.30018788 C4.24766279,11.4607939 5.65463953,13.6214 8.37479457,13.6214" id="Fill-5" fill="#FFFFFF" mask="url(#mask-2)"></path>
                        </g>
                        <path d="M58.275945,7.51533939 C58.3697434,7.51533939 58.4635419,7.60927879 58.4635419,7.79715758 L58.4635419,11.5547333 C58.4635419,11.6486727 58.4635419,11.7426121 58.3697434,11.7426121 C58.275945,11.8365515 58.275945,11.8365515 58.1821465,11.7426121 C57.5255574,11.5547333 56.9627667,11.4607939 56.399976,11.4607939 C52.5542395,11.4607939 52.4604411,15.0304909 52.4604411,15.1244303 L52.4604411,21.7941273 C52.4604411,23.0153394 51.5224566,23.9547333 50.3030767,23.9547333 C49.2712938,23.9547333 48.1457124,23.2971576 48.1457124,21.7941273 L48.1457124,10.8971576 C48.1457124,8.64261212 50.0216814,6.85776364 52.2728442,6.85776364 C52.3666426,6.85776364 52.5542395,6.95170303 52.5542395,7.13958182 L52.5542395,9.58200606 C53.492224,8.17291515 55.0867977,7.32746061 56.9627667,7.32746061 C57.4317589,7.32746061 57.9007512,7.4214 58.275945,7.51533939" id="Fill-8" fill="#FFFFFF"></path>
                        <path d="M120.182922,15.0304909 L120.182922,21.7001879 C120.182922,22.9204606 119.244937,23.8598545 118.025557,23.8598545 C117.087573,23.8598545 115.867255,23.2032182 115.867255,21.7001879 L115.867255,10.8032182 C115.867255,8.54867273 117.650364,6.76382424 119.901526,6.76382424 C119.995325,6.76382424 120.182922,6.85776364 120.182922,7.04564242 L120.182922,15.0304909 Z" id="Fill-10" fill="#FFFFFF"></path>
                        <path d="M39.2345783,6.57594545 C43.9245008,6.57594545 46.9260512,9.95776364 46.9260512,15.4062485 C46.9260512,16.1577636 46.3632605,16.7214 45.6128729,16.7214 L34.9198496,16.7214 C35.2950434,18.6931879 36.7958186,20.0092788 38.8593845,20.0092788 C39.7035705,20.0092788 40.3601597,19.8214 41.0167488,19.5395818 C42.3299271,18.6931879 44.1120977,18.6931879 45.425276,19.6325818 L45.8942682,19.9153394 L46.0818651,20.0092788 C46.1756636,20.0092788 46.1756636,20.1022788 46.1756636,20.1971576 C46.1756636,20.291097 46.1756636,20.3850364 46.0818651,20.3850364 C44.393493,22.4507636 42.0485318,23.5789758 39.2345783,23.5789758 C34.169462,23.5789758 30.417524,20.0092788 30.417524,15.0304909 C30.417524,10.051703 34.169462,6.57594545 39.2345783,6.57594545 M34.9198496,13.3395818 L42.4237256,13.3395818 C42.3299271,11.2729152 40.9229504,10.051703 38.6717876,10.051703 C36.6082217,10.1456424 35.2950434,11.2729152 34.9198496,13.3395818" id="Fill-12" fill="#FFFFFF"></path>
                        <path d="M19.0679116,0.000187878788 C19.2555085,0.000187878788 19.349307,0.0941272727 19.349307,0.282006061 L19.349307,8.83049091 C20.0996946,7.79715758 21.5066713,6.85776364 23.4764388,6.85776364 C26.9469814,6.85776364 29.1043457,9.20624848 29.1043457,13.151703 L29.1043457,21.7001879 C29.1043457,22.9204606 28.1663612,23.8598545 27.0407798,23.8598545 L26.9469814,23.8598545 C25.8214,23.8598545 24.8834155,22.9204606 24.8834155,21.7001879 L24.8834155,15.0304909 C24.8834155,12.9638242 24.6020202,10.8032182 22.4446558,10.8032182 C19.5369039,10.8032182 19.349307,13.6214 19.349307,14.4668545 L19.349307,21.7001879 C19.349307,22.8274606 18.4113225,23.8598545 17.2857411,23.8598545 C16.1601597,23.8598545 15.2221752,22.9204606 15.2221752,21.7001879 L15.2221752,3.38200606 C15.2221752,1.40927879 17.2857411,0.000187878788 19.0679116,0.000187878788" id="Fill-14" fill="#FFFFFF"></path>
                        <g id="Group-18" transform="translate(0.000000, 6.106061)">
                            <mask id="mask-4" fill="white">
                                <use xlink:href="#path-3"></use>
                            </mask>
                            <g id="Clip-17"></g>
                            <path d="M11.6579279,9.58172424 C12.3145171,10.2393 12.7835093,11.2726333 12.7835093,12.6817242 C12.6897109,16.3453606 9.50056357,17.8483909 6.31141628,17.7544515 C4.24785039,17.6605121 1.4338969,16.6271788 0.308315504,15.4999061 C-0.160676744,15.0302091 -0.0668782946,14.2786939 0.402113953,13.9029364 L2.27808295,12.3059667 C2.3718814,12.3059667 2.3718814,12.2120273 2.46567984,12.2120273 C2.55947829,12.2120273 2.55947829,12.3059667 2.65327674,12.3059667 C3.30986589,13.3393 5.37343178,14.0908152 6.59281163,14.0908152 C7.24940078,14.0908152 8.56257907,13.808997 8.56257907,12.7756636 C8.56257907,11.9302091 7.53079612,11.5544515 5.84242403,11.1786939 C4.43544729,10.8029364 2.74707519,10.3332394 1.52769535,9.11202727 C1.52769535,9.11202727 1.2463,8.83020909 1.15250155,8.7362697 C0.495912403,7.98475455 0.026920155,6.85748182 0.214517054,5.35445152 C0.589710853,1.69081515 3.96645504,0.375663636 7.15560233,0.657481818 C8.75017597,0.751421212 9.78195891,1.12717879 10.2509512,1.50293636 C11.5641295,2.25445152 12.5959124,4.60293636 10.9075403,6.29384545 C10.8137419,6.29384545 10.8137419,6.38778485 10.7199434,6.29384545 C10.626145,6.29384545 10.5323465,6.19990606 10.5323465,6.19990606 C9.78195891,4.22717879 7.24940078,4.13323939 6.68661008,4.13323939 C6.03002093,4.13323939 4.62304419,4.41505758 4.52924574,5.5423303 C4.43544729,6.48172424 5.46723023,6.85748182 7.15560233,7.42111818 C7.24940078,7.42111818 7.43699767,7.51505758 7.43699767,7.51505758 C8.84397442,7.89081515 10.626145,8.36051212 11.6579279,9.58172424" id="Fill-16" fill="#FFFFFF" mask="url(#mask-4)"></path>
                        </g>
                        <path d="M95.7953248,19.5393939 C96.9209062,19.5393939 97.8588907,20.4787879 97.8588907,21.7 C97.8588907,22.9212121 96.9209062,23.8606061 95.7953248,23.8606061 C94.6697434,23.8606061 93.7317589,22.9212121 93.7317589,21.7 C93.7317589,20.4787879 94.6697434,19.5393939 95.7953248,19.5393939" id="Fill-19" fill="#FFFFFF"></path>
                        <path d="M118.869368,0.469884848 C119.99495,0.469884848 120.932934,1.40927879 120.932934,2.63049091 C120.932934,3.85170303 119.99495,4.79109697 118.869368,4.79109697 C117.743787,4.79109697 116.805802,3.85170303 116.805802,2.63049091 C116.805802,1.40927879 117.743787,0.469884848 118.869368,0.469884848" id="Fill-21" fill="#FFFFFF"></path>
                    </g>
                </g>
            </g>
        </g>
    </g>
</svg>